  0
SECTION
  2
HEADER
  9
$ACADVER
  1
AC1014
  9
$HANDSEED
  5
FFFF
  9
$MEASUREMENT
 70
     1
  0
ENDSEC
  0
SECTION
  2
TABLES
  0
TABLE
  2
VPORT
  5
8
330
0
100
AcDbSymbolTable
 70
     4
  0
VPORT
  5
2E
330
8
100
AcDbSymbolTableRecord
100
AcDbViewportTableRecord
  2
*ACTIVE
 70
     0
 10
0.0
 20
0.0
 11
1.0
 21
1.0
 12
210.0
 22
148.5
 13
0.0
 23
0.0
 14
10.0
 24
10.0
 15
10.0
 25
10.0
 16
0.0
 26
0.0
 36
1.0
 17
0.0
 27
0.0
 37
0.0
 40
341.0
 41
1.24
 42
50.0
 43
0.0
 44
0.0
 50
0.0
 51
0.0
 71
     0
 72
   100
 73
     1
 74
     3
 75
     0
 76
     0
 77
     0
 78
     0
  0
ENDTAB
  0
TABLE
  2
LTYPE
  5
5
330
0
100
AcDbSymbolTable
 70
     1
  0
LTYPE
  5
14
330
5
100
AcDbSymbolTableRecord
100
AcDbLinetypeTableRecord
  2
BYBLOCK
 70
     0
  3

 72
    65
 73
     0
 40
0.0
  0
LTYPE
  5
15
330
5
100
AcDbSymbolTableRecord
100
AcDbLinetypeTableRecord
  2
BYLAYER
 70
     0
  3

 72
    65
 73
     0
 40
0.0
  0
LTYPE
  5
16
330
5
100
AcDbSymbolTableRecord
100
AcDbLinetypeTableRecord
  2
CONTINUOUS
 70
     0
  3
Solid line
 72
    65
 73
     0
 40
0.0
  0
ENDTAB
  0
TABLE
  2
LAYER
  5
2
100
AcDbSymbolTable
 70
3
  0
LAYER
  5
50
100
AcDbSymbolTableRecord
100
AcDbLayerTableRecord
  2
0
 70
0
  6
CONTINUOUS
  0
LAYER
  5
51
100
AcDbSymbolTableRecord
100
AcDbLayerTableRecord
  2
Capa_1
 70
0
  6
CONTINUOUS
  0
LAYER
  5
52
100
AcDbSymbolTableRecord
100
AcDbLayerTableRecord
  2
Capa_2
 70
0
  6
CONTINUOUS
  0
ENDTAB
  0
TABLE
  2
STYLE
  5
3
330
0
100
AcDbSymbolTable
 70
     1
  0
STYLE
  5
11
330
3
100
AcDbSymbolTableRecord
100
AcDbTextStyleTableRecord
  2
STANDARD
 70
     0
 40
0.0
 41
1.0
 50
0.0
 71
     0
 42
2.5
  3
txt
  4

  0
ENDTAB
  0
TABLE
  2
VIEW
  5
6
330
0
100
AcDbSymbolTable
 70
     0
  0
ENDTAB
  0
TABLE
  2
UCS
  5
7
330
0
100
AcDbSymbolTable
 70
     0
  0
ENDTAB
  0
TABLE
  2
APPID
  5
9
330
0
100
AcDbSymbolTable
 70
     2
  0
APPID
  5
12
330
9
100
AcDbSymbolTableRecord
100
AcDbRegAppTableRecord
  2
ACAD
 70
     0
  0
ENDTAB
  0
TABLE
  2
DIMSTYLE
  5
A
330
0
100
AcDbSymbolTable
 70
     1
  0
DIMSTYLE
105
27
330
A
100
AcDbSymbolTableRecord
100
AcDbDimStyleTableRecord
  2
ISO-25
 70
     0
  3

  4

  5

  6

  7

 40
1.0
 41
2.5
 42
0.625
 43
3.75
 44
1.25
 45
0.0
 46
0.0
 47
0.0
 48
0.0
140
2.5
141
2.5
142
0.0
143
0.03937007874016
144
1.0
145
0.0
146
1.0
147
0.625
 71
     0
 72
     0
 73
     0
 74
     0
 75
     0
 76
     0
 77
     1
 78
     8
170
     0
171
     3
172
     1
173
     0
174
     0
175
     0
176
     0
177
     0
178
     0
270
     2
271
     2
272
     2
273
     2
274
     3
340
11
275
     0
280
     0
281
     0
282
     0
283
     0
284
     8
285
     0
286
     0
287
     3
288
     0
  0
ENDTAB
  0
TABLE
  2
BLOCK_RECORD
  5
1
330
0
100
AcDbSymbolTable
 70
     1
  0
BLOCK_RECORD
  5
1F
330
1
100
AcDbSymbolTableRecord
100
AcDbBlockTableRecord
  2
*MODEL_SPACE
  0
BLOCK_RECORD
  5
1B
330
1
100
AcDbSymbolTableRecord
100
AcDbBlockTableRecord
  2
*PAPER_SPACE
  0
ENDTAB
  0
ENDSEC
  0
SECTION
  2
BLOCKS
  0
BLOCK
  5
20
330
1F
100
AcDbEntity
  8
0
100
AcDbBlockBegin
  2
*MODEL_SPACE
 70
     0
 10
0.0
 20
0.0
 30
0.0
  3
*MODEL_SPACE
  1

  0
ENDBLK
  5
21
330
1F
100
AcDbEntity
  8
0
100
AcDbBlockEnd
  0
BLOCK
  5
1C
330
1B
100
AcDbEntity
 67
     1
  8
0
100
AcDbBlockBegin
  2
*PAPER_SPACE
  1

  0
ENDBLK
  5
1D
330
1B
100
AcDbEntity
 67
     1
  8
0
100
AcDbBlockEnd
  0
ENDSEC
  0
SECTION
  2
ENTITIES
  0
SPLINE
  5
100
100
AcDbEntity
  8
Capa_1
 62
1
100
AcDbSpline
 70
8
 71
3
 72
8
 73
4
 74
0
 40
0
 40
0
 40
0
 40
0
 40
1
 40
1
 40
1
 40
1
 10
113.783370
 20
254.609454
 30
0.0
 10
113.807002
 20
254.609454
 30
0.0
 10
113.828838
 20
254.622062
 30
0.0
 10
113.840654
 20
254.642527
 30
0.0
  0
SPLINE
  5
101
100
AcDbEntity
  8
Capa_1
 62
1
100
AcDbSpline
 70
8
 71
3
 72
8
 73
4
 74
0
 40
0
 40
0
 40
0
 40
0
 40
1
 40
1
 40
1
 40
1
 10
113.840654
 20
254.642527
 30
0.0
 10
113.852470
 20
254.662993
 30
0.0
 10
113.852470
 20
254.688207
 30
0.0
 10
113.840654
 20
254.708673
 30
0.0
  0
SPLINE
  5
102
100
AcDbEntity
  8
Capa_1
 62
1
100
AcDbSpline
 70
8
 71
3
 72
8
 73
4
 74
0
 40
0
 40
0
 40
0
 40
0
 40
1
 40
1
 40
1
 40
1
 10
113.840654
 20
254.708673
 30
0.0
 10
113.828838
 20
254.729138
 30
0.0
 10
113.807002
 20
254.741746
 30
0.0
 10
113.783370
 20
254.741746
 30
0.0
  0
SPLINE
  5
103
100
AcDbEntity
  8
Capa_1
 62
1
100
AcDbSpline
 70
8
 71
3
 72
8
 73
4
 74
0
 40
0
 40
0
 40
0
 40
0
 40
1
 40
1
 40
1
 40
1
 10
113.783370
 20
254.741746
 30
0.0
 10
113.759739
 20
254.741746
 30
0.0
 10
113.737902
 20
254.729138
 30
0.0
 10
113.726086
 20
254.708673
 30
0.0
  0
SPLINE
  5
104
100
AcDbEntity
  8
Capa_1
 62
1
100
AcDbSpline
 70
8
 71
3
 72
8
 73
4
 74
0
 40
0
 40
0
 40
0
 40
0
 40
1
 40
1
 40
1
 40
1
 10
113.726086
 20
254.708673
 30
0.0
 10
113.714271
 20
254.688207
 30
0.0
 10
113.714271
 20
254.662993
 30
0.0
 10
113.726086
 20
254.642527
 30
0.0
  0
SPLINE
  5
105
100
AcDbEntity
  8
Capa_1
 62
1
100
AcDbSpline
 70
8
 71
3
 72
8
 73
4
 74
0
 40
0
 40
0
 40
0
 40
0
 40
1
 40
1
 40
1
 40
1
 10
113.726086
 20
254.642527
 30
0.0
 10
113.737902
 20
254.622062
 30
0.0
 10
113.759739
 20
254.609454
 30
0.0
 10
113.783370
 20
254.609454
 30
0.0
  0
SPLINE
  5
106
100
AcDbEntity
  8
Capa_1
 62
1
100
AcDbSpline
 70
8
 71
3
 72
8
 73
4
 74
0
 40
0
 40
0
 40
0
 40
0
 40
1
 40
1
 40
1
 40
1
 10
116.783371
 20
137.609603
 30
0.0
 10
116.807003
 20
137.609603
 30
0.0
 10
116.828839
 20
137.622210
 30
0.0
 10
116.840655
 20
137.642676
 30
0.0
  0
SPLINE
  5
107
100
AcDbEntity
  8
Capa_1
 62
1
100
AcDbSpline
 70
8
 71
3
 72
8
 73
4
 74
0
 40
0
 40
0
 40
0
 40
0
 40
1
 40
1
 40
1
 40
1
 10
116.840655
 20
137.642676
 30
0.0
 10
116.852471
 20
137.663141
 30
0.0
 10
116.852471
 20
137.688356
 30
0.0
 10
116.840655
 20
137.708821
 30
0.0
  0
SPLINE
  5
108
100
AcDbEntity
  8
Capa_1
 62
1
100
AcDbSpline
 70
8
 71
3
 72
8
 73
4
 74
0
 40
0
 40
0
 40
0
 40
0
 40
1
 40
1
 40
1
 40
1
 10
116.840655
 20
137.708821
 30
0.0
 10
116.828839
 20
137.729287
 30
0.0
 10
116.807003
 20
137.741894
 30
0.0
 10
116.783371
 20
137.741894
 30
0.0
  0
SPLINE
  5
109
100
AcDbEntity
  8
Capa_1
 62
1
100
AcDbSpline
 70
8
 71
3
 72
8
 73
4
 74
0
 40
0
 40
0
 40
0
 40
0
 40
1
 40
1
 40
1
 40
1
 10
116.783371
 20
137.741894
 30
0.0
 10
116.759739
 20
137.741894
 30
0.0
 10
116.737903
 20
137.729287
 30
0.0
 10
116.726087
 20
137.708821
 30
0.0
  0
SPLINE
  5
10a
100
AcDbEntity
  8
Capa_1
 62
1
100
AcDbSpline
 70
8
 71
3
 72
8
 73
4
 74
0
 40
0
 40
0
 40
0
 40
0
 40
1
 40
1
 40
1
 40
1
 10
116.726087
 20
137.708821
 30
0.0
 10
116.714271
 20
137.688356
 30
0.0
 10
116.714271
 20
137.663141
 30
0.0
 10
116.726087
 20
137.642676
 30
0.0
  0
SPLINE
  5
10b
100
AcDbEntity
  8
Capa_1
 62
1
100
AcDbSpline
 70
8
 71
3
 72
8
 73
4
 74
0
 40
0
 40
0
 40
0
 40
0
 40
1
 40
1
 40
1
 40
1
 10
116.726087
 20
137.642676
 30
0.0
 10
116.737903
 20
137.622210
 30
0.0
 10
116.759739
 20
137.609603
 30
0.0
 10
116.783371
 20
137.609603
 30
0.0
  0
LWPOLYLINE
  5
10c
100
AcDbEntity
  8
Capa_1
 62
1
100
AcDbPolyline
 90
1
 70
1
 10
113.783370
 20
254.609454
 30
0.0
  0
SPLINE
  5
10d
100
AcDbEntity
  8
Capa_1
 62
1
100
AcDbSpline
 70
8
 71
3
 72
8
 73
4
 74
0
 40
0
 40
0
 40
0
 40
0
 40
1
 40
1
 40
1
 40
1
 10
116.783371
 20
177.601154
 30
0.0
 10
116.807003
 20
177.601154
 30
0.0
 10
116.828839
 20
177.613761
 30
0.0
 10
116.840655
 20
177.634227
 30
0.0
  0
SPLINE
  5
10e
100
AcDbEntity
  8
Capa_1
 62
1
100
AcDbSpline
 70
8
 71
3
 72
8
 73
4
 74
0
 40
0
 40
0
 40
0
 40
0
 40
1
 40
1
 40
1
 40
1
 10
116.840655
 20
177.634227
 30
0.0
 10
116.852471
 20
177.654692
 30
0.0
 10
116.852471
 20
177.679907
 30
0.0
 10
116.840655
 20
177.700373
 30
0.0
  0
SPLINE
  5
10f
100
AcDbEntity
  8
Capa_1
 62
1
100
AcDbSpline
 70
8
 71
3
 72
8
 73
4
 74
0
 40
0
 40
0
 40
0
 40
0
 40
1
 40
1
 40
1
 40
1
 10
116.840655
 20
177.700373
 30
0.0
 10
116.828839
 20
177.720838
 30
0.0
 10
116.807003
 20
177.733445
 30
0.0
 10
116.783371
 20
177.733445
 30
0.0
  0
SPLINE
  5
110
100
AcDbEntity
  8
Capa_1
 62
1
100
AcDbSpline
 70
8
 71
3
 72
8
 73
4
 74
0
 40
0
 40
0
 40
0
 40
0
 40
1
 40
1
 40
1
 40
1
 10
116.783371
 20
177.733445
 30
0.0
 10
116.759739
 20
177.733445
 30
0.0
 10
116.737903
 20
177.720838
 30
0.0
 10
116.726087
 20
177.700373
 30
0.0
  0
SPLINE
  5
111
100
AcDbEntity
  8
Capa_1
 62
1
100
AcDbSpline
 70
8
 71
3
 72
8
 73
4
 74
0
 40
0
 40
0
 40
0
 40
0
 40
1
 40
1
 40
1
 40
1
 10
116.726087
 20
177.700373
 30
0.0
 10
116.714271
 20
177.679907
 30
0.0
 10
116.714271
 20
177.654692
 30
0.0
 10
116.726087
 20
177.634227
 30
0.0
  0
SPLINE
  5
112
100
AcDbEntity
  8
Capa_1
 62
1
100
AcDbSpline
 70
8
 71
3
 72
8
 73
4
 74
0
 40
0
 40
0
 40
0
 40
0
 40
1
 40
1
 40
1
 40
1
 10
116.726087
 20
177.634227
 30
0.0
 10
116.737903
 20
177.613761
 30
0.0
 10
116.759739
 20
177.601154
 30
0.0
 10
116.783371
 20
177.601154
 30
0.0
  0
LWPOLYLINE
  5
113
100
AcDbEntity
  8
Capa_1
 62
1
100
AcDbPolyline
 90
1
 70
1
 10
116.783371
 20
137.609603
 30
0.0
  0
LWPOLYLINE
  5
114
100
AcDbEntity
  8
Capa_1
 62
1
100
AcDbPolyline
 90
1
 70
1
 10
116.783371
 20
177.601154
 30
0.0
  0
LWPOLYLINE
  5
115
100
AcDbEntity
  8
Capa_1
 62
1
100
AcDbPolyline
 90
2
 70
0
 10
172.783300
 20
132.667356
 30
0.0
 10
147.783331
 20
132.667356
 30
0.0
  0
LWPOLYLINE
  5
116
100
AcDbEntity
  8
Capa_1
 62
1
100
AcDbPolyline
 90
2
 70
0
 10
172.783300
 20
120.667372
 30
0.0
 10
147.783331
 20
120.667372
 30
0.0
  0
LWPOLYLINE
  5
117
100
AcDbEntity
  8
Capa_1
 62
1
100
AcDbPolyline
 90
2
 70
0
 10
163.283312
 20
98.667401
 30
0.0
 10
197.783268
 20
98.667401
 30
0.0
  0
LWPOLYLINE
  5
118
100
AcDbEntity
  8
Capa_1
 62
1
100
AcDbPolyline
 90
2
 70
0
 10
172.783300
 20
144.667341
 30
0.0
 10
147.783331
 20
144.667341
 30
0.0
  0
LWPOLYLINE
  5
119
100
AcDbEntity
  8
Capa_1
 62
1
100
AcDbPolyline
 90
2
 70
0
 10
172.783300
 20
136.667351
 30
0.0
 10
147.783331
 20
136.667351
 30
0.0
  0
LWPOLYLINE
  5
11a
100
AcDbEntity
  8
Capa_1
 62
1
100
AcDbPolyline
 90
2
 70
0
 10
172.783300
 20
96.667402
 30
0.0
 10
147.783331
 20
96.667402
 30
0.0
  0
LWPOLYLINE
  5
11b
100
AcDbEntity
  8
Capa_1
 62
1
100
AcDbPolyline
 90
2
 70
0
 10
116.783371
 20
162.667319
 30
0.0
 10
116.783371
 20
152.675729
 30
0.0
  0
LWPOLYLINE
  5
11c
100
AcDbEntity
  8
Capa_1
 62
1
100
AcDbPolyline
 90
2
 70
0
 10
203.783259
 20
92.667407
 30
0.0
 10
178.783293
 20
92.667407
 30
0.0
  0
LWPOLYLINE
  5
11d
100
AcDbEntity
  8
Capa_1
 62
1
100
AcDbPolyline
 90
2
 70
0
 10
163.283312
 20
102.667396
 30
0.0
 10
197.783268
 20
102.667396
 30
0.0
  0
LWPOLYLINE
  5
11e
100
AcDbEntity
  8
Capa_1
 62
1
100
AcDbPolyline
 90
2
 70
0
 10
172.783300
 20
140.667346
 30
0.0
 10
147.783331
 20
140.667346
 30
0.0
  0
LWPOLYLINE
  5
11f
100
AcDbEntity
  8
Capa_1
 62
1
100
AcDbPolyline
 90
2
 70
0
 10
163.283312
 20
94.667406
 30
0.0
 10
197.783268
 20
94.667406
 30
0.0
  0
LWPOLYLINE
  5
120
100
AcDbEntity
  8
Capa_1
 62
1
100
AcDbPolyline
 90
2
 70
0
 10
203.783259
 20
120.667372
 30
0.0
 10
178.783293
 20
120.667372
 30
0.0
  0
LWPOLYLINE
  5
121
100
AcDbEntity
  8
Capa_1
 62
1
100
AcDbPolyline
 90
2
 70
0
 10
203.783259
 20
112.667382
 30
0.0
 10
178.783293
 20
112.667382
 30
0.0
  0
LWPOLYLINE
  5
122
100
AcDbEntity
  8
Capa_1
 62
1
100
AcDbPolyline
 90
2
 70
0
 10
203.783259
 20
96.667402
 30
0.0
 10
178.783293
 20
96.667402
 30
0.0
  0
LWPOLYLINE
  5
123
100
AcDbEntity
  8
Capa_1
 62
1
100
AcDbPolyline
 90
2
 70
0
 10
172.783300
 20
156.667328
 30
0.0
 10
147.783331
 20
156.667328
 30
0.0
  0
LWPOLYLINE
  5
124
100
AcDbEntity
  8
Capa_1
 62
1
100
AcDbPolyline
 90
2
 70
0
 10
172.783300
 20
92.667407
 30
0.0
 10
147.783331
 20
92.667407
 30
0.0
  0
LWPOLYLINE
  5
125
100
AcDbEntity
  8
Capa_1
 62
1
100
AcDbPolyline
 90
2
 70
0
 10
163.283312
 20
126.667365
 30
0.0
 10
197.783268
 20
126.667365
 30
0.0
  0
LWPOLYLINE
  5
126
100
AcDbEntity
  8
Capa_1
 62
1
100
AcDbPolyline
 90
2
 70
0
 10
172.783300
 20
152.667334
 30
0.0
 10
147.783331
 20
152.667334
 30
0.0
  0
LWPOLYLINE
  5
127
100
AcDbEntity
  8
Capa_1
 62
1
100
AcDbPolyline
 90
2
 70
0
 10
163.283312
 20
110.667386
 30
0.0
 10
197.783268
 20
110.667386
 30
0.0
  0
LWPOLYLINE
  5
128
100
AcDbEntity
  8
Capa_1
 62
1
100
AcDbPolyline
 90
2
 70
0
 10
172.783300
 20
100.667397
 30
0.0
 10
147.783331
 20
100.667397
 30
0.0
  0
LWPOLYLINE
  5
129
100
AcDbEntity
  8
Capa_1
 62
1
100
AcDbPolyline
 90
2
 70
0
 10
172.783300
 20
124.667367
 30
0.0
 10
147.783331
 20
124.667367
 30
0.0
  0
LWPOLYLINE
  5
12a
100
AcDbEntity
  8
Capa_1
 62
1
100
AcDbPolyline
 90
2
 70
0
 10
163.283312
 20
118.667376
 30
0.0
 10
197.783268
 20
118.667376
 30
0.0
  0
LWPOLYLINE
  5
12b
100
AcDbEntity
  8
Capa_1
 62
1
100
AcDbPolyline
 90
2
 70
0
 10
172.783300
 20
112.667382
 30
0.0
 10
147.783331
 20
112.667382
 30
0.0
  0
LWPOLYLINE
  5
12c
100
AcDbEntity
  8
Capa_1
 62
1
100
AcDbPolyline
 90
2
 70
0
 10
172.783300
 20
160.667323
 30
0.0
 10
147.783331
 20
160.667323
 30
0.0
  0
LWPOLYLINE
  5
12d
100
AcDbEntity
  8
Capa_1
 62
1
100
AcDbPolyline
 90
2
 70
0
 10
172.783300
 20
128.667362
 30
0.0
 10
147.783331
 20
128.667362
 30
0.0
  0
LWPOLYLINE
  5
12e
100
AcDbEntity
  8
Capa_1
 62
1
100
AcDbPolyline
 90
2
 70
0
 10
163.283312
 20
106.667391
 30
0.0
 10
197.783268
 20
106.667391
 30
0.0
  0
LWPOLYLINE
  5
12f
100
AcDbEntity
  8
Capa_1
 62
1
100
AcDbPolyline
 90
2
 70
0
 10
163.283312
 20
122.667370
 30
0.0
 10
197.783268
 20
122.667370
 30
0.0
  0
LWPOLYLINE
  5
130
100
AcDbEntity
  8
Capa_1
 62
1
100
AcDbPolyline
 90
2
 70
0
 10
163.283312
 20
114.667381
 30
0.0
 10
197.783268
 20
114.667381
 30
0.0
  0
LWPOLYLINE
  5
131
100
AcDbEntity
  8
Capa_1
 62
1
100
AcDbPolyline
 90
2
 70
0
 10
122.783373
 20
158.667325
 30
0.0
 10
157.283318
 20
158.667325
 30
0.0
  0
LWPOLYLINE
  5
132
100
AcDbEntity
  8
Capa_1
 62
1
100
AcDbPolyline
 90
2
 70
0
 10
141.783342
 20
152.667334
 30
0.0
 10
116.783371
 20
152.667334
 30
0.0
  0
LWPOLYLINE
  5
133
100
AcDbEntity
  8
Capa_1
 62
1
100
AcDbPolyline
 90
2
 70
0
 10
163.283312
 20
134.667355
 30
0.0
 10
197.783268
 20
134.667355
 30
0.0
  0
LWPOLYLINE
  5
134
100
AcDbEntity
  8
Capa_1
 62
1
100
AcDbPolyline
 90
2
 70
0
 10
141.783342
 20
132.667356
 30
0.0
 10
116.783371
 20
132.667356
 30
0.0
  0
LWPOLYLINE
  5
135
100
AcDbEntity
  8
Capa_1
 62
1
100
AcDbPolyline
 90
2
 70
0
 10
122.783373
 20
146.667340
 30
0.0
 10
157.283318
 20
146.667340
 30
0.0
  0
LWPOLYLINE
  5
136
100
AcDbEntity
  8
Capa_1
 62
1
100
AcDbPolyline
 90
2
 70
0
 10
163.283312
 20
142.667345
 30
0.0
 10
197.783268
 20
142.667345
 30
0.0
  0
LWPOLYLINE
  5
137
100
AcDbEntity
  8
Capa_1
 62
1
100
AcDbPolyline
 90
2
 70
0
 10
163.283312
 20
130.667360
 30
0.0
 10
197.783268
 20
130.667360
 30
0.0
  0
LWPOLYLINE
  5
138
100
AcDbEntity
  8
Capa_1
 62
1
100
AcDbPolyline
 90
1
 70
1
 10
122.783373
 20
162.667319
 30
0.0
  0
LWPOLYLINE
  5
139
100
AcDbEntity
  8
Capa_1
 62
1
100
AcDbPolyline
 90
2
 70
0
 10
172.783300
 20
148.667339
 30
0.0
 10
147.783331
 20
148.667339
 30
0.0
  0
LWPOLYLINE
  5
13a
100
AcDbEntity
  8
Capa_1
 62
1
100
AcDbPolyline
 90
3
 70
0
 10
113.783370
 20
163.315564
 30
0.0
 10
116.783371
 20
163.315564
 30
0.0
 10
116.783371
 20
116.955471
 30
0.0
  0
LWPOLYLINE
  5
13b
100
AcDbEntity
  8
Capa_1
 62
1
100
AcDbPolyline
 90
2
 70
0
 10
113.783370
 20
173.315550
 30
0.0
 10
113.783370
 20
163.315564
 30
0.0
  0
LWPOLYLINE
  5
13c
100
AcDbEntity
  8
Capa_1
 62
1
100
AcDbPolyline
 90
2
 70
0
 10
113.783370
 20
183.315538
 30
0.0
 10
116.783371
 20
183.315538
 30
0.0
  0
LWPOLYLINE
  5
13d
100
AcDbEntity
  8
Capa_1
 62
1
100
AcDbPolyline
 90
2
 70
0
 10
116.783371
 20
173.315550
 30
0.0
 10
113.783370
 20
173.315550
 30
0.0
  0
LWPOLYLINE
  5
13e
100
AcDbEntity
  8
Capa_1
 62
1
100
AcDbPolyline
 90
2
 70
0
 10
116.783371
 20
116.955471
 30
0.0
 10
113.783370
 20
116.955471
 30
0.0
  0
LWPOLYLINE
  5
13f
100
AcDbEntity
  8
Capa_1
 62
1
100
AcDbPolyline
 90
2
 70
0
 10
116.783371
 20
193.315527
 30
0.0
 10
113.783370
 20
193.315527
 30
0.0
  0
LWPOLYLINE
  5
140
100
AcDbEntity
  8
Capa_1
 62
1
100
AcDbPolyline
 90
2
 70
0
 10
113.783370
 20
116.955471
 30
0.0
 10
113.783370
 20
101.955488
 30
0.0
  0
LWPOLYLINE
  5
141
100
AcDbEntity
  8
Capa_1
 62
1
100
AcDbPolyline
 90
2
 70
0
 10
116.783371
 20
239.675619
 30
0.0
 10
116.783371
 20
193.315527
 30
0.0
  0
LWPOLYLINE
  5
142
100
AcDbEntity
  8
Capa_1
 62
1
100
AcDbPolyline
 90
2
 70
0
 10
113.783370
 20
193.315527
 30
0.0
 10
113.783370
 20
183.315538
 30
0.0
  0
LWPOLYLINE
  5
143
100
AcDbEntity
  8
Capa_1
 62
1
100
AcDbPolyline
 90
2
 70
0
 10
116.783371
 20
183.315538
 30
0.0
 10
116.783371
 20
173.315550
 30
0.0
  0
LWPOLYLINE
  5
144
100
AcDbEntity
  8
Capa_1
 62
1
100
AcDbPolyline
 90
3
 70
0
 10
125.033360
 20
69.972322
 30
0.0
 10
125.033360
 20
66.972326
 30
0.0
 10
140.033338
 20
66.972326
 30
0.0
  0
LWPOLYLINE
  5
145
100
AcDbEntity
  8
Capa_1
 62
1
100
AcDbPolyline
 90
3
 70
0
 10
140.033338
 20
69.972322
 30
0.0
 10
151.283327
 20
69.972322
 30
0.0
 10
151.283327
 20
66.972326
 30
0.0
  0
LWPOLYLINE
  5
146
100
AcDbEntity
  8
Capa_1
 62
1
100
AcDbPolyline
 90
3
 70
0
 10
113.783370
 20
101.955488
 30
0.0
 10
116.783371
 20
101.955488
 30
0.0
 10
116.783371
 20
91.963897
 30
0.0
  0
LWPOLYLINE
  5
147
100
AcDbEntity
  8
Capa_1
 62
1
100
AcDbPolyline
 90
2
 70
0
 10
140.033338
 20
66.972326
 30
0.0
 10
140.033338
 20
69.972322
 30
0.0
  0
LWPOLYLINE
  5
148
100
AcDbEntity
  8
Capa_1
 62
1
100
AcDbPolyline
 90
2
 70
0
 10
166.283308
 20
66.972326
 30
0.0
 10
166.283308
 20
69.972322
 30
0.0
  0
LWPOLYLINE
  5
149
100
AcDbEntity
  8
Capa_1
 62
1
100
AcDbPolyline
 90
2
 70
0
 10
151.283327
 20
66.972326
 30
0.0
 10
166.283308
 20
66.972326
 30
0.0
  0
LWPOLYLINE
  5
14a
100
AcDbEntity
  8
Capa_1
 62
1
100
AcDbPolyline
 90
2
 70
0
 10
116.783371
 20
76.963917
 30
0.0
 10
116.783371
 20
69.972322
 30
0.0
  0
LWPOLYLINE
  5
14b
100
AcDbEntity
  8
Capa_1
 62
1
100
AcDbPolyline
 90
2
 70
0
 10
116.783371
 20
91.963897
 30
0.0
 10
113.783370
 20
91.963897
 30
0.0
  0
LWPOLYLINE
  5
14c
100
AcDbEntity
  8
Capa_1
 62
1
100
AcDbPolyline
 90
3
 70
0
 10
166.283308
 20
69.972322
 30
0.0
 10
177.533295
 20
69.972322
 30
0.0
 10
177.533295
 20
66.972326
 30
0.0
  0
LWPOLYLINE
  5
14d
100
AcDbEntity
  8
Capa_1
 62
1
100
AcDbPolyline
 90
3
 70
0
 10
113.783370
 20
91.963897
 30
0.0
 10
113.783370
 20
76.963917
 30
0.0
 10
116.783371
 20
76.963917
 30
0.0
  0
LWPOLYLINE
  5
14e
100
AcDbEntity
  8
Capa_1
 62
1
100
AcDbPolyline
 90
2
 70
0
 10
116.783371
 20
69.972322
 30
0.0
 10
125.033360
 20
69.972322
 30
0.0
  0
LWPOLYLINE
  5
14f
100
AcDbEntity
  8
Capa_1
 62
1
100
AcDbPolyline
 90
2
 70
0
 10
177.533295
 20
286.658766
 30
0.0
 10
166.283308
 20
286.658766
 30
0.0
  0
LWPOLYLINE
  5
150
100
AcDbEntity
  8
Capa_1
 62
1
100
AcDbPolyline
 90
2
 70
0
 10
140.033338
 20
289.658764
 30
0.0
 10
125.033360
 20
289.658764
 30
0.0
  0
LWPOLYLINE
  5
151
100
AcDbEntity
  8
Capa_1
 62
1
100
AcDbPolyline
 90
2
 70
0
 10
192.533275
 20
289.658764
 30
0.0
 10
177.533295
 20
289.658764
 30
0.0
  0
LWPOLYLINE
  5
152
100
AcDbEntity
  8
Capa_1
 62
1
100
AcDbPolyline
 90
2
 70
0
 10
166.283308
 20
286.658766
 30
0.0
 10
166.283308
 20
289.658764
 30
0.0
  0
LWPOLYLINE
  5
153
100
AcDbEntity
  8
Capa_1
 62
1
100
AcDbPolyline
 90
2
 70
0
 10
203.783259
 20
286.658766
 30
0.0
 10
192.533275
 20
286.658766
 30
0.0
  0
LWPOLYLINE
  5
154
100
AcDbEntity
  8
Capa_1
 62
1
100
AcDbPolyline
 90
5
 70
0
 10
166.283308
 20
289.658764
 30
0.0
 10
151.283327
 20
289.658764
 30
0.0
 10
151.283327
 20
286.658766
 30
0.0
 10
140.033338
 20
286.658766
 30
0.0
 10
140.033338
 20
289.658764
 30
0.0
  0
LWPOLYLINE
  5
155
100
AcDbEntity
  8
Capa_1
 62
1
100
AcDbPolyline
 90
2
 70
0
 10
125.033360
 20
289.658764
 30
0.0
 10
125.033360
 20
286.658766
 30
0.0
  0
LWPOLYLINE
  5
156
100
AcDbEntity
  8
Capa_1
 62
1
100
AcDbPolyline
 90
2
 70
0
 10
192.533275
 20
69.972322
 30
0.0
 10
203.783259
 20
69.972322
 30
0.0
  0
LWPOLYLINE
  5
157
100
AcDbEntity
  8
Capa_1
 62
1
100
AcDbPolyline
 90
2
 70
0
 10
177.533295
 20
66.972326
 30
0.0
 10
192.533275
 20
66.972326
 30
0.0
  0
LWPOLYLINE
  5
158
100
AcDbEntity
  8
Capa_1
 62
1
100
AcDbPolyline
 90
2
 70
0
 10
203.783259
 20
69.972322
 30
0.0
 10
203.783259
 20
286.658766
 30
0.0
  0
LWPOLYLINE
  5
159
100
AcDbEntity
  8
Capa_1
 62
1
100
AcDbPolyline
 90
2
 70
0
 10
192.533275
 20
66.972326
 30
0.0
 10
192.533275
 20
69.972322
 30
0.0
  0
LWPOLYLINE
  5
15a
100
AcDbEntity
  8
Capa_1
 62
1
100
AcDbPolyline
 90
2
 70
0
 10
192.533275
 20
286.658766
 30
0.0
 10
192.533275
 20
289.658764
 30
0.0
  0
LWPOLYLINE
  5
15b
100
AcDbEntity
  8
Capa_1
 62
1
100
AcDbPolyline
 90
2
 70
0
 10
177.533295
 20
289.658764
 30
0.0
 10
177.533295
 20
286.658766
 30
0.0
  0
LWPOLYLINE
  5
15c
100
AcDbEntity
  8
Capa_1
 62
1
100
AcDbPolyline
 90
2
 70
0
 10
163.283312
 20
264.667191
 30
0.0
 10
197.783268
 20
264.667191
 30
0.0
  0
LWPOLYLINE
  5
15d
100
AcDbEntity
  8
Capa_1
 62
1
100
AcDbPolyline
 90
3
 70
0
 10
116.783371
 20
279.667172
 30
0.0
 10
113.783370
 20
279.667172
 30
0.0
 10
113.783370
 20
264.667191
 30
0.0
  0
LWPOLYLINE
  5
15e
100
AcDbEntity
  8
Capa_1
 62
1
100
AcDbPolyline
 90
3
 70
0
 10
203.783259
 20
264.667191
 30
0.0
 10
203.783259
 20
262.667194
 30
0.0
 10
178.783293
 20
262.667194
 30
0.0
  0
LWPOLYLINE
  5
15f
100
AcDbEntity
  8
Capa_1
 62
1
100
AcDbPolyline
 90
2
 70
0
 10
125.033360
 20
286.658766
 30
0.0
 10
116.783371
 20
286.658766
 30
0.0
  0
LWPOLYLINE
  5
160
100
AcDbEntity
  8
Capa_1
 62
1
100
AcDbPolyline
 90
2
 70
0
 10
116.783371
 20
264.667191
 30
0.0
 10
116.783371
 20
254.675600
 30
0.0
  0
LWPOLYLINE
  5
161
100
AcDbEntity
  8
Capa_1
 62
1
100
AcDbPolyline
 90
2
 70
0
 10
113.783370
 20
254.675600
 30
0.0
 10
113.783370
 20
239.675619
 30
0.0
  0
LWPOLYLINE
  5
162
100
AcDbEntity
  8
Capa_1
 62
1
100
AcDbPolyline
 90
2
 70
0
 10
122.783373
 20
264.667191
 30
0.0
 10
157.283318
 20
264.667191
 30
0.0
  0
LWPOLYLINE
  5
163
100
AcDbEntity
  8
Capa_1
 62
1
100
AcDbPolyline
 90
2
 70
0
 10
113.783370
 20
239.675619
 30
0.0
 10
116.783371
 20
239.675619
 30
0.0
  0
LWPOLYLINE
  5
164
100
AcDbEntity
  8
Capa_1
 62
1
100
AcDbPolyline
 90
2
 70
0
 10
116.783371
 20
254.675600
 30
0.0
 10
113.783370
 20
254.675600
 30
0.0
  0
LWPOLYLINE
  5
165
100
AcDbEntity
  8
Capa_1
 62
1
100
AcDbPolyline
 90
2
 70
0
 10
116.783371
 20
286.658766
 30
0.0
 10
116.783371
 20
279.667172
 30
0.0
  0
LWPOLYLINE
  5
166
100
AcDbEntity
  8
Capa_1
 62
1
100
AcDbPolyline
 90
2
 70
0
 10
113.783370
 20
264.667191
 30
0.0
 10
116.783371
 20
264.667191
 30
0.0
  0
LWPOLYLINE
  5
167
100
AcDbEntity
  8
Capa_1
 62
1
100
AcDbPolyline
 90
2
 70
0
 10
163.283312
 20
260.667196
 30
0.0
 10
197.783268
 20
260.667196
 30
0.0
  0
LWPOLYLINE
  5
168
100
AcDbEntity
  8
Capa_1
 62
1
100
AcDbPolyline
 90
2
 70
0
 10
172.783300
 20
254.667204
 30
0.0
 10
147.783331
 20
254.667204
 30
0.0
  0
LWPOLYLINE
  5
169
100
AcDbEntity
  8
Capa_1
 62
1
100
AcDbPolyline
 90
2
 70
0
 10
122.783373
 20
256.667201
 30
0.0
 10
157.283318
 20
256.667201
 30
0.0
  0
LWPOLYLINE
  5
16a
100
AcDbEntity
  8
Capa_1
 62
1
100
AcDbPolyline
 90
2
 70
0
 10
141.783342
 20
254.667204
 30
0.0
 10
116.783371
 20
254.667204
 30
0.0
  0
LWPOLYLINE
  5
16b
100
AcDbEntity
  8
Capa_1
 62
1
100
AcDbPolyline
 90
2
 70
0
 10
122.783373
 20
260.667196
 30
0.0
 10
157.283318
 20
260.667196
 30
0.0
  0
LWPOLYLINE
  5
16c
100
AcDbEntity
  8
Capa_1
 62
1
100
AcDbPolyline
 90
2
 70
0
 10
203.783259
 20
258.667199
 30
0.0
 10
178.783293
 20
258.667199
 30
0.0
  0
LWPOLYLINE
  5
16d
100
AcDbEntity
  8
Capa_1
 62
1
100
AcDbPolyline
 90
2
 70
0
 10
172.783300
 20
258.667199
 30
0.0
 10
147.783331
 20
258.667199
 30
0.0
  0
LWPOLYLINE
  5
16e
100
AcDbEntity
  8
Capa_1
 62
1
100
AcDbPolyline
 90
2
 70
0
 10
163.283312
 20
256.667201
 30
0.0
 10
197.783268
 20
256.667201
 30
0.0
  0
LWPOLYLINE
  5
16f
100
AcDbEntity
  8
Capa_1
 62
1
100
AcDbPolyline
 90
2
 70
0
 10
203.783259
 20
254.667204
 30
0.0
 10
178.783293
 20
254.667204
 30
0.0
  0
LWPOLYLINE
  5
170
100
AcDbEntity
  8
Capa_1
 62
1
100
AcDbPolyline
 90
2
 70
0
 10
163.283312
 20
252.667206
 30
0.0
 10
197.783268
 20
252.667206
 30
0.0
  0
LWPOLYLINE
  5
171
100
AcDbEntity
  8
Capa_1
 62
1
100
AcDbPolyline
 90
2
 70
0
 10
203.783259
 20
250.667209
 30
0.0
 10
178.783293
 20
250.667209
 30
0.0
  0
LWPOLYLINE
  5
172
100
AcDbEntity
  8
Capa_1
 62
1
100
AcDbPolyline
 90
2
 70
0
 10
141.783342
 20
258.667199
 30
0.0
 10
116.783371
 20
258.667199
 30
0.0
  0
LWPOLYLINE
  5
173
100
AcDbEntity
  8
Capa_1
 62
1
100
AcDbPolyline
 90
2
 70
0
 10
141.783342
 20
262.667194
 30
0.0
 10
116.783371
 20
262.667194
 30
0.0
  0
LWPOLYLINE
  5
174
100
AcDbEntity
  8
Capa_1
 62
1
100
AcDbPolyline
 90
2
 70
0
 10
172.783300
 20
262.667194
 30
0.0
 10
147.783331
 20
262.667194
 30
0.0
  0
LWPOLYLINE
  5
175
100
AcDbEntity
  8
Capa_1
 62
1
100
AcDbPolyline
 90
2
 70
0
 10
122.783373
 20
252.667206
 30
0.0
 10
157.283318
 20
252.667206
 30
0.0
  0
LWPOLYLINE
  5
176
100
AcDbEntity
  8
Capa_1
 62
1
100
AcDbPolyline
 90
2
 70
0
 10
163.283312
 20
244.667216
 30
0.0
 10
197.783268
 20
244.667216
 30
0.0
  0
LWPOLYLINE
  5
177
100
AcDbEntity
  8
Capa_1
 62
1
100
AcDbPolyline
 90
2
 70
0
 10
203.783259
 20
242.667219
 30
0.0
 10
178.783293
 20
242.667219
 30
0.0
  0
LWPOLYLINE
  5
178
100
AcDbEntity
  8
Capa_1
 62
1
100
AcDbPolyline
 90
2
 70
0
 10
141.783342
 20
250.667209
 30
0.0
 10
116.783371
 20
250.667209
 30
0.0
  0
LWPOLYLINE
  5
179
100
AcDbEntity
  8
Capa_1
 62
1
100
AcDbPolyline
 90
2
 70
0
 10
172.783300
 20
242.667219
 30
0.0
 10
147.783331
 20
242.667219
 30
0.0
  0
LWPOLYLINE
  5
17a
100
AcDbEntity
  8
Capa_1
 62
1
100
AcDbPolyline
 90
2
 70
0
 10
122.783373
 20
244.667216
 30
0.0
 10
157.283318
 20
244.667216
 30
0.0
  0
LWPOLYLINE
  5
17b
100
AcDbEntity
  8
Capa_1
 62
1
100
AcDbPolyline
 90
2
 70
0
 10
141.783342
 20
242.667219
 30
0.0
 10
116.783371
 20
242.667219
 30
0.0
  0
LWPOLYLINE
  5
17c
100
AcDbEntity
  8
Capa_1
 62
1
100
AcDbPolyline
 90
2
 70
0
 10
163.283312
 20
248.667211
 30
0.0
 10
197.783268
 20
248.667211
 30
0.0
  0
LWPOLYLINE
  5
17d
100
AcDbEntity
  8
Capa_1
 62
1
100
AcDbPolyline
 90
2
 70
0
 10
172.783300
 20
246.667214
 30
0.0
 10
147.783331
 20
246.667214
 30
0.0
  0
LWPOLYLINE
  5
17e
100
AcDbEntity
  8
Capa_1
 62
1
100
AcDbPolyline
 90
2
 70
0
 10
163.283312
 20
240.667221
 30
0.0
 10
197.783268
 20
240.667221
 30
0.0
  0
LWPOLYLINE
  5
17f
100
AcDbEntity
  8
Capa_1
 62
1
100
AcDbPolyline
 90
2
 70
0
 10
203.783259
 20
238.667224
 30
0.0
 10
178.783293
 20
238.667224
 30
0.0
  0
LWPOLYLINE
  5
180
100
AcDbEntity
  8
Capa_1
 62
1
100
AcDbPolyline
 90
2
 70
0
 10
172.783300
 20
238.667224
 30
0.0
 10
147.783331
 20
238.667224
 30
0.0
  0
LWPOLYLINE
  5
181
100
AcDbEntity
  8
Capa_1
 62
1
100
AcDbPolyline
 90
2
 70
0
 10
172.783300
 20
250.667209
 30
0.0
 10
147.783331
 20
250.667209
 30
0.0
  0
LWPOLYLINE
  5
182
100
AcDbEntity
  8
Capa_1
 62
1
100
AcDbPolyline
 90
2
 70
0
 10
122.783373
 20
248.667211
 30
0.0
 10
157.283318
 20
248.667211
 30
0.0
  0
LWPOLYLINE
  5
183
100
AcDbEntity
  8
Capa_1
 62
1
100
AcDbPolyline
 90
2
 70
0
 10
141.783342
 20
246.667214
 30
0.0
 10
116.783371
 20
246.667214
 30
0.0
  0
LWPOLYLINE
  5
184
100
AcDbEntity
  8
Capa_1
 62
1
100
AcDbPolyline
 90
2
 70
0
 10
203.783259
 20
246.667214
 30
0.0
 10
178.783293
 20
246.667214
 30
0.0
  0
LWPOLYLINE
  5
185
100
AcDbEntity
  8
Capa_1
 62
1
100
AcDbPolyline
 90
2
 70
0
 10
122.783373
 20
240.667221
 30
0.0
 10
157.283318
 20
240.667221
 30
0.0
  0
LWPOLYLINE
  5
186
100
AcDbEntity
  8
Capa_1
 62
1
100
AcDbPolyline
 90
2
 70
0
 10
141.783342
 20
238.667224
 30
0.0
 10
116.783371
 20
238.667224
 30
0.0
  0
LWPOLYLINE
  5
187
100
AcDbEntity
  8
Capa_1
 62
1
100
AcDbPolyline
 90
2
 70
0
 10
203.783259
 20
234.667229
 30
0.0
 10
178.783293
 20
234.667229
 30
0.0
  0
LWPOLYLINE
  5
188
100
AcDbEntity
  8
Capa_1
 62
1
100
AcDbPolyline
 90
2
 70
0
 10
122.783373
 20
236.667226
 30
0.0
 10
157.283318
 20
236.667226
 30
0.0
  0
LWPOLYLINE
  5
189
100
AcDbEntity
  8
Capa_1
 62
1
100
AcDbPolyline
 90
2
 70
0
 10
122.783373
 20
232.667232
 30
0.0
 10
157.283318
 20
232.667232
 30
0.0
  0
LWPOLYLINE
  5
18a
100
AcDbEntity
  8
Capa_1
 62
1
100
AcDbPolyline
 90
2
 70
0
 10
163.283312
 20
236.667226
 30
0.0
 10
197.783268
 20
236.667226
 30
0.0
  0
LWPOLYLINE
  5
18b
100
AcDbEntity
  8
Capa_1
 62
1
100
AcDbPolyline
 90
2
 70
0
 10
141.783342
 20
230.667234
 30
0.0
 10
116.783371
 20
230.667234
 30
0.0
  0
LWPOLYLINE
  5
18c
100
AcDbEntity
  8
Capa_1
 62
1
100
AcDbPolyline
 90
2
 70
0
 10
163.283312
 20
228.667236
 30
0.0
 10
197.783268
 20
228.667236
 30
0.0
  0
LWPOLYLINE
  5
18d
100
AcDbEntity
  8
Capa_1
 62
1
100
AcDbPolyline
 90
2
 70
0
 10
203.783259
 20
226.667238
 30
0.0
 10
178.783293
 20
226.667238
 30
0.0
  0
LWPOLYLINE
  5
18e
100
AcDbEntity
  8
Capa_1
 62
1
100
AcDbPolyline
 90
2
 70
0
 10
141.783342
 20
234.667229
 30
0.0
 10
116.783371
 20
234.667229
 30
0.0
  0
LWPOLYLINE
  5
18f
100
AcDbEntity
  8
Capa_1
 62
1
100
AcDbPolyline
 90
2
 70
0
 10
163.283312
 20
232.667232
 30
0.0
 10
197.783268
 20
232.667232
 30
0.0
  0
LWPOLYLINE
  5
190
100
AcDbEntity
  8
Capa_1
 62
1
100
AcDbPolyline
 90
2
 70
0
 10
172.783300
 20
230.667234
 30
0.0
 10
147.783331
 20
230.667234
 30
0.0
  0
LWPOLYLINE
  5
191
100
AcDbEntity
  8
Capa_1
 62
1
100
AcDbPolyline
 90
2
 70
0
 10
172.783300
 20
234.667229
 30
0.0
 10
147.783331
 20
234.667229
 30
0.0
  0
LWPOLYLINE
  5
192
100
AcDbEntity
  8
Capa_1
 62
1
100
AcDbPolyline
 90
2
 70
0
 10
203.783259
 20
230.667234
 30
0.0
 10
178.783293
 20
230.667234
 30
0.0
  0
LWPOLYLINE
  5
193
100
AcDbEntity
  8
Capa_1
 62
1
100
AcDbPolyline
 90
2
 70
0
 10
172.783300
 20
226.667238
 30
0.0
 10
147.783331
 20
226.667238
 30
0.0
  0
LWPOLYLINE
  5
194
100
AcDbEntity
  8
Capa_1
 62
1
100
AcDbPolyline
 90
2
 70
0
 10
122.783373
 20
228.667236
 30
0.0
 10
157.283318
 20
228.667236
 30
0.0
  0
LWPOLYLINE
  5
195
100
AcDbEntity
  8
Capa_1
 62
1
100
AcDbPolyline
 90
2
 70
0
 10
141.783342
 20
226.667238
 30
0.0
 10
116.783371
 20
226.667238
 30
0.0
  0
LWPOLYLINE
  5
196
100
AcDbEntity
  8
Capa_1
 62
1
100
AcDbPolyline
 90
2
 70
0
 10
172.783300
 20
222.667243
 30
0.0
 10
147.783331
 20
222.667243
 30
0.0
  0
LWPOLYLINE
  5
197
100
AcDbEntity
  8
Capa_1
 62
1
100
AcDbPolyline
 90
2
 70
0
 10
172.783300
 20
218.667248
 30
0.0
 10
147.783331
 20
218.667248
 30
0.0
  0
LWPOLYLINE
  5
198
100
AcDbEntity
  8
Capa_1
 62
1
100
AcDbPolyline
 90
2
 70
0
 10
203.783259
 20
222.667243
 30
0.0
 10
178.783293
 20
222.667243
 30
0.0
  0
LWPOLYLINE
  5
199
100
AcDbEntity
  8
Capa_1
 62
1
100
AcDbPolyline
 90
2
 70
0
 10
122.783373
 20
224.667242
 30
0.0
 10
157.283318
 20
224.667242
 30
0.0
  0
LWPOLYLINE
  5
19a
100
AcDbEntity
  8
Capa_1
 62
1
100
AcDbPolyline
 90
2
 70
0
 10
203.783259
 20
218.667248
 30
0.0
 10
178.783293
 20
218.667248
 30
0.0
  0
LWPOLYLINE
  5
19b
100
AcDbEntity
  8
Capa_1
 62
1
100
AcDbPolyline
 90
2
 70
0
 10
122.783373
 20
220.667247
 30
0.0
 10
157.283318
 20
220.667247
 30
0.0
  0
LWPOLYLINE
  5
19c
100
AcDbEntity
  8
Capa_1
 62
1
100
AcDbPolyline
 90
2
 70
0
 10
141.783342
 20
222.667243
 30
0.0
 10
116.783371
 20
222.667243
 30
0.0
  0
LWPOLYLINE
  5
19d
100
AcDbEntity
  8
Capa_1
 62
1
100
AcDbPolyline
 90
2
 70
0
 10
141.783342
 20
218.667248
 30
0.0
 10
116.783371
 20
218.667248
 30
0.0
  0
LWPOLYLINE
  5
19e
100
AcDbEntity
  8
Capa_1
 62
1
100
AcDbPolyline
 90
2
 70
0
 10
203.783259
 20
214.667253
 30
0.0
 10
178.783293
 20
214.667253
 30
0.0
  0
LWPOLYLINE
  5
19f
100
AcDbEntity
  8
Capa_1
 62
1
100
AcDbPolyline
 90
2
 70
0
 10
163.283312
 20
216.667252
 30
0.0
 10
197.783268
 20
216.667252
 30
0.0
  0
LWPOLYLINE
  5
1a0
100
AcDbEntity
  8
Capa_1
 62
1
100
AcDbPolyline
 90
2
 70
0
 10
172.783300
 20
214.667253
 30
0.0
 10
147.783331
 20
214.667253
 30
0.0
  0
LWPOLYLINE
  5
1a1
100
AcDbEntity
  8
Capa_1
 62
1
100
AcDbPolyline
 90
2
 70
0
 10
141.783342
 20
214.667253
 30
0.0
 10
116.783371
 20
214.667253
 30
0.0
  0
LWPOLYLINE
  5
1a2
100
AcDbEntity
  8
Capa_1
 62
1
100
AcDbPolyline
 90
2
 70
0
 10
163.283312
 20
220.667247
 30
0.0
 10
197.783268
 20
220.667247
 30
0.0
  0
LWPOLYLINE
  5
1a3
100
AcDbEntity
  8
Capa_1
 62
1
100
AcDbPolyline
 90
2
 70
0
 10
122.783373
 20
216.667252
 30
0.0
 10
157.283318
 20
216.667252
 30
0.0
  0
LWPOLYLINE
  5
1a4
100
AcDbEntity
  8
Capa_1
 62
1
100
AcDbPolyline
 90
2
 70
0
 10
163.283312
 20
224.667242
 30
0.0
 10
197.783268
 20
224.667242
 30
0.0
  0
LWPOLYLINE
  5
1a5
100
AcDbEntity
  8
Capa_1
 62
1
100
AcDbPolyline
 90
2
 70
0
 10
141.783342
 20
206.667263
 30
0.0
 10
116.783371
 20
206.667263
 30
0.0
  0
LWPOLYLINE
  5
1a6
100
AcDbEntity
  8
Capa_1
 62
1
100
AcDbPolyline
 90
2
 70
0
 10
141.783342
 20
202.667268
 30
0.0
 10
116.783371
 20
202.667268
 30
0.0
  0
LWPOLYLINE
  5
1a7
100
AcDbEntity
  8
Capa_1
 62
1
100
AcDbPolyline
 90
2
 70
0
 10
141.783342
 20
210.667258
 30
0.0
 10
116.783371
 20
210.667258
 30
0.0
  0
LWPOLYLINE
  5
1a8
100
AcDbEntity
  8
Capa_1
 62
1
100
AcDbPolyline
 90
2
 70
0
 10
163.283312
 20
200.667272
 30
0.0
 10
197.783268
 20
200.667272
 30
0.0
  0
LWPOLYLINE
  5
1a9
100
AcDbEntity
  8
Capa_1
 62
1
100
AcDbPolyline
 90
2
 70
0
 10
163.283312
 20
212.667257
 30
0.0
 10
197.783268
 20
212.667257
 30
0.0
  0
LWPOLYLINE
  5
1aa
100
AcDbEntity
  8
Capa_1
 62
1
100
AcDbPolyline
 90
2
 70
0
 10
172.783300
 20
210.667258
 30
0.0
 10
147.783331
 20
210.667258
 30
0.0
  0
LWPOLYLINE
  5
1ab
100
AcDbEntity
  8
Capa_1
 62
1
100
AcDbPolyline
 90
2
 70
0
 10
203.783259
 20
206.667263
 30
0.0
 10
178.783293
 20
206.667263
 30
0.0
  0
LWPOLYLINE
  5
1ac
100
AcDbEntity
  8
Capa_1
 62
1
100
AcDbPolyline
 90
2
 70
0
 10
203.783259
 20
210.667258
 30
0.0
 10
178.783293
 20
210.667258
 30
0.0
  0
LWPOLYLINE
  5
1ad
100
AcDbEntity
  8
Capa_1
 62
1
100
AcDbPolyline
 90
2
 70
0
 10
172.783300
 20
206.667263
 30
0.0
 10
147.783331
 20
206.667263
 30
0.0
  0
LWPOLYLINE
  5
1ae
100
AcDbEntity
  8
Capa_1
 62
1
100
AcDbPolyline
 90
2
 70
0
 10
163.283312
 20
204.667267
 30
0.0
 10
197.783268
 20
204.667267
 30
0.0
  0
LWPOLYLINE
  5
1af
100
AcDbEntity
  8
Capa_1
 62
1
100
AcDbPolyline
 90
2
 70
0
 10
172.783300
 20
202.667268
 30
0.0
 10
147.783331
 20
202.667268
 30
0.0
  0
LWPOLYLINE
  5
1b0
100
AcDbEntity
  8
Capa_1
 62
1
100
AcDbPolyline
 90
2
 70
0
 10
122.783373
 20
212.667257
 30
0.0
 10
157.283318
 20
212.667257
 30
0.0
  0
LWPOLYLINE
  5
1b1
100
AcDbEntity
  8
Capa_1
 62
1
100
AcDbPolyline
 90
2
 70
0
 10
163.283312
 20
208.667262
 30
0.0
 10
197.783268
 20
208.667262
 30
0.0
  0
LWPOLYLINE
  5
1b2
100
AcDbEntity
  8
Capa_1
 62
1
100
AcDbPolyline
 90
2
 70
0
 10
122.783373
 20
208.667262
 30
0.0
 10
157.283318
 20
208.667262
 30
0.0
  0
LWPOLYLINE
  5
1b3
100
AcDbEntity
  8
Capa_1
 62
1
100
AcDbPolyline
 90
2
 70
0
 10
203.783259
 20
202.667268
 30
0.0
 10
178.783293
 20
202.667268
 30
0.0
  0
LWPOLYLINE
  5
1b4
100
AcDbEntity
  8
Capa_1
 62
1
100
AcDbPolyline
 90
2
 70
0
 10
122.783373
 20
204.667267
 30
0.0
 10
157.283318
 20
204.667267
 30
0.0
  0
LWPOLYLINE
  5
1b5
100
AcDbEntity
  8
Capa_1
 62
1
100
AcDbPolyline
 90
2
 70
0
 10
163.283312
 20
196.667277
 30
0.0
 10
197.783268
 20
196.667277
 30
0.0
  0
LWPOLYLINE
  5
1b6
100
AcDbEntity
  8
Capa_1
 62
1
100
AcDbPolyline
 90
2
 70
0
 10
141.783342
 20
156.667328
 30
0.0
 10
116.783371
 20
156.667328
 30
0.0
  0
LWPOLYLINE
  5
1b7
100
AcDbEntity
  8
Capa_1
 62
1
100
AcDbPolyline
 90
2
 70
0
 10
203.783259
 20
104.667392
 30
0.0
 10
178.783293
 20
104.667392
 30
0.0
  0
LWPOLYLINE
  5
1b8
100
AcDbEntity
  8
Capa_1
 62
1
100
AcDbPolyline
 90
2
 70
0
 10
203.783259
 20
108.667387
 30
0.0
 10
178.783293
 20
108.667387
 30
0.0
  0
LWPOLYLINE
  5
1b9
100
AcDbEntity
  8
Capa_1
 62
1
100
AcDbPolyline
 90
2
 70
0
 10
203.783259
 20
156.667328
 30
0.0
 10
178.783293
 20
156.667328
 30
0.0
  0
LWPOLYLINE
  5
1ba
100
AcDbEntity
  8
Capa_1
 62
1
100
AcDbPolyline
 90
2
 70
0
 10
122.783373
 20
98.667401
 30
0.0
 10
157.283318
 20
98.667401
 30
0.0
  0
LWPOLYLINE
  5
1bb
100
AcDbEntity
  8
Capa_1
 62
1
100
AcDbPolyline
 90
2
 70
0
 10
122.783373
 20
196.667277
 30
0.0
 10
157.283318
 20
196.667277
 30
0.0
  0
LWPOLYLINE
  5
1bc
100
AcDbEntity
  8
Capa_1
 62
1
100
AcDbPolyline
 90
2
 70
0
 10
203.783259
 20
116.667377
 30
0.0
 10
178.783293
 20
116.667377
 30
0.0
  0
LWPOLYLINE
  5
1bd
100
AcDbEntity
  8
Capa_1
 62
1
100
AcDbPolyline
 90
2
 70
0
 10
172.783300
 20
198.667274
 30
0.0
 10
147.783331
 20
198.667274
 30
0.0
  0
LWPOLYLINE
  5
1be
100
AcDbEntity
  8
Capa_1
 62
1
100
AcDbPolyline
 90
2
 70
0
 10
203.783259
 20
198.667274
 30
0.0
 10
178.783293
 20
198.667274
 30
0.0
  0
LWPOLYLINE
  5
1bf
100
AcDbEntity
  8
Capa_1
 62
1
100
AcDbPolyline
 90
2
 70
0
 10
122.783373
 20
200.667272
 30
0.0
 10
157.283318
 20
200.667272
 30
0.0
  0
LWPOLYLINE
  5
1c0
100
AcDbEntity
  8
Capa_1
 62
1
100
AcDbPolyline
 90
2
 70
0
 10
172.783300
 20
194.667279
 30
0.0
 10
147.783331
 20
194.667279
 30
0.0
  0
LWPOLYLINE
  5
1c1
100
AcDbEntity
  8
Capa_1
 62
1
100
AcDbPolyline
 90
2
 70
0
 10
141.783342
 20
194.667279
 30
0.0
 10
116.783371
 20
194.667279
 30
0.0
  0
LWPOLYLINE
  5
1c2
100
AcDbEntity
  8
Capa_1
 62
1
100
AcDbPolyline
 90
2
 70
0
 10
203.783259
 20
194.667279
 30
0.0
 10
178.783293
 20
194.667279
 30
0.0
  0
LWPOLYLINE
  5
1c3
100
AcDbEntity
  8
Capa_1
 62
1
100
AcDbPolyline
 90
2
 70
0
 10
122.783373
 20
126.667365
 30
0.0
 10
157.283318
 20
126.667365
 30
0.0
  0
LWPOLYLINE
  5
1c4
100
AcDbEntity
  8
Capa_1
 62
1
100
AcDbPolyline
 90
2
 70
0
 10
141.783342
 20
198.667274
 30
0.0
 10
116.783371
 20
198.667274
 30
0.0
  0
LWPOLYLINE
  5
1c5
100
AcDbEntity
  8
Capa_1
 62
1
100
AcDbPolyline
 90
2
 70
0
 10
172.783300
 20
116.667377
 30
0.0
 10
147.783331
 20
116.667377
 30
0.0
  0
LWPOLYLINE
  5
1c6
100
AcDbEntity
  8
Capa_1
 62
1
100
AcDbPolyline
 90
2
 70
0
 10
141.783342
 20
124.667367
 30
0.0
 10
116.783371
 20
124.667367
 30
0.0
  0
LWPOLYLINE
  5
1c7
100
AcDbEntity
  8
Capa_1
 62
1
100
AcDbPolyline
 90
2
 70
0
 10
203.783259
 20
128.667362
 30
0.0
 10
178.783293
 20
128.667362
 30
0.0
  0
LWPOLYLINE
  5
1c8
100
AcDbEntity
  8
Capa_1
 62
1
100
AcDbPolyline
 90
2
 70
0
 10
141.783342
 20
144.667341
 30
0.0
 10
116.783371
 20
144.667341
 30
0.0
  0
LWPOLYLINE
  5
1c9
100
AcDbEntity
  8
Capa_1
 62
1
100
AcDbPolyline
 90
2
 70
0
 10
172.783300
 20
108.667387
 30
0.0
 10
147.783331
 20
108.667387
 30
0.0
  0
LWPOLYLINE
  5
1ca
100
AcDbEntity
  8
Capa_1
 62
1
100
AcDbPolyline
 90
2
 70
0
 10
141.783342
 20
100.667397
 30
0.0
 10
116.783371
 20
100.667397
 30
0.0
  0
LWPOLYLINE
  5
1cb
100
AcDbEntity
  8
Capa_1
 62
1
100
AcDbPolyline
 90
2
 70
0
 10
141.783342
 20
148.667339
 30
0.0
 10
116.783371
 20
148.667339
 30
0.0
  0
LWPOLYLINE
  5
1cc
100
AcDbEntity
  8
Capa_1
 62
1
100
AcDbPolyline
 90
2
 70
0
 10
141.783342
 20
96.667402
 30
0.0
 10
116.783371
 20
96.667402
 30
0.0
  0
LWPOLYLINE
  5
1cd
100
AcDbEntity
  8
Capa_1
 62
1
100
AcDbPolyline
 90
2
 70
0
 10
203.783259
 20
140.667346
 30
0.0
 10
178.783293
 20
140.667346
 30
0.0
  0
LWPOLYLINE
  5
1ce
100
AcDbEntity
  8
Capa_1
 62
1
100
AcDbPolyline
 90
2
 70
0
 10
141.783342
 20
116.667377
 30
0.0
 10
116.783371
 20
116.667377
 30
0.0
  0
LWPOLYLINE
  5
1cf
100
AcDbEntity
  8
Capa_1
 62
1
100
AcDbPolyline
 90
2
 70
0
 10
122.783373
 20
102.667396
 30
0.0
 10
157.283318
 20
102.667396
 30
0.0
  0
LWPOLYLINE
  5
1d0
100
AcDbEntity
  8
Capa_1
 62
1
100
AcDbPolyline
 90
2
 70
0
 10
141.783342
 20
160.667323
 30
0.0
 10
116.783371
 20
160.667323
 30
0.0
  0
LWPOLYLINE
  5
1d1
100
AcDbEntity
  8
Capa_1
 62
1
100
AcDbPolyline
 90
2
 70
0
 10
203.783259
 20
152.667334
 30
0.0
 10
178.783293
 20
152.667334
 30
0.0
  0
LWPOLYLINE
  5
1d2
100
AcDbEntity
  8
Capa_1
 62
1
100
AcDbPolyline
 90
2
 70
0
 10
203.783259
 20
124.667367
 30
0.0
 10
178.783293
 20
124.667367
 30
0.0
  0
LWPOLYLINE
  5
1d3
100
AcDbEntity
  8
Capa_1
 62
1
100
AcDbPolyline
 90
2
 70
0
 10
203.783259
 20
100.667397
 30
0.0
 10
178.783293
 20
100.667397
 30
0.0
  0
LWPOLYLINE
  5
1d4
100
AcDbEntity
  8
Capa_1
 62
1
100
AcDbPolyline
 90
2
 70
0
 10
172.783300
 20
104.667392
 30
0.0
 10
147.783331
 20
104.667392
 30
0.0
  0
LWPOLYLINE
  5
1d5
100
AcDbEntity
  8
Capa_1
 62
1
100
AcDbPolyline
 90
2
 70
0
 10
122.783373
 20
122.667370
 30
0.0
 10
157.283318
 20
122.667370
 30
0.0
  0
LWPOLYLINE
  5
1d6
100
AcDbEntity
  8
Capa_1
 62
1
100
AcDbPolyline
 90
2
 70
0
 10
122.783373
 20
110.667386
 30
0.0
 10
157.283318
 20
110.667386
 30
0.0
  0
LWPOLYLINE
  5
1d7
100
AcDbEntity
  8
Capa_1
 62
1
100
AcDbPolyline
 90
2
 70
0
 10
141.783342
 20
108.667387
 30
0.0
 10
116.783371
 20
108.667387
 30
0.0
  0
LWPOLYLINE
  5
1d8
100
AcDbEntity
  8
Capa_1
 62
1
100
AcDbPolyline
 90
2
 70
0
 10
122.783373
 20
154.667330
 30
0.0
 10
157.283318
 20
154.667330
 30
0.0
  0
LWPOLYLINE
  5
1d9
100
AcDbEntity
  8
Capa_1
 62
1
100
AcDbPolyline
 90
2
 70
0
 10
141.783342
 20
120.667372
 30
0.0
 10
116.783371
 20
120.667372
 30
0.0
  0
LWPOLYLINE
  5
1da
100
AcDbEntity
  8
Capa_1
 62
1
100
AcDbPolyline
 90
2
 70
0
 10
122.783373
 20
150.667335
 30
0.0
 10
157.283318
 20
150.667335
 30
0.0
  0
LWPOLYLINE
  5
1db
100
AcDbEntity
  8
Capa_1
 62
1
100
AcDbPolyline
 90
2
 70
0
 10
203.783259
 20
160.667323
 30
0.0
 10
178.783293
 20
160.667323
 30
0.0
  0
LWPOLYLINE
  5
1dc
100
AcDbEntity
  8
Capa_1
 62
1
100
AcDbPolyline
 90
2
 70
0
 10
203.783259
 20
144.667341
 30
0.0
 10
178.783293
 20
144.667341
 30
0.0
  0
LWPOLYLINE
  5
1dd
100
AcDbEntity
  8
Capa_1
 62
1
100
AcDbPolyline
 90
2
 70
0
 10
141.783342
 20
112.667382
 30
0.0
 10
116.783371
 20
112.667382
 30
0.0
  0
LWPOLYLINE
  5
1de
100
AcDbEntity
  8
Capa_1
 62
1
100
AcDbPolyline
 90
2
 70
0
 10
141.783342
 20
92.667407
 30
0.0
 10
116.783371
 20
92.667407
 30
0.0
  0
LWPOLYLINE
  5
1df
100
AcDbEntity
  8
Capa_1
 62
1
100
AcDbPolyline
 90
2
 70
0
 10
122.783373
 20
118.667376
 30
0.0
 10
157.283318
 20
118.667376
 30
0.0
  0
LWPOLYLINE
  5
1e0
100
AcDbEntity
  8
Capa_1
 62
1
100
AcDbPolyline
 90
2
 70
0
 10
141.783342
 20
140.667346
 30
0.0
 10
116.783371
 20
140.667346
 30
0.0
  0
LWPOLYLINE
  5
1e1
100
AcDbEntity
  8
Capa_1
 62
1
100
AcDbPolyline
 90
1
 70
1
 10
197.783268
 20
162.667319
 30
0.0
  0
LWPOLYLINE
  5
1e2
100
AcDbEntity
  8
Capa_1
 62
1
100
AcDbPolyline
 90
2
 70
0
 10
122.783373
 20
134.667355
 30
0.0
 10
157.283318
 20
134.667355
 30
0.0
  0
LWPOLYLINE
  5
1e3
100
AcDbEntity
  8
Capa_1
 62
1
100
AcDbPolyline
 90
2
 70
0
 10
203.783259
 20
132.667356
 30
0.0
 10
178.783293
 20
132.667356
 30
0.0
  0
LWPOLYLINE
  5
1e4
100
AcDbEntity
  8
Capa_1
 62
1
100
AcDbPolyline
 90
2
 70
0
 10
203.783259
 20
148.667339
 30
0.0
 10
178.783293
 20
148.667339
 30
0.0
  0
LWPOLYLINE
  5
1e5
100
AcDbEntity
  8
Capa_1
 62
1
100
AcDbPolyline
 90
2
 70
0
 10
122.783373
 20
138.667350
 30
0.0
 10
157.283318
 20
138.667350
 30
0.0
  0
LWPOLYLINE
  5
1e6
100
AcDbEntity
  8
Capa_1
 62
1
100
AcDbPolyline
 90
2
 70
0
 10
141.783342
 20
128.667362
 30
0.0
 10
116.783371
 20
128.667362
 30
0.0
  0
LWPOLYLINE
  5
1e7
100
AcDbEntity
  8
Capa_1
 62
1
100
AcDbPolyline
 90
2
 70
0
 10
163.283312
 20
158.667325
 30
0.0
 10
197.783268
 20
158.667325
 30
0.0
  0
LWPOLYLINE
  5
1e8
100
AcDbEntity
  8
Capa_1
 62
1
100
AcDbPolyline
 90
2
 70
0
 10
122.783373
 20
94.667406
 30
0.0
 10
157.283318
 20
94.667406
 30
0.0
  0
LWPOLYLINE
  5
1e9
100
AcDbEntity
  8
Capa_1
 62
1
100
AcDbPolyline
 90
2
 70
0
 10
141.783342
 20
104.667392
 30
0.0
 10
116.783371
 20
104.667392
 30
0.0
  0
LWPOLYLINE
  5
1ea
100
AcDbEntity
  8
Capa_1
 62
1
100
AcDbPolyline
 90
2
 70
0
 10
203.783259
 20
136.667351
 30
0.0
 10
178.783293
 20
136.667351
 30
0.0
  0
LWPOLYLINE
  5
1eb
100
AcDbEntity
  8
Capa_1
 62
1
100
AcDbPolyline
 90
2
 70
0
 10
163.283312
 20
146.667340
 30
0.0
 10
197.783268
 20
146.667340
 30
0.0
  0
LWPOLYLINE
  5
1ec
100
AcDbEntity
  8
Capa_1
 62
1
100
AcDbPolyline
 90
2
 70
0
 10
122.783373
 20
114.667381
 30
0.0
 10
157.283318
 20
114.667381
 30
0.0
  0
LWPOLYLINE
  5
1ed
100
AcDbEntity
  8
Capa_1
 62
1
100
AcDbPolyline
 90
2
 70
0
 10
122.783373
 20
106.667391
 30
0.0
 10
157.283318
 20
106.667391
 30
0.0
  0
LWPOLYLINE
  5
1ee
100
AcDbEntity
  8
Capa_1
 62
1
100
AcDbPolyline
 90
2
 70
0
 10
122.783373
 20
142.667345
 30
0.0
 10
157.283318
 20
142.667345
 30
0.0
  0
LWPOLYLINE
  5
1ef
100
AcDbEntity
  8
Capa_1
 62
1
100
AcDbPolyline
 90
2
 70
0
 10
141.783342
 20
136.667351
 30
0.0
 10
116.783371
 20
136.667351
 30
0.0
  0
LWPOLYLINE
  5
1f0
100
AcDbEntity
  8
Capa_1
 62
1
100
AcDbPolyline
 90
2
 70
0
 10
122.783373
 20
130.667360
 30
0.0
 10
157.283318
 20
130.667360
 30
0.0
  0
LWPOLYLINE
  5
1f1
100
AcDbEntity
  8
Capa_1
 62
1
100
AcDbPolyline
 90
2
 70
0
 10
163.283312
 20
138.667350
 30
0.0
 10
197.783268
 20
138.667350
 30
0.0
  0
LWPOLYLINE
  5
1f2
100
AcDbEntity
  8
Capa_1
 62
1
100
AcDbPolyline
 90
2
 70
0
 10
163.283312
 20
154.667330
 30
0.0
 10
197.783268
 20
154.667330
 30
0.0
  0
LWPOLYLINE
  5
1f3
100
AcDbEntity
  8
Capa_1
 62
1
100
AcDbPolyline
 90
2
 70
0
 10
163.283312
 20
150.667335
 30
0.0
 10
197.783268
 20
150.667335
 30
0.0
  0
LWPOLYLINE
  5
1f4
100
AcDbEntity
  8
Capa_1
 62
1
100
AcDbPolyline
 90
2
 70
0
 10
203.783259
 20
162.667319
 30
0.0
 10
203.783259
 20
160.667323
 30
0.0
  0
SPLINE
  5
1f5
100
AcDbEntity
  8
Capa_1
 62
1
100
AcDbSpline
 70
8
 71
3
 72
8
 73
4
 74
0
 40
0
 40
0
 40
0
 40
0
 40
1
 40
1
 40
1
 40
1
 10
9.565527
 20
70.047550
 30
0.0
 10
9.565522
 20
54.583577
 30
0.0
 10
22.101544
 20
42.047546
 30
0.0
 10
37.565517
 20
42.047540
 30
0.0
  0
LWPOLYLINE
  5
1f6
100
AcDbEntity
  8
Capa_1
 62
1
100
AcDbPolyline
 90
10
 70
0
 10
9.565527
 20
125.047550
 30
0.0
 10
9.565527
 20
115.055950
 30
0.0
 10
12.565527
 20
115.055950
 30
0.0
 10
12.565527
 20
100.055960
 30
0.0
 10
9.565527
 20
100.055960
 30
0.0
 10
9.565527
 20
90.064340
 30
0.0
 10
12.565527
 20
90.064340
 30
0.0
 10
12.565527
 20
75.064340
 30
0.0
 10
9.565527
 20
75.064340
 30
0.0
 10
9.565527
 20
70.047550
 30
0.0
  0
SPLINE
  5
1f7
100
AcDbEntity
  8
Capa_1
 62
1
100
AcDbSpline
 70
8
 71
3
 72
8
 73
4
 74
0
 40
0
 40
0
 40
0
 40
0
 40
1
 40
1
 40
1
 40
1
 10
67.565517
 20
42.047540
 30
0.0
 10
74.991581
 20
42.047539
 30
0.0
 10
82.113493
 20
44.997531
 30
0.0
 10
87.364513
 20
50.248552
 30
0.0
  0
SPLINE
  5
1f8
100
AcDbEntity
  8
Capa_1
 62
1
100
AcDbSpline
 70
8
 71
3
 72
8
 73
4
 74
0
 40
0
 40
0
 40
0
 40
0
 40
1
 40
1
 40
1
 40
1
 10
87.364513
 20
50.248552
 30
0.0
 10
92.615533
 20
55.499573
 30
0.0
 10
95.565524
 20
62.621486
 30
0.0
 10
95.565521
 20
70.047550
 30
0.0
  0
LWPOLYLINE
  5
1f9
100
AcDbEntity
  8
Capa_1
 62
1
100
AcDbPolyline
 90
8
 70
0
 10
37.565517
 20
42.047540
 30
0.0
 10
37.565517
 20
45.047550
 30
0.0
 10
47.565517
 20
45.047550
 30
0.0
 10
47.565517
 20
42.047540
 30
0.0
 10
57.565517
 20
42.047540
 30
0.0
 10
57.565517
 20
45.047550
 30
0.0
 10
67.565517
 20
45.047550
 30
0.0
 10
67.565517
 20
42.047540
 30
0.0
  0
LWPOLYLINE
  5
1fa
100
AcDbEntity
  8
Capa_1
 62
1
100
AcDbPolyline
 90
23
 70
0
 10
95.565521
 20
70.047550
 30
0.0
 10
95.565521
 20
75.064340
 30
0.0
 10
92.565521
 20
75.064340
 30
0.0
 10
92.565521
 20
90.064340
 30
0.0
 10
95.565521
 20
90.064340
 30
0.0
 10
95.565521
 20
100.055960
 30
0.0
 10
92.565521
 20
100.055960
 30
0.0
 10
92.565521
 20
115.055950
 30
0.0
 10
95.565521
 20
115.055950
 30
0.0
 10
95.565521
 20
125.047550
 30
0.0
 10
84.351777
 20
125.047550
 30
0.0
 10
84.351777
 20
122.047550
 30
0.0
 10
69.351777
 20
122.047550
 30
0.0
 10
69.351777
 20
125.047550
 30
0.0
 10
58.138027
 20
125.047550
 30
0.0
 10
58.138027
 20
122.047550
 30
0.0
 10
43.138027
 20
122.047550
 30
0.0
 10
43.138027
 20
125.047550
 30
0.0
 10
31.924287
 20
125.047550
 30
0.0
 10
31.924287
 20
122.047550
 30
0.0
 10
16.924287
 20
122.047550
 30
0.0
 10
16.924287
 20
125.047550
 30
0.0
 10
9.565527
 20
125.047550
 30
0.0
  0
LWPOLYLINE
  5
1fb
100
AcDbEntity
  8
Capa_1
 62
1
100
AcDbPolyline
 90
8
 70
1
 10
10.459319
 20
209.703627
 30
0.0
 10
10.459319
 20
209.653527
 30
0.0
 10
13.434331
 20
209.653527
 30
0.0
 10
13.434331
 20
194.703530
 30
0.0
 10
10.459319
 20
194.703530
 30
0.0
 10
10.459319
 20
194.653430
 30
0.0
 10
13.484457
 20
194.653430
 30
0.0
 10
13.484457
 20
209.703667
 30
0.0
  0
LWPOLYLINE
  5
1fc
100
AcDbEntity
  8
Capa_1
 62
1
100
AcDbPolyline
 90
8
 70
1
 10
10.459319
 20
183.453550
 30
0.0
 10
10.459319
 20
183.403950
 30
0.0
 10
13.434331
 20
183.403950
 30
0.0
 10
13.434331
 20
168.453960
 30
0.0
 10
10.459319
 20
168.453960
 30
0.0
 10
10.459319
 20
168.403860
 30
0.0
 10
13.484457
 20
168.403860
 30
0.0
 10
13.484457
 20
183.453580
 30
0.0
  0
LWPOLYLINE
  5
1fd
100
AcDbEntity
  8
Capa_1
 62
1
100
AcDbPolyline
 90
8
 70
1
 10
10.459319
 20
157.202960
 30
0.0
 10
10.459319
 20
157.152860
 30
0.0
 10
13.434331
 20
157.152860
 30
0.0
 10
13.434331
 20
142.203900
 30
0.0
 10
10.459319
 20
142.203900
 30
0.0
 10
10.459319
 20
142.153800
 30
0.0
 10
13.484457
 20
142.153800
 30
0.0
 10
13.484457
 20
157.203010
 30
0.0
  0
LWPOLYLINE
  5
1fe
100
AcDbEntity
  8
Capa_1
 62
1
100
AcDbPolyline
 90
8
 70
1
 10
93.434096
 20
209.703627
 30
0.0
 10
93.434096
 20
194.653390
 30
0.0
 10
96.459236
 20
194.653390
 30
0.0
 10
96.459236
 20
194.703490
 30
0.0
 10
93.484226
 20
194.703490
 30
0.0
 10
93.484226
 20
209.653487
 30
0.0
 10
96.459236
 20
209.653487
 30
0.0
 10
96.459236
 20
209.703587
 30
0.0
  0
LWPOLYLINE
  5
1ff
100
AcDbEntity
  8
Capa_1
 62
1
100
AcDbPolyline
 90
4
 70
1
 10
93.434096
 20
183.428750
 30
0.0
 10
93.434096
 20
168.428630
 30
0.0
 10
93.484196
 20
168.428630
 30
0.0
 10
93.484196
 20
183.428750
 30
0.0
  0
LWPOLYLINE
  5
200
100
AcDbEntity
  8
Capa_1
 62
1
100
AcDbPolyline
 90
4
 70
1
 10
93.459416
 20
183.453550
 30
0.0
 10
93.459416
 20
183.403950
 30
0.0
 10
96.459236
 20
183.403950
 30
0.0
 10
96.459236
 20
183.453550
 30
0.0
  0
LWPOLYLINE
  5
201
100
AcDbEntity
  8
Capa_1
 62
1
100
AcDbPolyline
 90
4
 70
1
 10
93.459416
 20
168.453950
 30
0.0
 10
93.459416
 20
168.403850
 30
0.0
 10
96.459236
 20
168.403850
 30
0.0
 10
96.459236
 20
168.453950
 30
0.0
  0
LWPOLYLINE
  5
202
100
AcDbEntity
  8
Capa_1
 62
1
100
AcDbPolyline
 90
8
 70
1
 10
93.434096
 20
157.202960
 30
0.0
 10
93.434096
 20
142.153750
 30
0.0
 10
96.459236
 20
142.153750
 30
0.0
 10
96.459236
 20
142.203850
 30
0.0
 10
93.484226
 20
142.203850
 30
0.0
 10
93.484226
 20
157.152810
 30
0.0
 10
96.459236
 20
157.152810
 30
0.0
 10
96.459236
 20
157.202910
 30
0.0
  0
LWPOLYLINE
  5
203
100
AcDbEntity
  8
Capa_1
 62
1
100
AcDbPolyline
 90
4
 70
1
 10
30.459131
 20
290.953965
 30
0.0
 10
30.459131
 20
290.903835
 30
0.0
 10
76.459426
 20
290.903835
 30
0.0
 10
76.459426
 20
290.953965
 30
0.0
  0
LWPOLYLINE
  5
204
100
AcDbEntity
  8
Capa_1
 62
1
100
AcDbPolyline
 90
4
 70
1
 10
96.434436
 20
270.928827
 30
0.0
 10
96.434436
 20
220.928787
 30
0.0
 10
96.484536
 20
220.928787
 30
0.0
 10
96.484536
 20
270.928827
 30
0.0
  0
LWPOLYLINE
  5
205
100
AcDbEntity
  8
Capa_1
 62
1
100
AcDbPolyline
 90
4
 70
1
 10
10.433997
 20
270.928827
 30
0.0
 10
10.433997
 20
220.928787
 30
0.0
 10
10.484127
 20
220.928787
 30
0.0
 10
10.484127
 20
270.928827
 30
0.0
  0
SPLINE
  5
206
100
AcDbEntity
  8
Capa_1
 62
1
100
AcDbSpline
 70
8
 71
3
 72
8
 73
4
 74
0
 40
0
 40
0
 40
0
 40
0
 40
1
 40
1
 40
1
 40
1
 10
76.459426
 20
290.903839
 30
0.0
 10
87.491606
 20
290.903838
 30
0.0
 10
96.434436
 20
281.961017
 30
0.0
 10
96.434436
 20
270.928827
 30
0.0
  0
LWPOLYLINE
  5
207
100
AcDbEntity
  8
Capa_1
 62
1
100
AcDbPolyline
 90
2
 70
0
 10
76.459426
 20
290.953449
 30
0.0
 10
76.459426
 20
290.903839
 30
0.0
  0
SPLINE
  5
208
100
AcDbEntity
  8
Capa_1
 62
1
100
AcDbSpline
 70
8
 71
3
 72
8
 73
4
 74
0
 40
0
 40
0
 40
0
 40
0
 40
1
 40
1
 40
1
 40
1
 10
96.484036
 20
270.928827
 30
0.0
 10
96.484036
 20
281.988037
 30
0.0
 10
87.518616
 20
290.953448
 30
0.0
 10
76.459416
 20
290.953449
 30
0.0
  0
LWPOLYLINE
  5
209
100
AcDbEntity
  8
Capa_1
 62
1
100
AcDbPolyline
 90
2
 70
0
 10
96.434436
 20
270.928827
 30
0.0
 10
96.484036
 20
270.928827
 30
0.0
  0
SPLINE
  5
20a
100
AcDbEntity
  8
Capa_1
 62
1
100
AcDbSpline
 70
8
 71
3
 72
8
 73
4
 74
0
 40
0
 40
0
 40
0
 40
0
 40
1
 40
1
 40
1
 40
1
 10
30.459131
 20
290.953449
 30
0.0
 10
19.399927
 20
290.953448
 30
0.0
 10
10.434514
 20
281.988037
 30
0.0
 10
10.434514
 20
270.928827
 30
0.0
  0
LWPOLYLINE
  5
20b
100
AcDbEntity
  8
Capa_1
 62
1
100
AcDbPolyline
 90
1
 70
1
 10
76.459416
 20
290.953449
 30
0.0
  0
SPLINE
  5
20c
100
AcDbEntity
  8
Capa_1
 62
1
100
AcDbSpline
 70
8
 71
3
 72
8
 73
4
 74
0
 40
0
 40
0
 40
0
 40
0
 40
1
 40
1
 40
1
 40
1
 10
10.484124
 20
270.928827
 30
0.0
 10
10.484124
 20
281.961017
 30
0.0
 10
19.426949
 20
290.903838
 30
0.0
 10
30.459131
 20
290.903839
 30
0.0
  0
LWPOLYLINE
  5
20d
100
AcDbEntity
  8
Capa_1
 62
1
100
AcDbPolyline
 90
2
 70
0
 10
10.434514
 20
270.928827
 30
0.0
 10
10.484124
 20
270.928827
 30
0.0
  0
LWPOLYLINE
  5
20e
100
AcDbEntity
  8
Capa_1
 62
1
100
AcDbPolyline
 90
2
 70
0
 10
30.459131
 20
290.903839
 30
0.0
 10
30.459131
 20
290.953449
 30
0.0
  0
LWPOLYLINE
  5
20f
100
AcDbEntity
  8
Capa_1
 62
1
100
AcDbPolyline
 90
4
 70
1
 10
96.434436
 20
220.928787
 30
0.0
 10
96.434436
 20
209.678827
 30
0.0
 10
96.484536
 20
209.678827
 30
0.0
 10
96.484536
 20
220.928787
 30
0.0
  0
LWPOLYLINE
  5
210
100
AcDbEntity
  8
Capa_1
 62
1
100
AcDbPolyline
 90
4
 70
1
 10
96.434436
 20
194.678710
 30
0.0
 10
96.434436
 20
183.428750
 30
0.0
 10
96.484536
 20
183.428750
 30
0.0
 10
96.484536
 20
194.678710
 30
0.0
  0
LWPOLYLINE
  5
211
100
AcDbEntity
  8
Capa_1
 62
1
100
AcDbPolyline
 90
4
 70
1
 10
96.434436
 20
168.428630
 30
0.0
 10
96.434436
 20
157.178160
 30
0.0
 10
96.484536
 20
157.178160
 30
0.0
 10
96.484536
 20
168.428630
 30
0.0
  0
LWPOLYLINE
  5
212
100
AcDbEntity
  8
Capa_1
 62
1
100
AcDbPolyline
 90
4
 70
1
 10
96.434436
 20
142.179070
 30
0.0
 10
96.352836
 20
133.842630
 30
0.0
 10
96.402436
 20
133.842100
 30
0.0
 10
96.484636
 20
142.178540
 30
0.0
  0
LWPOLYLINE
  5
213
100
AcDbEntity
  8
Capa_1
 62
1
100
AcDbPolyline
 90
4
 70
1
 10
10.433997
 20
142.178550
 30
0.0
 10
10.433997
 20
133.949080
 30
0.0
 10
10.484127
 20
133.949080
 30
0.0
 10
10.484127
 20
142.178550
 30
0.0
  0
LWPOLYLINE
  5
214
100
AcDbEntity
  8
Capa_1
 62
1
100
AcDbPolyline
 90
4
 70
1
 10
10.433997
 20
220.928787
 30
0.0
 10
10.433997
 20
209.678827
 30
0.0
 10
10.484127
 20
209.678827
 30
0.0
 10
10.484127
 20
220.928787
 30
0.0
  0
LWPOLYLINE
  5
215
100
AcDbEntity
  8
Capa_1
 62
1
100
AcDbPolyline
 90
4
 70
1
 10
10.433997
 20
168.428630
 30
0.0
 10
10.433997
 20
157.178160
 30
0.0
 10
10.484127
 20
157.178160
 30
0.0
 10
10.484127
 20
168.428630
 30
0.0
  0
LWPOLYLINE
  5
216
100
AcDbEntity
  8
Capa_1
 62
1
100
AcDbPolyline
 90
4
 70
1
 10
10.433997
 20
194.678710
 30
0.0
 10
10.433997
 20
183.428750
 30
0.0
 10
10.484127
 20
183.428750
 30
0.0
 10
10.484127
 20
194.678710
 30
0.0
  0
LWPOLYLINE
  5
217
100
AcDbEntity
  8
Capa_1
 62
1
100
AcDbPolyline
 90
28
 70
1
 10
10.459319
 20
133.974400
 30
0.0
 10
10.459319
 20
133.924300
 30
0.0
 10
17.792721
 20
133.924300
 30
0.0
 10
17.792721
 20
130.924480
 30
0.0
 10
32.842964
 20
130.924480
 30
0.0
 10
32.842964
 20
133.924300
 30
0.0
 10
44.006624
 20
133.924300
 30
0.0
 10
44.006624
 20
130.924480
 30
0.0
 10
59.056866
 20
130.924480
 30
0.0
 10
59.056866
 20
133.924300
 30
0.0
 10
70.220526
 20
133.924300
 30
0.0
 10
70.220526
 20
130.924480
 30
0.0
 10
85.270256
 20
130.924480
 30
0.0
 10
85.270256
 20
133.924300
 30
0.0
 10
96.459236
 20
133.924300
 30
0.0
 10
96.459236
 20
133.974400
 30
0.0
 10
85.220646
 20
133.974400
 30
0.0
 10
85.220646
 20
130.974070
 30
0.0
 10
70.270656
 20
130.974070
 30
0.0
 10
70.270656
 20
133.974400
 30
0.0
 10
59.006746
 20
133.974400
 30
0.0
 10
59.006746
 20
130.974070
 30
0.0
 10
44.056752
 20
130.974070
 30
0.0
 10
44.056752
 20
133.974400
 30
0.0
 10
32.792839
 20
133.974400
 30
0.0
 10
32.792839
 20
130.974070
 30
0.0
 10
17.842847
 20
130.974070
 30
0.0
 10
17.842847
 20
133.974400
 30
0.0
  0
LWPOLYLINE
  5
218
100
AcDbEntity
  8
Capa_2
 62
7
100
AcDbPolyline
 90
12
 70
1
 10
30.329201
 20
275.637790
 30
0.0
 10
30.329201
 20
284.078878
 30
0.0
 10
41.737441
 20
284.078878
 30
0.0
 10
41.737441
 20
282.650917
 30
0.0
 10
33.435781
 20
282.650917
 30
0.0
 10
33.435781
 20
280.779603
 30
0.0
 10
41.160211
 20
280.779603
 30
0.0
 10
41.160211
 20
279.357395
 30
0.0
 10
33.435781
 20
279.357395
 30
0.0
 10
33.435781
 20
277.059998
 30
0.0
 10
42.031311
 20
277.059998
 30
0.0
 10
42.031311
 20
275.637790
 30
0.0
  0
LWPOLYLINE
  5
219
100
AcDbEntity
  8
Capa_2
 62
7
100
AcDbPolyline
 90
10
 70
1
 10
44.686591
 20
275.637790
 30
0.0
 10
44.686591
 20
284.078878
 30
0.0
 10
55.234231
 20
284.078878
 30
0.0
 10
55.234231
 20
282.650917
 30
0.0
 10
47.793161
 20
282.650917
 30
0.0
 10
47.793161
 20
280.652924
 30
0.0
 10
54.216201
 20
280.652924
 30
0.0
 10
54.216201
 20
279.224963
 30
0.0
 10
47.793161
 20
279.224963
 30
0.0
 10
47.793161
 20
275.637790
 30
0.0
  0
SPLINE
  5
21a
100
AcDbEntity
  8
Capa_2
 62
7
100
AcDbSpline
 70
8
 71
3
 72
8
 73
4
 74
0
 40
0
 40
0
 40
0
 40
0
 40
1
 40
1
 40
1
 40
1
 10
63.462431
 20
284.078878
 30
0.0
 10
64.742844
 20
284.078878
 30
0.0
 10
65.718894
 20
284.025137
 30
0.0
 10
66.390581
 20
283.917656
 30
0.0
  0
SPLINE
  5
21b
100
AcDbEntity
  8
Capa_2
 62
7
100
AcDbSpline
 70
8
 71
3
 72
8
 73
4
 74
0
 40
0
 40
0
 40
0
 40
0
 40
1
 40
1
 40
1
 40
1
 10
66.390581
 20
283.917656
 30
0.0
 10
67.293168
 20
283.771789
 30
0.0
 10
68.066311
 20
283.512684
 30
0.0
 10
68.710011
 20
283.140341
 30
0.0
  0
SPLINE
  5
21c
100
AcDbEntity
  8
Capa_2
 62
7
100
AcDbSpline
 70
8
 71
3
 72
8
 73
4
 74
0
 40
0
 40
0
 40
0
 40
0
 40
1
 40
1
 40
1
 40
1
 10
68.710011
 20
283.140341
 30
0.0
 10
69.353718
 20
282.767997
 30
0.0
 10
69.843494
 20
282.311203
 30
0.0
 10
70.179341
 20
281.769958
 30
0.0
  0
SPLINE
  5
21d
100
AcDbEntity
  8
Capa_2
 62
7
100
AcDbSpline
 70
8
 71
3
 72
8
 73
4
 74
0
 40
0
 40
0
 40
0
 40
0
 40
1
 40
1
 40
1
 40
1
 10
70.179341
 20
281.769958
 30
0.0
 10
70.515188
 20
281.232554
 30
0.0
 10
70.683111
 20
280.568476
 30
0.0
 10
70.683111
 20
279.777725
 30
0.0
  0
SPLINE
  5
21e
100
AcDbEntity
  8
Capa_2
 62
7
100
AcDbSpline
 70
8
 71
3
 72
8
 73
4
 74
0
 40
0
 40
0
 40
0
 40
0
 40
1
 40
1
 40
1
 40
1
 10
70.683111
 20
279.777725
 30
0.0
 10
70.683111
 20
279.082940
 30
0.0
 10
70.525681
 20
278.484118
 30
0.0
 10
70.210821
 20
277.981258
 30
0.0
  0
SPLINE
  5
21f
100
AcDbEntity
  8
Capa_2
 62
7
100
AcDbSpline
 70
8
 71
3
 72
8
 73
4
 74
0
 40
0
 40
0
 40
0
 40
0
 40
1
 40
1
 40
1
 40
1
 10
70.210821
 20
277.981258
 30
0.0
 10
69.826001
 20
277.367085
 30
0.0
 10
69.276754
 20
276.869987
 30
0.0
 10
68.563081
 20
276.489966
 30
0.0
  0
SPLINE
  5
220
100
AcDbEntity
  8
Capa_2
 62
7
100
AcDbSpline
 70
8
 71
3
 72
8
 73
4
 74
0
 40
0
 40
0
 40
0
 40
0
 40
1
 40
1
 40
1
 40
1
 10
68.563081
 20
276.489966
 30
0.0
 10
68.024334
 20
276.202069
 30
0.0
 10
67.296671
 20
275.977508
 30
0.0
 10
66.380091
 20
275.816285
 30
0.0
  0
SPLINE
  5
221
100
AcDbEntity
  8
Capa_2
 62
7
100
AcDbSpline
 70
8
 71
3
 72
8
 73
4
 74
0
 40
0
 40
0
 40
0
 40
0
 40
1
 40
1
 40
1
 40
1
 10
66.380091
 20
275.816285
 30
0.0
 10
65.694404
 20
275.697288
 30
0.0
 10
64.777828
 20
275.637790
 30
0.0
 10
63.630361
 20
275.637790
 30
0.0
  0
LWPOLYLINE
  5
222
100
AcDbEntity
  8
Capa_2
 62
7
100
AcDbPolyline
 90
2
 70
0
 10
57.784551
 20
284.078878
 30
0.0
 10
63.462431
 20
284.078878
 30
0.0
  0
LWPOLYLINE
  5
223
100
AcDbEntity
  8
Capa_2
 62
7
100
AcDbPolyline
 90
3
 70
0
 10
63.630361
 20
275.637790
 30
0.0
 10
57.784551
 20
275.637790
 30
0.0
 10
57.784551
 20
284.078878
 30
0.0
  0
SPLINE
  5
224
100
AcDbEntity
  8
Capa_2
 62
7
100
AcDbSpline
 70
8
 71
3
 72
8
 73
4
 74
0
 40
0
 40
0
 40
0
 40
0
 40
1
 40
1
 40
1
 40
1
 10
63.210551
 20
277.059998
 30
0.0
 10
64.078144
 20
277.059998
 30
0.0
 10
64.704354
 20
277.086865
 30
0.0
 10
65.089181
 20
277.140598
 30
0.0
  0
SPLINE
  5
225
100
AcDbEntity
  8
Capa_2
 62
7
100
AcDbSpline
 70
8
 71
3
 72
8
 73
4
 74
0
 40
0
 40
0
 40
0
 40
0
 40
1
 40
1
 40
1
 40
1
 10
65.089181
 20
277.140598
 30
0.0
 10
65.592948
 20
277.209689
 30
0.0
 10
66.009258
 20
277.326765
 30
0.0
 10
66.338111
 20
277.491826
 30
0.0
  0
SPLINE
  5
226
100
AcDbEntity
  8
Capa_2
 62
7
100
AcDbSpline
 70
8
 71
3
 72
8
 73
4
 74
0
 40
0
 40
0
 40
0
 40
0
 40
1
 40
1
 40
1
 40
1
 10
66.338111
 20
277.491826
 30
0.0
 10
66.673951
 20
277.656885
 30
0.0
 10
66.946824
 20
277.927507
 30
0.0
 10
67.156731
 20
278.303693
 30
0.0
  0
SPLINE
  5
227
100
AcDbEntity
  8
Capa_2
 62
7
100
AcDbSpline
 70
8
 71
3
 72
8
 73
4
 74
0
 40
0
 40
0
 40
0
 40
0
 40
1
 40
1
 40
1
 40
1
 10
67.156731
 20
278.303693
 30
0.0
 10
67.366631
 20
278.683716
 30
0.0
 10
67.471581
 20
279.200009
 30
0.0
 10
67.471581
 20
279.852573
 30
0.0
  0
SPLINE
  5
228
100
AcDbEntity
  8
Capa_2
 62
7
100
AcDbSpline
 70
8
 71
3
 72
8
 73
4
 74
0
 40
0
 40
0
 40
0
 40
0
 40
1
 40
1
 40
1
 40
1
 10
67.471581
 20
279.852573
 30
0.0
 10
67.471581
 20
280.505132
 30
0.0
 10
67.366631
 20
281.006068
 30
0.0
 10
67.156731
 20
281.355382
 30
0.0
  0
SPLINE
  5
229
100
AcDbEntity
  8
Capa_2
 62
7
100
AcDbSpline
 70
8
 71
3
 72
8
 73
4
 74
0
 40
0
 40
0
 40
0
 40
0
 40
1
 40
1
 40
1
 40
1
 10
67.156731
 20
281.355382
 30
0.0
 10
66.946824
 20
281.704697
 30
0.0
 10
66.652961
 20
281.977238
 30
0.0
 10
66.275141
 20
282.173005
 30
0.0
  0
SPLINE
  5
22a
100
AcDbEntity
  8
Capa_2
 62
7
100
AcDbSpline
 70
8
 71
3
 72
8
 73
4
 74
0
 40
0
 40
0
 40
0
 40
0
 40
1
 40
1
 40
1
 40
1
 10
66.275141
 20
282.173005
 30
0.0
 10
65.897308
 20
282.368772
 30
0.0
 10
65.418028
 20
282.501206
 30
0.0
 10
64.837301
 20
282.570305
 30
0.0
  0
SPLINE
  5
22b
100
AcDbEntity
  8
Capa_2
 62
7
100
AcDbSpline
 70
8
 71
3
 72
8
 73
4
 74
0
 40
0
 40
0
 40
0
 40
0
 40
1
 40
1
 40
1
 40
1
 10
64.837301
 20
282.570305
 30
0.0
 10
64.403501
 20
282.624038
 30
0.0
 10
63.553394
 20
282.650905
 30
0.0
 10
62.286981
 20
282.650905
 30
0.0
  0
LWPOLYLINE
  5
22c
100
AcDbEntity
  8
Capa_2
 62
7
100
AcDbPolyline
 90
3
 70
0
 10
60.891111
 20
282.650917
 30
0.0
 10
60.891111
 20
277.059998
 30
0.0
 10
63.210551
 20
277.059998
 30
0.0
  0
LWPOLYLINE
  5
22d
100
AcDbEntity
  8
Capa_2
 62
7
100
AcDbPolyline
 90
2
 70
0
 10
62.286981
 20
282.650905
 30
0.0
 10
60.891111
 20
282.650917
 30
0.0
  0
SPLINE
  5
22e
100
AcDbEntity
  8
Capa_2
 62
7
100
AcDbSpline
 70
8
 71
3
 72
8
 73
4
 74
0
 40
0
 40
0
 40
0
 40
0
 40
1
 40
1
 40
1
 40
1
 10
172.915100
 20
180.752810
 30
0.0
 10
172.921100
 20
180.758810
 30
0.0
 10
172.931400
 20
180.796510
 30
0.0
 10
172.939200
 20
180.836010
 30
0.0
  0
SPLINE
  5
22f
100
AcDbEntity
  8
Capa_2
 62
7
100
AcDbSpline
 70
8
 71
3
 72
8
 73
4
 74
0
 40
0
 40
0
 40
0
 40
0
 40
1
 40
1
 40
1
 40
1
 10
172.939200
 20
180.836010
 30
0.0
 10
172.947200
 20
180.875410
 30
0.0
 10
172.967400
 20
180.942650
 30
0.0
 10
172.984900
 20
180.985410
 30
0.0
  0
SPLINE
  5
230
100
AcDbEntity
  8
Capa_2
 62
7
100
AcDbSpline
 70
8
 71
3
 72
8
 73
4
 74
0
 40
0
 40
0
 40
0
 40
0
 40
1
 40
1
 40
1
 40
1
 10
172.984900
 20
180.985410
 30
0.0
 10
173.023200
 20
181.079510
 30
0.0
 10
176.463500
 20
187.036410
 30
0.0
 10
176.529130
 20
187.122320
 30
0.0
  0
SPLINE
  5
231
100
AcDbEntity
  8
Capa_2
 62
7
100
AcDbSpline
 70
8
 71
3
 72
8
 73
4
 74
0
 40
0
 40
0
 40
0
 40
0
 40
1
 40
1
 40
1
 40
1
 10
176.529130
 20
187.122320
 30
0.0
 10
176.642550
 20
187.270760
 30
0.0
 10
176.806780
 20
187.385480
 30
0.0
 10
176.997470
 20
187.449460
 30
0.0
  0
SPLINE
  5
232
100
AcDbEntity
  8
Capa_2
 62
7
100
AcDbSpline
 70
8
 71
3
 72
8
 73
4
 74
0
 40
0
 40
0
 40
0
 40
0
 40
1
 40
1
 40
1
 40
1
 10
176.997470
 20
187.449460
 30
0.0
 10
177.102150
 20
187.484560
 30
0.0
 10
177.114210
 20
187.486060
 30
0.0
 10
177.290510
 20
187.486060
 30
0.0
  0
SPLINE
  5
233
100
AcDbEntity
  8
Capa_2
 62
7
100
AcDbSpline
 70
8
 71
3
 72
8
 73
4
 74
0
 40
0
 40
0
 40
0
 40
0
 40
1
 40
1
 40
1
 40
1
 10
177.290510
 20
187.486060
 30
0.0
 10
177.460660
 20
187.485990
 30
0.0
 10
177.481660
 20
187.484060
 30
0.0
 10
177.572060
 20
187.453860
 30
0.0
  0
SPLINE
  5
234
100
AcDbEntity
  8
Capa_2
 62
7
100
AcDbSpline
 70
8
 71
3
 72
8
 73
4
 74
0
 40
0
 40
0
 40
0
 40
0
 40
1
 40
1
 40
1
 40
1
 10
177.572060
 20
187.453860
 30
0.0
 10
177.900580
 20
187.345960
 30
0.0
 10
178.123110
 20
187.114700
 30
0.0
 10
178.218490
 20
186.782050
 30
0.0
  0
SPLINE
  5
235
100
AcDbEntity
  8
Capa_2
 62
7
100
AcDbSpline
 70
8
 71
3
 72
8
 73
4
 74
0
 40
0
 40
0
 40
0
 40
0
 40
1
 40
1
 40
1
 40
1
 10
178.218490
 20
186.782050
 30
0.0
 10
178.239090
 20
186.710250
 30
0.0
 10
178.243690
 20
186.664460
 30
0.0
 10
178.243690
 20
186.533180
 30
0.0
  0
SPLINE
  5
236
100
AcDbEntity
  8
Capa_2
 62
7
100
AcDbSpline
 70
8
 71
3
 72
8
 73
4
 74
0
 40
0
 40
0
 40
0
 40
0
 40
1
 40
1
 40
1
 40
1
 10
178.243690
 20
186.533180
 30
0.0
 10
178.243690
 20
186.352790
 30
0.0
 10
178.222590
 20
186.253300
 30
0.0
 10
178.156490
 20
186.121790
 30
0.0
  0
SPLINE
  5
237
100
AcDbEntity
  8
Capa_2
 62
7
100
AcDbSpline
 70
8
 71
3
 72
8
 73
4
 74
0
 40
0
 40
0
 40
0
 40
0
 40
1
 40
1
 40
1
 40
1
 10
178.156490
 20
186.121790
 30
0.0
 10
178.067790
 20
185.945310
 30
0.0
 10
174.689210
 20
180.111450
 30
0.0
 10
174.631650
 20
180.035400
 30
0.0
  0
SPLINE
  5
238
100
AcDbEntity
  8
Capa_2
 62
7
100
AcDbSpline
 70
8
 71
3
 72
8
 73
4
 74
0
 40
0
 40
0
 40
0
 40
0
 40
1
 40
1
 40
1
 40
1
 10
174.631650
 20
180.035400
 30
0.0
 10
174.514080
 20
179.880060
 30
0.0
 10
174.310310
 20
179.747450
 30
0.0
 10
174.107260
 20
179.694150
 30
0.0
  0
SPLINE
  5
239
100
AcDbEntity
  8
Capa_2
 62
7
100
AcDbSpline
 70
8
 71
3
 72
8
 73
4
 74
0
 40
0
 40
0
 40
0
 40
0
 40
1
 40
1
 40
1
 40
1
 10
174.107260
 20
179.694150
 30
0.0
 10
173.985620
 20
179.662250
 30
0.0
 10
173.746800
 20
179.664850
 30
0.0
 10
173.625390
 20
179.699150
 30
0.0
  0
SPLINE
  5
23a
100
AcDbEntity
  8
Capa_2
 62
7
100
AcDbSpline
 70
8
 71
3
 72
8
 73
4
 74
0
 40
0
 40
0
 40
0
 40
0
 40
1
 40
1
 40
1
 40
1
 10
173.625390
 20
179.699150
 30
0.0
 10
173.207320
 20
179.818340
 30
0.0
 10
172.927830
 20
180.180380
 30
0.0
 10
172.909750
 20
180.626150
 30
0.0
  0
SPLINE
  5
23b
100
AcDbEntity
  8
Capa_2
 62
7
100
AcDbSpline
 70
8
 71
3
 72
8
 73
4
 74
0
 40
0
 40
0
 40
0
 40
0
 40
1
 40
1
 40
1
 40
1
 10
172.909750
 20
180.626150
 30
0.0
 10
172.906750
 20
180.689350
 30
0.0
 10
172.909600
 20
180.746240
 30
0.0
 10
172.914750
 20
180.752560
 30
0.0
  0
LWPOLYLINE
  5
23c
100
AcDbEntity
  8
Capa_2
 62
7
100
AcDbPolyline
 90
4
 70
1
 10
73.222931
 20
275.637790
 30
0.0
 10
73.222931
 20
284.078878
 30
0.0
 10
76.329501
 20
284.078878
 30
0.0
 10
76.329501
 20
275.637790
 30
0.0
  0
SPLINE
  5
23d
100
AcDbEntity
  8
Capa_2
 62
7
100
AcDbSpline
 70
8
 71
3
 72
8
 73
4
 74
0
 40
0
 40
0
 40
0
 40
0
 40
1
 40
1
 40
1
 40
1
 10
172.918100
 20
176.345760
 30
0.0
 10
172.923100
 20
176.361560
 30
0.0
 10
172.938600
 20
176.415860
 30
0.0
 10
172.951900
 20
176.466420
 30
0.0
  0
SPLINE
  5
23e
100
AcDbEntity
  8
Capa_2
 62
7
100
AcDbSpline
 70
8
 71
3
 72
8
 73
4
 74
0
 40
0
 40
0
 40
0
 40
0
 40
1
 40
1
 40
1
 40
1
 10
172.951900
 20
176.466420
 30
0.0
 10
173.055820
 20
176.861600
 30
0.0
 10
173.411500
 20
177.150990
 30
0.0
 10
173.817220
 20
177.170470
 30
0.0
  0
SPLINE
  5
23f
100
AcDbEntity
  8
Capa_2
 62
7
100
AcDbSpline
 70
8
 71
3
 72
8
 73
4
 74
0
 40
0
 40
0
 40
0
 40
0
 40
1
 40
1
 40
1
 40
1
 10
173.817220
 20
177.170470
 30
0.0
 10
174.031510
 20
177.180770
 30
0.0
 10
174.215390
 20
177.134570
 30
0.0
 10
174.387410
 20
177.027410
 30
0.0
  0
SPLINE
  5
240
100
AcDbEntity
  8
Capa_2
 62
7
100
AcDbSpline
 70
8
 71
3
 72
8
 73
4
 74
0
 40
0
 40
0
 40
0
 40
0
 40
1
 40
1
 40
1
 40
1
 10
174.387410
 20
177.027410
 30
0.0
 10
174.482710
 20
176.968010
 30
0.0
 10
174.606460
 20
176.852160
 30
0.0
 10
174.661340
 20
176.770950
 30
0.0
  0
SPLINE
  5
241
100
AcDbEntity
  8
Capa_2
 62
7
100
AcDbSpline
 70
8
 71
3
 72
8
 73
4
 74
0
 40
0
 40
0
 40
0
 40
0
 40
1
 40
1
 40
1
 40
1
 10
174.661340
 20
176.770950
 30
0.0
 10
174.744540
 20
176.647850
 30
0.0
 10
178.158110
 20
170.724810
 30
0.0
 10
178.184710
 20
170.657390
 30
0.0
  0
SPLINE
  5
242
100
AcDbEntity
  8
Capa_2
 62
7
100
AcDbSpline
 70
8
 71
3
 72
8
 73
4
 74
0
 40
0
 40
0
 40
0
 40
0
 40
1
 40
1
 40
1
 40
1
 10
178.184710
 20
170.657390
 30
0.0
 10
178.256810
 20
170.474560
 30
0.0
 10
178.269010
 20
170.236590
 30
0.0
 10
178.215810
 20
170.048770
 30
0.0
  0
SPLINE
  5
243
100
AcDbEntity
  8
Capa_2
 62
7
100
AcDbSpline
 70
8
 71
3
 72
8
 73
4
 74
0
 40
0
 40
0
 40
0
 40
0
 40
1
 40
1
 40
1
 40
1
 10
178.215810
 20
170.048770
 30
0.0
 10
178.077850
 20
169.561790
 30
0.0
 10
177.591480
 20
169.266540
 30
0.0
 10
177.095490
 20
169.368690
 30
0.0
  0
SPLINE
  5
244
100
AcDbEntity
  8
Capa_2
 62
7
100
AcDbSpline
 70
8
 71
3
 72
8
 73
4
 74
0
 40
0
 40
0
 40
0
 40
0
 40
1
 40
1
 40
1
 40
1
 10
177.095490
 20
169.368690
 30
0.0
 10
176.878660
 20
169.413390
 30
0.0
 10
176.660720
 20
169.548060
 30
0.0
 10
176.535090
 20
169.715070
 30
0.0
  0
SPLINE
  5
245
100
AcDbEntity
  8
Capa_2
 62
7
100
AcDbSpline
 70
8
 71
3
 72
8
 73
4
 74
0
 40
0
 40
0
 40
0
 40
0
 40
1
 40
1
 40
1
 40
1
 10
176.535090
 20
169.715070
 30
0.0
 10
176.456890
 20
169.819100
 30
0.0
 10
173.026920
 20
175.757470
 30
0.0
 10
172.985080
 20
175.861370
 30
0.0
  0
SPLINE
  5
246
100
AcDbEntity
  8
Capa_2
 62
7
100
AcDbSpline
 70
8
 71
3
 72
8
 73
4
 74
0
 40
0
 40
0
 40
0
 40
0
 40
1
 40
1
 40
1
 40
1
 10
172.985080
 20
175.861370
 30
0.0
 10
172.966380
 20
175.907770
 30
0.0
 10
172.942880
 20
175.980210
 30
0.0
 10
172.932780
 20
176.022250
 30
0.0
  0
SPLINE
  5
247
100
AcDbEntity
  8
Capa_2
 62
7
100
AcDbSpline
 70
8
 71
3
 72
8
 73
4
 74
0
 40
0
 40
0
 40
0
 40
0
 40
1
 40
1
 40
1
 40
1
 10
172.932780
 20
176.022250
 30
0.0
 10
172.912180
 20
176.108150
 30
0.0
 10
172.903480
 20
176.301970
 30
0.0
 10
172.918080
 20
176.345760
 30
0.0
  0
LWPOLYLINE
  5
248
100
AcDbEntity
  8
Capa_2
 62
7
100
AcDbPolyline
 90
2
 70
0
 10
172.914750
 20
180.752560
 30
0.0
 10
172.915100
 20
180.752810
 30
0.0
  0
SPLINE
  5
249
100
AcDbEntity
  8
Capa_2
 62
7
100
AcDbSpline
 70
8
 71
3
 72
8
 73
4
 74
0
 40
0
 40
0
 40
0
 40
0
 40
1
 40
1
 40
1
 40
1
 10
174.193990
 20
178.549940
 30
0.0
 10
174.247090
 20
178.931800
 30
0.0
 10
174.515570
 20
179.238910
 30
0.0
 10
174.891540
 20
179.347880
 30
0.0
  0
LWPOLYLINE
  5
24a
100
AcDbEntity
  8
Capa_2
 62
7
100
AcDbPolyline
 90
1
 70
1
 10
172.918080
 20
176.345760
 30
0.0
  0
SPLINE
  5
24b
100
AcDbEntity
  8
Capa_2
 62
7
100
AcDbSpline
 70
8
 71
3
 72
8
 73
4
 74
0
 40
0
 40
0
 40
0
 40
0
 40
1
 40
1
 40
1
 40
1
 10
182.249530
 20
179.340880
 30
0.0
 10
182.427120
 20
179.280980
 30
0.0
 10
182.549930
 20
179.205080
 30
0.0
 10
182.665170
 20
179.083970
 30
0.0
  0
SPLINE
  5
24c
100
AcDbEntity
  8
Capa_2
 62
7
100
AcDbSpline
 70
8
 71
3
 72
8
 73
4
 74
0
 40
0
 40
0
 40
0
 40
0
 40
1
 40
1
 40
1
 40
1
 10
182.665170
 20
179.083970
 30
0.0
 10
183.011840
 20
178.719610
 30
0.0
 10
183.016540
 20
178.150930
 30
0.0
 10
182.676070
 20
177.768570
 30
0.0
  0
SPLINE
  5
24d
100
AcDbEntity
  8
Capa_2
 62
7
100
AcDbSpline
 70
8
 71
3
 72
8
 73
4
 74
0
 40
0
 40
0
 40
0
 40
0
 40
1
 40
1
 40
1
 40
1
 10
182.676070
 20
177.768570
 30
0.0
 10
182.572770
 20
177.652580
 30
0.0
 10
182.389030
 20
177.541610
 30
0.0
 10
182.218370
 20
177.492140
 30
0.0
  0
LWPOLYLINE
  5
24e
100
AcDbEntity
  8
Capa_2
 62
7
100
AcDbPolyline
 90
5
 70
0
 10
174.891540
 20
179.347880
 30
0.0
 10
174.981040
 20
179.373780
 30
0.0
 10
178.566430
 20
179.373780
 30
0.0
 10
182.151830
 20
179.373780
 30
0.0
 10
182.249530
 20
179.340880
 30
0.0
  0
SPLINE
  5
24f
100
AcDbEntity
  8
Capa_2
 62
7
100
AcDbSpline
 70
8
 71
3
 72
8
 73
4
 74
0
 40
0
 40
0
 40
0
 40
0
 40
1
 40
1
 40
1
 40
1
 10
178.560710
 20
177.466240
 30
0.0
 10
175.188320
 20
177.466240
 30
0.0
 10
174.988530
 20
177.467240
 30
0.0
 10
174.919240
 20
177.486540
 30
0.0
  0
SPLINE
  5
250
100
AcDbEntity
  8
Capa_2
 62
7
100
AcDbSpline
 70
8
 71
3
 72
8
 73
4
 74
0
 40
0
 40
0
 40
0
 40
0
 40
1
 40
1
 40
1
 40
1
 10
174.919240
 20
177.486540
 30
0.0
 10
174.738350
 20
177.536540
 30
0.0
 10
174.621690
 20
177.600960
 30
0.0
 10
174.491300
 20
177.722950
 30
0.0
  0
SPLINE
  5
251
100
AcDbEntity
  8
Capa_2
 62
7
100
AcDbSpline
 70
8
 71
3
 72
8
 73
4
 74
0
 40
0
 40
0
 40
0
 40
0
 40
1
 40
1
 40
1
 40
1
 10
174.491300
 20
177.722950
 30
0.0
 10
174.303340
 20
177.898790
 30
0.0
 10
174.205000
 20
178.112910
 30
0.0
 10
174.189600
 20
178.379880
 30
0.0
  0
SPLINE
  5
252
100
AcDbEntity
  8
Capa_2
 62
7
100
AcDbSpline
 70
8
 71
3
 72
8
 73
4
 74
0
 40
0
 40
0
 40
0
 40
0
 40
1
 40
1
 40
1
 40
1
 10
174.189600
 20
178.379880
 30
0.0
 10
174.186600
 20
178.433580
 30
0.0
 10
174.188600
 20
178.510170
 30
0.0
 10
174.193600
 20
178.550030
 30
0.0
  0
LWPOLYLINE
  5
253
100
AcDbEntity
  8
Capa_2
 62
7
100
AcDbPolyline
 90
3
 70
0
 10
182.218370
 20
177.492140
 30
0.0
 10
182.128870
 20
177.466240
 30
0.0
 10
178.560710
 20
177.466240
 30
0.0
  0
SPLINE
  5
254
100
AcDbEntity
  8
Capa_2
 62
7
100
AcDbSpline
 70
8
 71
3
 72
8
 73
4
 74
0
 40
0
 40
0
 40
0
 40
0
 40
1
 40
1
 40
1
 40
1
 10
178.882910
 20
186.671020
 30
0.0
 10
178.942510
 20
187.054670
 30
0.0
 10
179.219670
 20
187.364340
 30
0.0
 10
179.594910
 20
187.466580
 30
0.0
  0
SPLINE
  5
255
100
AcDbEntity
  8
Capa_2
 62
7
100
AcDbSpline
 70
8
 71
3
 72
8
 73
4
 74
0
 40
0
 40
0
 40
0
 40
0
 40
1
 40
1
 40
1
 40
1
 10
179.594910
 20
187.466580
 30
0.0
 10
179.710390
 20
187.498080
 30
0.0
 10
179.973670
 20
187.494980
 30
0.0
 10
180.092330
 20
187.460580
 30
0.0
  0
SPLINE
  5
256
100
AcDbEntity
  8
Capa_2
 62
7
100
AcDbSpline
 70
8
 71
3
 72
8
 73
4
 74
0
 40
0
 40
0
 40
0
 40
0
 40
1
 40
1
 40
1
 40
1
 10
180.092330
 20
187.460580
 30
0.0
 10
180.284490
 20
187.405280
 30
0.0
 10
180.467900
 20
187.284830
 30
0.0
 10
180.581190
 20
187.139610
 30
0.0
  0
SPLINE
  5
257
100
AcDbEntity
  8
Capa_2
 62
7
100
AcDbSpline
 70
8
 71
3
 72
8
 73
4
 74
0
 40
0
 40
0
 40
0
 40
0
 40
1
 40
1
 40
1
 40
1
 10
180.581190
 20
187.139610
 30
0.0
 10
180.629490
 20
187.077710
 30
0.0
 10
183.886700
 20
181.446450
 30
0.0
 10
184.082810
 20
181.085820
 30
0.0
  0
SPLINE
  5
258
100
AcDbEntity
  8
Capa_2
 62
7
100
AcDbSpline
 70
8
 71
3
 72
8
 73
4
 74
0
 40
0
 40
0
 40
0
 40
0
 40
1
 40
1
 40
1
 40
1
 10
184.082810
 20
181.085820
 30
0.0
 10
184.110310
 20
181.035220
 30
0.0
 10
184.146710
 20
180.947350
 30
0.0
 10
184.163710
 20
180.890470
 30
0.0
  0
SPLINE
  5
259
100
AcDbEntity
  8
Capa_2
 62
7
100
AcDbSpline
 70
8
 71
3
 72
8
 73
4
 74
0
 40
0
 40
0
 40
0
 40
0
 40
1
 40
1
 40
1
 40
1
 10
184.163710
 20
180.890470
 30
0.0
 10
184.190310
 20
180.801570
 30
0.0
 10
184.194810
 20
180.765320
 30
0.0
 10
184.195610
 20
180.631900
 30
0.0
  0
SPLINE
  5
25a
100
AcDbEntity
  8
Capa_2
 62
7
100
AcDbSpline
 70
8
 71
3
 72
8
 73
4
 74
0
 40
0
 40
0
 40
0
 40
0
 40
1
 40
1
 40
1
 40
1
 10
184.195610
 20
180.631900
 30
0.0
 10
184.196610
 20
180.444110
 30
0.0
 10
184.179210
 20
180.365630
 30
0.0
 10
184.099410
 20
180.200970
 30
0.0
  0
SPLINE
  5
25b
100
AcDbEntity
  8
Capa_2
 62
7
100
AcDbSpline
 70
8
 71
3
 72
8
 73
4
 74
0
 40
0
 40
0
 40
0
 40
0
 40
1
 40
1
 40
1
 40
1
 10
184.099410
 20
180.200970
 30
0.0
 10
184.004910
 20
180.006060
 30
0.0
 10
183.877660
 20
179.875520
 30
0.0
 10
183.685930
 20
179.776620
 30
0.0
  0
SPLINE
  5
25c
100
AcDbEntity
  8
Capa_2
 62
7
100
AcDbSpline
 70
8
 71
3
 72
8
 73
4
 74
0
 40
0
 40
0
 40
0
 40
0
 40
1
 40
1
 40
1
 40
1
 10
183.685930
 20
179.776620
 30
0.0
 10
183.518020
 20
179.690020
 30
0.0
 10
183.443060
 20
179.672340
 30
0.0
 10
183.243500
 20
179.672410
 30
0.0
  0
SPLINE
  5
25d
100
AcDbEntity
  8
Capa_2
 62
7
100
AcDbSpline
 70
8
 71
3
 72
8
 73
4
 74
0
 40
0
 40
0
 40
0
 40
0
 40
1
 40
1
 40
1
 40
1
 10
183.243500
 20
179.672410
 30
0.0
 10
183.098880
 20
179.672450
 30
0.0
 10
183.056700
 20
179.676410
 30
0.0
 10
182.981500
 20
179.698410
 30
0.0
  0
SPLINE
  5
25e
100
AcDbEntity
  8
Capa_2
 62
7
100
AcDbSpline
 70
8
 71
3
 72
8
 73
4
 74
0
 40
0
 40
0
 40
0
 40
0
 40
1
 40
1
 40
1
 40
1
 10
182.981500
 20
179.698410
 30
0.0
 10
182.771020
 20
179.759310
 30
0.0
 10
182.572980
 20
179.899160
 30
0.0
 10
182.457060
 20
180.068840
 30
0.0
  0
SPLINE
  5
25f
100
AcDbEntity
  8
Capa_2
 62
7
100
AcDbSpline
 70
8
 71
3
 72
8
 73
4
 74
0
 40
0
 40
0
 40
0
 40
0
 40
1
 40
1
 40
1
 40
1
 10
182.457060
 20
180.068840
 30
0.0
 10
182.395660
 20
180.158640
 30
0.0
 10
178.979140
 20
186.088970
 30
0.0
 10
178.950230
 20
186.155840
 30
0.0
  0
SPLINE
  5
260
100
AcDbEntity
  8
Capa_2
 62
7
100
AcDbSpline
 70
8
 71
3
 72
8
 73
4
 74
0
 40
0
 40
0
 40
0
 40
0
 40
1
 40
1
 40
1
 40
1
 10
178.950230
 20
186.155840
 30
0.0
 10
178.889230
 20
186.297020
 30
0.0
 10
178.859730
 20
186.522030
 30
0.0
 10
178.882930
 20
186.670800
 30
0.0
  0
LWPOLYLINE
  5
261
100
AcDbEntity
  8
Capa_2
 62
7
100
AcDbPolyline
 90
2
 70
0
 10
174.193600
 20
178.550030
 30
0.0
 10
174.193990
 20
178.549940
 30
0.0
  0
SPLINE
  5
262
100
AcDbEntity
  8
Capa_2
 62
7
100
AcDbSpline
 70
8
 71
3
 72
8
 73
4
 74
0
 40
0
 40
0
 40
0
 40
0
 40
1
 40
1
 40
1
 40
1
 10
178.887910
 20
170.469600
 30
0.0
 10
178.905810
 20
170.568400
 30
0.0
 10
178.933510
 20
170.655570
 30
0.0
 10
178.970110
 20
170.728670
 30
0.0
  0
SPLINE
  5
263
100
AcDbEntity
  8
Capa_2
 62
7
100
AcDbSpline
 70
8
 71
3
 72
8
 73
4
 74
0
 40
0
 40
0
 40
0
 40
0
 40
1
 40
1
 40
1
 40
1
 10
178.970110
 20
170.728670
 30
0.0
 10
179.050510
 20
170.889300
 30
0.0
 10
182.434360
 20
176.743830
 30
0.0
 10
182.486720
 20
176.812950
 30
0.0
  0
SPLINE
  5
264
100
AcDbEntity
  8
Capa_2
 62
7
100
AcDbSpline
 70
8
 71
3
 72
8
 73
4
 74
0
 40
0
 40
0
 40
0
 40
0
 40
1
 40
1
 40
1
 40
1
 10
182.486720
 20
176.812950
 30
0.0
 10
182.750970
 20
177.161750
 30
0.0
 10
183.269760
 20
177.278470
 30
0.0
 10
183.668290
 20
177.078790
 30
0.0
  0
SPLINE
  5
265
100
AcDbEntity
  8
Capa_2
 62
7
100
AcDbSpline
 70
8
 71
3
 72
8
 73
4
 74
0
 40
0
 40
0
 40
0
 40
0
 40
1
 40
1
 40
1
 40
1
 10
183.668290
 20
177.078790
 30
0.0
 10
183.863890
 20
176.980790
 30
0.0
 10
184.000600
 20
176.841630
 30
0.0
 10
184.104670
 20
176.634610
 30
0.0
  0
SPLINE
  5
266
100
AcDbEntity
  8
Capa_2
 62
7
100
AcDbSpline
 70
8
 71
3
 72
8
 73
4
 74
0
 40
0
 40
0
 40
0
 40
0
 40
1
 40
1
 40
1
 40
1
 10
184.104670
 20
176.634610
 30
0.0
 10
184.173770
 20
176.497080
 30
0.0
 10
184.195070
 20
176.399390
 30
0.0
 10
184.195070
 20
176.219350
 30
0.0
  0
SPLINE
  5
267
100
AcDbEntity
  8
Capa_2
 62
7
100
AcDbSpline
 70
8
 71
3
 72
8
 73
4
 74
0
 40
0
 40
0
 40
0
 40
0
 40
1
 40
1
 40
1
 40
1
 10
184.195070
 20
176.219350
 30
0.0
 10
184.195070
 20
176.039250
 30
0.0
 10
184.173770
 20
175.941510
 30
0.0
 10
184.104570
 20
175.804090
 30
0.0
  0
SPLINE
  5
268
100
AcDbEntity
  8
Capa_2
 62
7
100
AcDbSpline
 70
8
 71
3
 72
8
 73
4
 74
0
 40
0
 40
0
 40
0
 40
0
 40
1
 40
1
 40
1
 40
1
 10
184.104570
 20
175.804090
 30
0.0
 10
184.043570
 20
175.682840
 30
0.0
 10
180.683790
 20
169.851170
 30
0.0
 10
180.621770
 20
169.758840
 30
0.0
  0
SPLINE
  5
269
100
AcDbEntity
  8
Capa_2
 62
7
100
AcDbSpline
 70
8
 71
3
 72
8
 73
4
 74
0
 40
0
 40
0
 40
0
 40
0
 40
1
 40
1
 40
1
 40
1
 10
180.621770
 20
169.758840
 30
0.0
 10
180.412840
 20
169.447790
 30
0.0
 10
180.014660
 20
169.290640
 30
0.0
 10
179.634340
 20
169.369140
 30
0.0
  0
SPLINE
  5
26a
100
AcDbEntity
  8
Capa_2
 62
7
100
AcDbSpline
 70
8
 71
3
 72
8
 73
4
 74
0
 40
0
 40
0
 40
0
 40
0
 40
1
 40
1
 40
1
 40
1
 10
179.634340
 20
169.369140
 30
0.0
 10
179.444590
 20
169.408340
 30
0.0
 10
179.279110
 20
169.501870
 30
0.0
 10
179.139380
 20
169.649010
 30
0.0
  0
SPLINE
  5
26b
100
AcDbEntity
  8
Capa_2
 62
7
100
AcDbSpline
 70
8
 71
3
 72
8
 73
4
 74
0
 40
0
 40
0
 40
0
 40
0
 40
1
 40
1
 40
1
 40
1
 10
179.139380
 20
169.649010
 30
0.0
 10
178.928170
 20
169.871410
 30
0.0
 10
178.834690
 20
170.176440
 30
0.0
 10
178.887880
 20
170.469600
 30
0.0
  0
LWPOLYLINE
  5
26c
100
AcDbEntity
  8
Capa_2
 62
7
100
AcDbPolyline
 90
2
 70
0
 10
178.882930
 20
186.670800
 30
0.0
 10
178.882910
 20
186.671020
 30
0.0
  0
SPLINE
  5
26d
100
AcDbEntity
  8
Capa_2
 62
7
100
AcDbSpline
 70
8
 71
3
 72
8
 73
4
 74
0
 40
0
 40
0
 40
0
 40
0
 40
1
 40
1
 40
1
 40
1
 10
180.146880
 20
188.859490
 30
0.0
 10
180.199580
 20
189.241980
 30
0.0
 10
180.494510
 20
189.575770
 30
0.0
 10
180.853240
 20
189.658990
 30
0.0
  0
SPLINE
  5
26e
100
AcDbEntity
  8
Capa_2
 62
7
100
AcDbSpline
 70
8
 71
3
 72
8
 73
4
 74
0
 40
0
 40
0
 40
0
 40
0
 40
1
 40
1
 40
1
 40
1
 10
180.853240
 20
189.658990
 30
0.0
 10
180.897440
 20
189.669290
 30
0.0
 10
180.942640
 20
189.682490
 30
0.0
 10
180.953640
 20
189.688390
 30
0.0
  0
SPLINE
  5
26f
100
AcDbEntity
  8
Capa_2
 62
7
100
AcDbSpline
 70
8
 71
3
 72
8
 73
4
 74
0
 40
0
 40
0
 40
0
 40
0
 40
1
 40
1
 40
1
 40
1
 10
180.953640
 20
189.688390
 30
0.0
 10
180.979340
 20
189.702190
 30
0.0
 10
188.033970
 20
189.702890
 30
0.0
 10
188.061540
 20
189.689120
 30
0.0
  0
SPLINE
  5
270
100
AcDbEntity
  8
Capa_2
 62
7
100
AcDbSpline
 70
8
 71
3
 72
8
 73
4
 74
0
 40
0
 40
0
 40
0
 40
0
 40
1
 40
1
 40
1
 40
1
 10
188.061540
 20
189.689120
 30
0.0
 10
188.072540
 20
189.684120
 30
0.0
 10
188.117740
 20
189.670720
 30
0.0
 10
188.161940
 20
189.660420
 30
0.0
  0
SPLINE
  5
271
100
AcDbEntity
  8
Capa_2
 62
7
100
AcDbSpline
 70
8
 71
3
 72
8
 73
4
 74
0
 40
0
 40
0
 40
0
 40
0
 40
1
 40
1
 40
1
 40
1
 10
188.161940
 20
189.660420
 30
0.0
 10
188.298590
 20
189.628620
 30
0.0
 10
188.462000
 20
189.539920
 30
0.0
 10
188.568810
 20
189.439440
 30
0.0
  0
SPLINE
  5
272
100
AcDbEntity
  8
Capa_2
 62
7
100
AcDbSpline
 70
8
 71
3
 72
8
 73
4
 74
0
 40
0
 40
0
 40
0
 40
0
 40
1
 40
1
 40
1
 40
1
 10
188.568810
 20
189.439440
 30
0.0
 10
188.788460
 20
189.232810
 30
0.0
 10
188.890810
 20
188.983290
 30
0.0
 10
188.876850
 20
188.688480
 30
0.0
  0
SPLINE
  5
273
100
AcDbEntity
  8
Capa_2
 62
7
100
AcDbSpline
 70
8
 71
3
 72
8
 73
4
 74
0
 40
0
 40
0
 40
0
 40
0
 40
1
 40
1
 40
1
 40
1
 10
188.876850
 20
188.688480
 30
0.0
 10
188.868850
 20
188.528870
 30
0.0
 10
188.841350
 20
188.423010
 30
0.0
 10
188.770600
 20
188.286040
 30
0.0
  0
SPLINE
  5
274
100
AcDbEntity
  8
Capa_2
 62
7
100
AcDbSpline
 70
8
 71
3
 72
8
 73
4
 74
0
 40
0
 40
0
 40
0
 40
0
 40
1
 40
1
 40
1
 40
1
 10
188.770600
 20
188.286040
 30
0.0
 10
188.647670
 20
188.048040
 30
0.0
 10
188.429340
 20
187.873800
 30
0.0
 10
188.156190
 20
187.795700
 30
0.0
  0
SPLINE
  5
275
100
AcDbEntity
  8
Capa_2
 62
7
100
AcDbSpline
 70
8
 71
3
 72
8
 73
4
 74
0
 40
0
 40
0
 40
0
 40
0
 40
1
 40
1
 40
1
 40
1
 10
188.156190
 20
187.795700
 30
0.0
 10
188.084290
 20
187.775100
 30
0.0
 10
187.952330
 20
187.774200
 30
0.0
 10
184.570800
 20
187.771000
 30
0.0
  0
SPLINE
  5
276
100
AcDbEntity
  8
Capa_2
 62
7
100
AcDbSpline
 70
8
 71
3
 72
8
 73
4
 74
0
 40
0
 40
0
 40
0
 40
0
 40
1
 40
1
 40
1
 40
1
 10
184.570800
 20
187.771000
 30
0.0
 10
182.200820
 20
187.769000
 30
0.0
 10
181.030660
 20
187.771490
 30
0.0
 10
180.969520
 20
187.779000
 30
0.0
  0
SPLINE
  5
277
100
AcDbEntity
  8
Capa_2
 62
7
100
AcDbSpline
 70
8
 71
3
 72
8
 73
4
 74
0
 40
0
 40
0
 40
0
 40
0
 40
1
 40
1
 40
1
 40
1
 10
180.969520
 20
187.779000
 30
0.0
 10
180.587480
 20
187.829100
 30
0.0
 10
180.266770
 20
188.115620
 30
0.0
 10
180.170710
 20
188.492620
 30
0.0
  0
SPLINE
  5
278
100
AcDbEntity
  8
Capa_2
 62
7
100
AcDbSpline
 70
8
 71
3
 72
8
 73
4
 74
0
 40
0
 40
0
 40
0
 40
0
 40
1
 40
1
 40
1
 40
1
 10
180.170710
 20
188.492620
 30
0.0
 10
180.143610
 20
188.598810
 30
0.0
 10
180.133210
 20
188.759680
 30
0.0
 10
180.146910
 20
188.859000
 30
0.0
  0
LWPOLYLINE
  5
279
100
AcDbEntity
  8
Capa_2
 62
7
100
AcDbPolyline
 90
1
 70
1
 10
178.887880
 20
170.469600
 30
0.0
  0
SPLINE
  5
27a
100
AcDbEntity
  8
Capa_2
 62
7
100
AcDbSpline
 70
8
 71
3
 72
8
 73
4
 74
0
 40
0
 40
0
 40
0
 40
0
 40
1
 40
1
 40
1
 40
1
 10
180.142880
 20
168.203920
 30
0.0
 10
180.173680
 20
168.450950
 30
0.0
 10
180.271720
 20
168.647920
 30
0.0
 10
180.444040
 20
168.809130
 30
0.0
  0
SPLINE
  5
27b
100
AcDbEntity
  8
Capa_2
 62
7
100
AcDbSpline
 70
8
 71
3
 72
8
 73
4
 74
0
 40
0
 40
0
 40
0
 40
0
 40
1
 40
1
 40
1
 40
1
 10
180.444040
 20
168.809130
 30
0.0
 10
180.574430
 20
168.931120
 30
0.0
 10
180.691090
 20
168.995560
 30
0.0
 10
180.871990
 20
169.045540
 30
0.0
  0
SPLINE
  5
27c
100
AcDbEntity
  8
Capa_2
 62
7
100
AcDbSpline
 70
8
 71
3
 72
8
 73
4
 74
0
 40
0
 40
0
 40
0
 40
0
 40
1
 40
1
 40
1
 40
1
 10
180.871990
 20
169.045540
 30
0.0
 10
180.941290
 20
169.064640
 30
0.0
 10
181.141070
 20
169.065840
 30
0.0
 10
184.513460
 20
169.065840
 30
0.0
  0
SPLINE
  5
27d
100
AcDbEntity
  8
Capa_2
 62
7
100
AcDbSpline
 70
8
 71
3
 72
8
 73
4
 74
0
 40
0
 40
0
 40
0
 40
0
 40
1
 40
1
 40
1
 40
1
 10
184.513460
 20
169.065840
 30
0.0
 10
187.944590
 20
169.065840
 30
0.0
 10
188.084490
 20
169.065020
 30
0.0
 10
188.156290
 20
169.044640
 30
0.0
  0
SPLINE
  5
27e
100
AcDbEntity
  8
Capa_2
 62
7
100
AcDbSpline
 70
8
 71
3
 72
8
 73
4
 74
0
 40
0
 40
0
 40
0
 40
0
 40
1
 40
1
 40
1
 40
1
 10
188.156290
 20
169.044640
 30
0.0
 10
188.495850
 20
168.948440
 30
0.0
 10
188.733290
 20
168.722750
 30
0.0
 10
188.841420
 20
168.393540
 30
0.0
  0
SPLINE
  5
27f
100
AcDbEntity
  8
Capa_2
 62
7
100
AcDbSpline
 70
8
 71
3
 72
8
 73
4
 74
0
 40
0
 40
0
 40
0
 40
0
 40
1
 40
1
 40
1
 40
1
 10
188.841420
 20
168.393540
 30
0.0
 10
188.871120
 20
168.303140
 30
0.0
 10
188.873520
 20
168.282140
 30
0.0
 10
188.873620
 20
168.111990
 30
0.0
  0
SPLINE
  5
280
100
AcDbEntity
  8
Capa_2
 62
7
100
AcDbSpline
 70
8
 71
3
 72
8
 73
4
 74
0
 40
0
 40
0
 40
0
 40
0
 40
1
 40
1
 40
1
 40
1
 10
188.873620
 20
168.111990
 30
0.0
 10
188.873680
 20
167.935690
 30
0.0
 10
188.872620
 20
167.923640
 30
0.0
 10
188.837020
 20
167.818960
 30
0.0
  0
SPLINE
  5
281
100
AcDbEntity
  8
Capa_2
 62
7
100
AcDbSpline
 70
8
 71
3
 72
8
 73
4
 74
0
 40
0
 40
0
 40
0
 40
0
 40
1
 40
1
 40
1
 40
1
 10
188.837020
 20
167.818960
 30
0.0
 10
188.740220
 20
167.530400
 30
0.0
 10
188.523460
 20
167.305940
 30
0.0
 10
188.247290
 20
167.208210
 30
0.0
  0
SPLINE
  5
282
100
AcDbEntity
  8
Capa_2
 62
7
100
AcDbSpline
 70
8
 71
3
 72
8
 73
4
 74
0
 40
0
 40
0
 40
0
 40
0
 40
1
 40
1
 40
1
 40
1
 10
188.247290
 20
167.208210
 30
0.0
 10
188.197790
 20
167.190710
 30
0.0
 10
188.131040
 20
167.172910
 30
0.0
 10
188.099050
 20
167.168610
 30
0.0
  0
SPLINE
  5
283
100
AcDbEntity
  8
Capa_2
 62
7
100
AcDbSpline
 70
8
 71
3
 72
8
 73
4
 74
0
 40
0
 40
0
 40
0
 40
0
 40
1
 40
1
 40
1
 40
1
 10
188.099050
 20
167.168610
 30
0.0
 10
188.067050
 20
167.164610
 30
0.0
 10
188.038150
 20
167.156410
 30
0.0
 10
188.034750
 20
167.150910
 30
0.0
  0
SPLINE
  5
284
100
AcDbEntity
  8
Capa_2
 62
7
100
AcDbSpline
 70
8
 71
3
 72
8
 73
4
 74
0
 40
0
 40
0
 40
0
 40
0
 40
1
 40
1
 40
1
 40
1
 10
188.034750
 20
167.150910
 30
0.0
 10
188.026750
 20
167.137510
 30
0.0
 10
181.017640
 20
167.137810
 30
0.0
 10
180.983220
 20
167.151190
 30
0.0
  0
SPLINE
  5
285
100
AcDbEntity
  8
Capa_2
 62
7
100
AcDbSpline
 70
8
 71
3
 72
8
 73
4
 74
0
 40
0
 40
0
 40
0
 40
0
 40
1
 40
1
 40
1
 40
1
 10
180.983220
 20
167.151190
 30
0.0
 10
180.968720
 20
167.157190
 30
0.0
 10
180.915920
 20
167.170390
 30
0.0
 10
180.866020
 20
167.181290
 30
0.0
  0
SPLINE
  5
286
100
AcDbEntity
  8
Capa_2
 62
7
100
AcDbSpline
 70
8
 71
3
 72
8
 73
4
 74
0
 40
0
 40
0
 40
0
 40
0
 40
1
 40
1
 40
1
 40
1
 10
180.866020
 20
167.181290
 30
0.0
 10
180.749760
 20
167.206690
 30
0.0
 10
180.576560
 20
167.293870
 30
0.0
 10
180.483030
 20
167.374000
 30
0.0
  0
SPLINE
  5
287
100
AcDbEntity
  8
Capa_2
 62
7
100
AcDbSpline
 70
8
 71
3
 72
8
 73
4
 74
0
 40
0
 40
0
 40
0
 40
0
 40
1
 40
1
 40
1
 40
1
 10
180.483030
 20
167.374000
 30
0.0
 10
180.351540
 20
167.486660
 30
0.0
 10
180.243800
 20
167.642930
 30
0.0
 10
180.192130
 20
167.795940
 30
0.0
  0
SPLINE
  5
288
100
AcDbEntity
  8
Capa_2
 62
7
100
AcDbSpline
 70
8
 71
3
 72
8
 73
4
 74
0
 40
0
 40
0
 40
0
 40
0
 40
1
 40
1
 40
1
 40
1
 10
180.192130
 20
167.795940
 30
0.0
 10
180.149830
 20
167.921330
 30
0.0
 10
180.129030
 20
168.093010
 30
0.0
 10
180.142930
 20
168.203900
 30
0.0
  0
LWPOLYLINE
  5
289
100
AcDbEntity
  8
Capa_2
 62
7
100
AcDbPolyline
 90
2
 70
0
 10
180.146910
 20
188.859000
 30
0.0
 10
180.146880
 20
188.859490
 30
0.0
  0
SPLINE
  5
28a
100
AcDbEntity
  8
Capa_2
 62
7
100
AcDbSpline
 70
8
 71
3
 72
8
 73
4
 74
0
 40
0
 40
0
 40
0
 40
0
 40
1
 40
1
 40
1
 40
1
 10
184.842110
 20
180.829730
 30
0.0
 10
184.851110
 20
180.872030
 30
0.0
 10
184.873110
 20
180.941850
 30
0.0
 10
184.890810
 20
180.984870
 30
0.0
  0
SPLINE
  5
28b
100
AcDbEntity
  8
Capa_2
 62
7
100
AcDbSpline
 70
8
 71
3
 72
8
 73
4
 74
0
 40
0
 40
0
 40
0
 40
0
 40
1
 40
1
 40
1
 40
1
 10
184.890810
 20
180.984870
 30
0.0
 10
184.921010
 20
181.058370
 30
0.0
 10
188.325750
 20
186.979330
 30
0.0
 10
188.401740
 20
187.090470
 30
0.0
  0
SPLINE
  5
28c
100
AcDbEntity
  8
Capa_2
 62
7
100
AcDbSpline
 70
8
 71
3
 72
8
 73
4
 74
0
 40
0
 40
0
 40
0
 40
0
 40
1
 40
1
 40
1
 40
1
 10
188.401740
 20
187.090470
 30
0.0
 10
188.515820
 20
187.257320
 30
0.0
 10
188.694500
 20
187.386390
 30
0.0
 10
188.903300
 20
187.452780
 30
0.0
  0
SPLINE
  5
28d
100
AcDbEntity
  8
Capa_2
 62
7
100
AcDbSpline
 70
8
 71
3
 72
8
 73
4
 74
0
 40
0
 40
0
 40
0
 40
0
 40
1
 40
1
 40
1
 40
1
 10
188.903300
 20
187.452780
 30
0.0
 10
189.032590
 20
187.493880
 30
0.0
 10
189.234800
 20
187.504380
 30
0.0
 10
189.369680
 20
187.477080
 30
0.0
  0
SPLINE
  5
28e
100
AcDbEntity
  8
Capa_2
 62
7
100
AcDbSpline
 70
8
 71
3
 72
8
 73
4
 74
0
 40
0
 40
0
 40
0
 40
0
 40
1
 40
1
 40
1
 40
1
 10
189.369680
 20
187.477080
 30
0.0
 10
189.549360
 20
187.440680
 30
0.0
 10
189.711860
 20
187.357880
 30
0.0
 10
189.841300
 20
187.236790
 30
0.0
  0
SPLINE
  5
28f
100
AcDbEntity
  8
Capa_2
 62
7
100
AcDbSpline
 70
8
 71
3
 72
8
 73
4
 74
0
 40
0
 40
0
 40
0
 40
0
 40
1
 40
1
 40
1
 40
1
 10
189.841300
 20
187.236790
 30
0.0
 10
189.968610
 20
187.117690
 30
0.0
 10
190.045360
 20
186.994930
 30
0.0
 10
190.105190
 20
186.814650
 30
0.0
  0
SPLINE
  5
290
100
AcDbEntity
  8
Capa_2
 62
7
100
AcDbSpline
 70
8
 71
3
 72
8
 73
4
 74
0
 40
0
 40
0
 40
0
 40
0
 40
1
 40
1
 40
1
 40
1
 10
190.105190
 20
186.814650
 30
0.0
 10
190.135190
 20
186.724150
 30
0.0
 10
190.137590
 20
186.703400
 30
0.0
 10
190.138090
 20
186.533100
 30
0.0
  0
SPLINE
  5
291
100
AcDbEntity
  8
Capa_2
 62
7
100
AcDbSpline
 70
8
 71
3
 72
8
 73
4
 74
0
 40
0
 40
0
 40
0
 40
0
 40
1
 40
1
 40
1
 40
1
 10
190.138090
 20
186.533100
 30
0.0
 10
190.138530
 20
186.351550
 30
0.0
 10
190.138030
 20
186.347780
 30
0.0
 10
190.097990
 20
186.234320
 30
0.0
  0
SPLINE
  5
292
100
AcDbEntity
  8
Capa_2
 62
7
100
AcDbSpline
 70
8
 71
3
 72
8
 73
4
 74
0
 40
0
 40
0
 40
0
 40
0
 40
1
 40
1
 40
1
 40
1
 10
190.097990
 20
186.234320
 30
0.0
 10
190.063590
 20
186.136920
 30
0.0
 10
189.793380
 20
185.661100
 30
0.0
 10
188.322600
 20
183.108620
 30
0.0
  0
SPLINE
  5
293
100
AcDbEntity
  8
Capa_2
 62
7
100
AcDbSpline
 70
8
 71
3
 72
8
 73
4
 74
0
 40
0
 40
0
 40
0
 40
0
 40
1
 40
1
 40
1
 40
1
 10
188.322600
 20
183.108620
 30
0.0
 10
187.368430
 20
181.452690
 30
0.0
 10
186.564070
 20
180.066800
 30
0.0
 10
186.535140
 20
180.028860
 30
0.0
  0
SPLINE
  5
294
100
AcDbEntity
  8
Capa_2
 62
7
100
AcDbSpline
 70
8
 71
3
 72
8
 73
4
 74
0
 40
0
 40
0
 40
0
 40
0
 40
1
 40
1
 40
1
 40
1
 10
186.535140
 20
180.028860
 30
0.0
 10
186.471840
 20
179.945860
 30
0.0
 10
186.348810
 20
179.839900
 30
0.0
 10
186.254490
 20
179.787180
 30
0.0
  0
SPLINE
  5
295
100
AcDbEntity
  8
Capa_2
 62
7
100
AcDbSpline
 70
8
 71
3
 72
8
 73
4
 74
0
 40
0
 40
0
 40
0
 40
0
 40
1
 40
1
 40
1
 40
1
 10
186.254490
 20
179.787180
 30
0.0
 10
186.216590
 20
179.765980
 30
0.0
 10
186.136410
 20
179.732080
 30
0.0
 10
186.076360
 20
179.711880
 30
0.0
  0
SPLINE
  5
296
100
AcDbEntity
  8
Capa_2
 62
7
100
AcDbSpline
 70
8
 71
3
 72
8
 73
4
 74
0
 40
0
 40
0
 40
0
 40
0
 40
1
 40
1
 40
1
 40
1
 10
186.076360
 20
179.711880
 30
0.0
 10
185.872430
 20
179.643180
 30
0.0
 10
185.616340
 20
179.653080
 30
0.0
 10
185.413060
 20
179.737680
 30
0.0
  0
SPLINE
  5
297
100
AcDbEntity
  8
Capa_2
 62
7
100
AcDbSpline
 70
8
 71
3
 72
8
 73
4
 74
0
 40
0
 40
0
 40
0
 40
0
 40
1
 40
1
 40
1
 40
1
 10
185.413060
 20
179.737680
 30
0.0
 10
185.050930
 20
179.888280
 30
0.0
 10
184.821840
 20
180.233800
 30
0.0
 10
184.824710
 20
180.625060
 30
0.0
  0
SPLINE
  5
298
100
AcDbEntity
  8
Capa_2
 62
7
100
AcDbSpline
 70
8
 71
3
 72
8
 73
4
 74
0
 40
0
 40
0
 40
0
 40
0
 40
1
 40
1
 40
1
 40
1
 10
184.824710
 20
180.625060
 30
0.0
 10
184.825220
 20
180.695360
 30
0.0
 10
184.832710
 20
180.787480
 30
0.0
 10
184.842210
 20
180.829790
 30
0.0
  0
LWPOLYLINE
  5
299
100
AcDbEntity
  8
Capa_2
 62
7
100
AcDbPolyline
 90
1
 70
1
 10
180.142930
 20
168.203900
 30
0.0
  0
SPLINE
  5
29a
100
AcDbEntity
  8
Capa_2
 62
7
100
AcDbSpline
 70
8
 71
3
 72
8
 73
4
 74
0
 40
0
 40
0
 40
0
 40
0
 40
1
 40
1
 40
1
 40
1
 10
184.840110
 20
176.420460
 30
0.0
 10
184.897910
 20
176.671640
 30
0.0
 10
185.045720
 20
176.886590
 30
0.0
 10
185.254280
 20
177.022740
 30
0.0
  0
SPLINE
  5
29b
100
AcDbEntity
  8
Capa_2
 62
7
100
AcDbSpline
 70
8
 71
3
 72
8
 73
4
 74
0
 40
0
 40
0
 40
0
 40
0
 40
1
 40
1
 40
1
 40
1
 10
185.254280
 20
177.022740
 30
0.0
 10
185.412900
 20
177.126290
 30
0.0
 10
185.581900
 20
177.174790
 30
0.0
 10
185.782590
 20
177.174380
 30
0.0
  0
SPLINE
  5
29c
100
AcDbEntity
  8
Capa_2
 62
7
100
AcDbSpline
 70
8
 71
3
 72
8
 73
4
 74
0
 40
0
 40
0
 40
0
 40
0
 40
1
 40
1
 40
1
 40
1
 10
185.782590
 20
177.174380
 30
0.0
 10
186.088310
 20
177.173730
 30
0.0
 10
186.361080
 20
177.041120
 30
0.0
 10
186.541400
 20
176.805430
 30
0.0
  0
SPLINE
  5
29d
100
AcDbEntity
  8
Capa_2
 62
7
100
AcDbSpline
 70
8
 71
3
 72
8
 73
4
 74
0
 40
0
 40
0
 40
0
 40
0
 40
1
 40
1
 40
1
 40
1
 10
186.541400
 20
176.805430
 30
0.0
 10
186.605800
 20
176.721230
 30
0.0
 10
190.023350
 20
170.790890
 30
0.0
 10
190.071150
 20
170.680370
 30
0.0
  0
SPLINE
  5
29e
100
AcDbEntity
  8
Capa_2
 62
7
100
AcDbSpline
 70
8
 71
3
 72
8
 73
4
 74
0
 40
0
 40
0
 40
0
 40
0
 40
1
 40
1
 40
1
 40
1
 10
190.071150
 20
170.680370
 30
0.0
 10
190.167150
 20
170.458310
 30
0.0
 10
190.169250
 20
170.189300
 30
0.0
 10
190.077150
 20
169.949890
 30
0.0
  0
SPLINE
  5
29f
100
AcDbEntity
  8
Capa_2
 62
7
100
AcDbSpline
 70
8
 71
3
 72
8
 73
4
 74
0
 40
0
 40
0
 40
0
 40
0
 40
1
 40
1
 40
1
 40
1
 10
190.077150
 20
169.949890
 30
0.0
 10
189.938870
 20
169.592270
 30
0.0
 10
189.579300
 20
169.347880
 30
0.0
 10
189.191150
 20
169.347690
 30
0.0
  0
SPLINE
  5
2a0
100
AcDbEntity
  8
Capa_2
 62
7
100
AcDbSpline
 70
8
 71
3
 72
8
 73
4
 74
0
 40
0
 40
0
 40
0
 40
0
 40
1
 40
1
 40
1
 40
1
 10
189.191150
 20
169.347690
 30
0.0
 10
188.910340
 20
169.347550
 30
0.0
 10
188.616740
 20
169.483740
 30
0.0
 10
188.450110
 20
169.691410
 30
0.0
  0
SPLINE
  5
2a1
100
AcDbEntity
  8
Capa_2
 62
7
100
AcDbSpline
 70
8
 71
3
 72
8
 73
4
 74
0
 40
0
 40
0
 40
0
 40
0
 40
1
 40
1
 40
1
 40
1
 10
188.450110
 20
169.691410
 30
0.0
 10
188.416810
 20
169.732810
 30
0.0
 10
188.332790
 20
169.865040
 30
0.0
 10
188.263310
 20
169.985130
 30
0.0
  0
SPLINE
  5
2a2
100
AcDbEntity
  8
Capa_2
 62
7
100
AcDbSpline
 70
8
 71
3
 72
8
 73
4
 74
0
 40
0
 40
0
 40
0
 40
0
 40
1
 40
1
 40
1
 40
1
 10
188.263310
 20
169.985130
 30
0.0
 10
187.622010
 20
171.093530
 30
0.0
 10
184.945950
 20
175.746580
 30
0.0
 10
184.919110
 20
175.799910
 30
0.0
  0
SPLINE
  5
2a3
100
AcDbEntity
  8
Capa_2
 62
7
100
AcDbSpline
 70
8
 71
3
 72
8
 73
4
 74
0
 40
0
 40
0
 40
0
 40
0
 40
1
 40
1
 40
1
 40
1
 10
184.919110
 20
175.799910
 30
0.0
 10
184.852310
 20
175.932680
 30
0.0
 10
184.833310
 20
176.014790
 30
0.0
 10
184.828810
 20
176.190620
 30
0.0
  0
SPLINE
  5
2a4
100
AcDbEntity
  8
Capa_2
 62
7
100
AcDbSpline
 70
8
 71
3
 72
8
 73
4
 74
0
 40
0
 40
0
 40
0
 40
0
 40
1
 40
1
 40
1
 40
1
 10
184.828810
 20
176.190620
 30
0.0
 10
184.825810
 20
176.300090
 30
0.0
 10
184.829790
 20
176.373540
 30
0.0
 10
184.840610
 20
176.420460
 30
0.0
  0
LWPOLYLINE
  5
2a5
100
AcDbEntity
  8
Capa_2
 62
7
100
AcDbPolyline
 90
2
 70
0
 10
184.842210
 20
180.829790
 30
0.0
 10
184.842110
 20
180.829730
 30
0.0
  0
SPLINE
  5
2a6
100
AcDbEntity
  8
Capa_2
 62
7
100
AcDbSpline
 70
8
 71
3
 72
8
 73
4
 74
0
 40
0
 40
0
 40
0
 40
0
 40
1
 40
1
 40
1
 40
1
 10
186.099530
 20
178.549940
 30
0.0
 10
186.152730
 20
178.931850
 30
0.0
 10
186.421120
 20
179.238910
 30
0.0
 10
186.797090
 20
179.347880
 30
0.0
  0
LWPOLYLINE
  5
2a7
100
AcDbEntity
  8
Capa_2
 62
7
100
AcDbPolyline
 90
2
 70
0
 10
184.840610
 20
176.420460
 30
0.0
 10
184.840110
 20
176.420460
 30
0.0
  0
SPLINE
  5
2a8
100
AcDbEntity
  8
Capa_2
 62
7
100
AcDbSpline
 70
8
 71
3
 72
8
 73
4
 74
0
 40
0
 40
0
 40
0
 40
0
 40
1
 40
1
 40
1
 40
1
 10
194.155090
 20
179.340880
 30
0.0
 10
194.332680
 20
179.280980
 30
0.0
 10
194.455490
 20
179.205080
 30
0.0
 10
194.570730
 20
179.083970
 30
0.0
  0
SPLINE
  5
2a9
100
AcDbEntity
  8
Capa_2
 62
7
100
AcDbSpline
 70
8
 71
3
 72
8
 73
4
 74
0
 40
0
 40
0
 40
0
 40
0
 40
1
 40
1
 40
1
 40
1
 10
194.570730
 20
179.083970
 30
0.0
 10
194.951470
 20
178.683810
 30
0.0
 10
194.914030
 20
178.033030
 30
0.0
 10
194.490130
 20
177.683390
 30
0.0
  0
SPLINE
  5
2aa
100
AcDbEntity
  8
Capa_2
 62
7
100
AcDbSpline
 70
8
 71
3
 72
8
 73
4
 74
0
 40
0
 40
0
 40
0
 40
0
 40
1
 40
1
 40
1
 40
1
 10
194.490130
 20
177.683390
 30
0.0
 10
194.397030
 20
177.606590
 30
0.0
 10
194.245710
 20
177.527400
 30
0.0
 10
194.125550
 20
177.492600
 30
0.0
  0
LWPOLYLINE
  5
2ab
100
AcDbEntity
  8
Capa_2
 62
7
100
AcDbPolyline
 90
5
 70
0
 10
186.797090
 20
179.347880
 30
0.0
 10
186.886590
 20
179.373780
 30
0.0
 10
190.471990
 20
179.373780
 30
0.0
 10
194.057390
 20
179.373780
 30
0.0
 10
194.155090
 20
179.340880
 30
0.0
  0
SPLINE
  5
2ac
100
AcDbEntity
  8
Capa_2
 62
7
100
AcDbSpline
 70
8
 71
3
 72
8
 73
4
 74
0
 40
0
 40
0
 40
0
 40
0
 40
1
 40
1
 40
1
 40
1
 10
190.466290
 20
177.466200
 30
0.0
 10
187.093900
 20
177.466200
 30
0.0
 10
186.894110
 20
177.467200
 30
0.0
 10
186.824820
 20
177.486500
 30
0.0
  0
SPLINE
  5
2ad
100
AcDbEntity
  8
Capa_2
 62
7
100
AcDbSpline
 70
8
 71
3
 72
8
 73
4
 74
0
 40
0
 40
0
 40
0
 40
0
 40
1
 40
1
 40
1
 40
1
 10
186.824820
 20
177.486500
 30
0.0
 10
186.643920
 20
177.536500
 30
0.0
 10
186.527270
 20
177.600920
 30
0.0
 10
186.396880
 20
177.722910
 30
0.0
  0
SPLINE
  5
2ae
100
AcDbEntity
  8
Capa_2
 62
7
100
AcDbSpline
 70
8
 71
3
 72
8
 73
4
 74
0
 40
0
 40
0
 40
0
 40
0
 40
1
 40
1
 40
1
 40
1
 10
186.396880
 20
177.722910
 30
0.0
 10
186.209560
 20
177.898150
 30
0.0
 10
186.108920
 20
178.114240
 30
0.0
 10
186.095230
 20
178.370550
 30
0.0
  0
SPLINE
  5
2af
100
AcDbEntity
  8
Capa_2
 62
7
100
AcDbSpline
 70
8
 71
3
 72
8
 73
4
 74
0
 40
0
 40
0
 40
0
 40
0
 40
1
 40
1
 40
1
 40
1
 10
186.095230
 20
178.370550
 30
0.0
 10
186.092230
 20
178.429350
 30
0.0
 10
186.094230
 20
178.510130
 30
0.0
 10
186.099230
 20
178.549990
 30
0.0
  0
LWPOLYLINE
  5
2b0
100
AcDbEntity
  8
Capa_2
 62
7
100
AcDbPolyline
 90
3
 70
0
 10
194.125550
 20
177.492600
 30
0.0
 10
194.034450
 20
177.466200
 30
0.0
 10
190.466290
 20
177.466200
 30
0.0
  0
SPLINE
  5
2b1
100
AcDbEntity
  8
Capa_2
 62
7
100
AcDbSpline
 70
8
 71
3
 72
8
 73
4
 74
0
 40
0
 40
0
 40
0
 40
0
 40
1
 40
1
 40
1
 40
1
 10
190.772850
 20
186.613560
 30
0.0
 10
190.810050
 20
187.039770
 30
0.0
 10
191.124680
 20
187.390850
 30
0.0
 10
191.545750
 20
187.476030
 30
0.0
  0
SPLINE
  5
2b2
100
AcDbEntity
  8
Capa_2
 62
7
100
AcDbSpline
 70
8
 71
3
 72
8
 73
4
 74
0
 40
0
 40
0
 40
0
 40
0
 40
1
 40
1
 40
1
 40
1
 10
191.545750
 20
187.476030
 30
0.0
 10
191.671290
 20
187.501430
 30
0.0
 10
191.871270
 20
187.493730
 30
0.0
 10
191.992480
 20
187.458930
 30
0.0
  0
SPLINE
  5
2b3
100
AcDbEntity
  8
Capa_2
 62
7
100
AcDbSpline
 70
8
 71
3
 72
8
 73
4
 74
0
 40
0
 40
0
 40
0
 40
0
 40
1
 40
1
 40
1
 40
1
 10
191.992480
 20
187.458930
 30
0.0
 10
192.221450
 20
187.393130
 30
0.0
 10
192.415260
 20
187.248390
 30
0.0
 10
192.539840
 20
187.050280
 30
0.0
  0
SPLINE
  5
2b4
100
AcDbEntity
  8
Capa_2
 62
7
100
AcDbSpline
 70
8
 71
3
 72
8
 73
4
 74
0
 40
0
 40
0
 40
0
 40
0
 40
1
 40
1
 40
1
 40
1
 10
192.539840
 20
187.050280
 30
0.0
 10
192.567640
 20
187.006080
 30
0.0
 10
193.363220
 20
185.632060
 30
0.0
 10
194.307750
 20
183.997000
 30
0.0
  0
SPLINE
  5
2b5
100
AcDbEntity
  8
Capa_2
 62
7
100
AcDbSpline
 70
8
 71
3
 72
8
 73
4
 74
0
 40
0
 40
0
 40
0
 40
0
 40
1
 40
1
 40
1
 40
1
 10
194.307750
 20
183.997000
 30
0.0
 10
195.830270
 20
181.361370
 30
0.0
 10
196.028550
 20
181.012680
 30
0.0
 10
196.055710
 20
180.922980
 30
0.0
  0
SPLINE
  5
2b6
100
AcDbEntity
  8
Capa_2
 62
7
100
AcDbSpline
 70
8
 71
3
 72
8
 73
4
 74
0
 40
0
 40
0
 40
0
 40
0
 40
1
 40
1
 40
1
 40
1
 10
196.055710
 20
180.922980
 30
0.0
 10
196.072610
 20
180.867380
 30
0.0
 10
196.091410
 20
180.805910
 30
0.0
 10
196.097510
 20
180.786500
 30
0.0
  0
SPLINE
  5
2b7
100
AcDbEntity
  8
Capa_2
 62
7
100
AcDbSpline
 70
8
 71
3
 72
8
 73
4
 74
0
 40
0
 40
0
 40
0
 40
0
 40
1
 40
1
 40
1
 40
1
 10
196.097510
 20
180.786500
 30
0.0
 10
196.111210
 20
180.743200
 30
0.0
 10
196.112310
 20
180.491580
 30
0.0
 10
196.098510
 20
180.476470
 30
0.0
  0
SPLINE
  5
2b8
100
AcDbEntity
  8
Capa_2
 62
7
100
AcDbSpline
 70
8
 71
3
 72
8
 73
4
 74
0
 40
0
 40
0
 40
0
 40
0
 40
1
 40
1
 40
1
 40
1
 10
196.098510
 20
180.476470
 30
0.0
 10
196.093510
 20
180.470470
 30
0.0
 10
196.082410
 20
180.435370
 30
0.0
 10
196.074510
 20
180.398570
 30
0.0
  0
SPLINE
  5
2b9
100
AcDbEntity
  8
Capa_2
 62
7
100
AcDbSpline
 70
8
 71
3
 72
8
 73
4
 74
0
 40
0
 40
0
 40
0
 40
0
 40
1
 40
1
 40
1
 40
1
 10
196.074510
 20
180.398570
 30
0.0
 10
196.014710
 20
180.119070
 30
0.0
 10
195.785590
 20
179.850850
 30
0.0
 10
195.512440
 20
179.740520
 30
0.0
  0
SPLINE
  5
2ba
100
AcDbEntity
  8
Capa_2
 62
7
100
AcDbSpline
 70
8
 71
3
 72
8
 73
4
 74
0
 40
0
 40
0
 40
0
 40
0
 40
1
 40
1
 40
1
 40
1
 10
195.512440
 20
179.740520
 30
0.0
 10
195.377150
 20
179.685920
 30
0.0
 10
195.306700
 20
179.673020
 30
0.0
 10
195.142890
 20
179.673020
 30
0.0
  0
SPLINE
  5
2bb
100
AcDbEntity
  8
Capa_2
 62
7
100
AcDbSpline
 70
8
 71
3
 72
8
 73
4
 74
0
 40
0
 40
0
 40
0
 40
0
 40
1
 40
1
 40
1
 40
1
 10
195.142890
 20
179.673020
 30
0.0
 10
194.940670
 20
179.673020
 30
0.0
 10
194.802710
 20
179.709720
 30
0.0
 10
194.641190
 20
179.806480
 30
0.0
  0
SPLINE
  5
2bc
100
AcDbEntity
  8
Capa_2
 62
7
100
AcDbSpline
 70
8
 71
3
 72
8
 73
4
 74
0
 40
0
 40
0
 40
0
 40
0
 40
1
 40
1
 40
1
 40
1
 10
194.641190
 20
179.806480
 30
0.0
 10
194.563190
 20
179.853180
 30
0.0
 10
194.422740
 20
179.981770
 30
0.0
 10
194.369210
 20
180.055450
 30
0.0
  0
SPLINE
  5
2bd
100
AcDbEntity
  8
Capa_2
 62
7
100
AcDbSpline
 70
8
 71
3
 72
8
 73
4
 74
0
 40
0
 40
0
 40
0
 40
0
 40
1
 40
1
 40
1
 40
1
 10
194.369210
 20
180.055450
 30
0.0
 10
194.317310
 20
180.126950
 30
0.0
 10
190.909760
 20
186.027380
 30
0.0
 10
190.860580
 20
186.130970
 30
0.0
  0
SPLINE
  5
2be
100
AcDbEntity
  8
Capa_2
 62
7
100
AcDbSpline
 70
8
 71
3
 72
8
 73
4
 74
0
 40
0
 40
0
 40
0
 40
0
 40
1
 40
1
 40
1
 40
1
 10
190.860580
 20
186.130970
 30
0.0
 10
190.795580
 20
186.267960
 30
0.0
 10
190.759490
 20
186.465380
 30
0.0
 10
190.772380
 20
186.613620
 30
0.0
  0
LWPOLYLINE
  5
2bf
100
AcDbEntity
  8
Capa_2
 62
7
100
AcDbPolyline
 90
2
 70
0
 10
186.099230
 20
178.549990
 30
0.0
 10
186.099530
 20
178.549940
 30
0.0
  0
SPLINE
  5
2c0
100
AcDbEntity
  8
Capa_2
 62
7
100
AcDbSpline
 70
8
 71
3
 72
8
 73
4
 74
0
 40
0
 40
0
 40
0
 40
0
 40
1
 40
1
 40
1
 40
1
 10
190.772860
 20
170.387330
 30
0.0
 10
190.779860
 20
170.466130
 30
0.0
 10
190.811260
 20
170.596650
 30
0.0
 10
190.841160
 20
170.670370
 30
0.0
  0
SPLINE
  5
2c1
100
AcDbEntity
  8
Capa_2
 62
7
100
AcDbSpline
 70
8
 71
3
 72
8
 73
4
 74
0
 40
0
 40
0
 40
0
 40
0
 40
1
 40
1
 40
1
 40
1
 10
190.841160
 20
170.670370
 30
0.0
 10
190.875460
 20
170.754670
 30
0.0
 10
194.310860
 20
176.705170
 30
0.0
 10
194.373210
 20
176.788190
 30
0.0
  0
SPLINE
  5
2c2
100
AcDbEntity
  8
Capa_2
 62
7
100
AcDbSpline
 70
8
 71
3
 72
8
 73
4
 74
0
 40
0
 40
0
 40
0
 40
0
 40
1
 40
1
 40
1
 40
1
 10
194.373210
 20
176.788190
 30
0.0
 10
194.502560
 20
176.960440
 30
0.0
 10
194.677790
 20
177.080860
 30
0.0
 10
194.887190
 20
177.141430
 30
0.0
  0
SPLINE
  5
2c3
100
AcDbEntity
  8
Capa_2
 62
7
100
AcDbSpline
 70
8
 71
3
 72
8
 73
4
 74
0
 40
0
 40
0
 40
0
 40
0
 40
1
 40
1
 40
1
 40
1
 10
194.887190
 20
177.141430
 30
0.0
 10
194.962190
 20
177.163130
 30
0.0
 10
195.004490
 20
177.167330
 30
0.0
 10
195.149030
 20
177.167330
 30
0.0
  0
SPLINE
  5
2c4
100
AcDbEntity
  8
Capa_2
 62
7
100
AcDbSpline
 70
8
 71
3
 72
8
 73
4
 74
0
 40
0
 40
0
 40
0
 40
0
 40
1
 40
1
 40
1
 40
1
 10
195.149030
 20
177.167330
 30
0.0
 10
195.297830
 20
177.167330
 30
0.0
 10
195.333130
 20
177.163330
 30
0.0
 10
195.407100
 20
177.140530
 30
0.0
  0
SPLINE
  5
2c5
100
AcDbEntity
  8
Capa_2
 62
7
100
AcDbSpline
 70
8
 71
3
 72
8
 73
4
 74
0
 40
0
 40
0
 40
0
 40
0
 40
1
 40
1
 40
1
 40
1
 10
195.407100
 20
177.140530
 30
0.0
 10
195.706810
 20
177.046430
 30
0.0
 10
195.932270
 20
176.840740
 30
0.0
 10
196.038940
 20
176.564150
 30
0.0
  0
SPLINE
  5
2c6
100
AcDbEntity
  8
Capa_2
 62
7
100
AcDbSpline
 70
8
 71
3
 72
8
 73
4
 74
0
 40
0
 40
0
 40
0
 40
0
 40
1
 40
1
 40
1
 40
1
 10
196.038940
 20
176.564150
 30
0.0
 10
196.057940
 20
176.514950
 30
0.0
 10
196.076840
 20
176.453310
 30
0.0
 10
196.081040
 20
176.427200
 30
0.0
  0
SPLINE
  5
2c7
100
AcDbEntity
  8
Capa_2
 62
7
100
AcDbSpline
 70
8
 71
3
 72
8
 73
4
 74
0
 40
0
 40
0
 40
0
 40
0
 40
1
 40
1
 40
1
 40
1
 10
196.081040
 20
176.427200
 30
0.0
 10
196.085040
 20
176.401100
 30
0.0
 10
196.093140
 20
176.377000
 30
0.0
 10
196.098640
 20
176.373600
 30
0.0
  0
SPLINE
  5
2c8
100
AcDbEntity
  8
Capa_2
 62
7
100
AcDbSpline
 70
8
 71
3
 72
8
 73
4
 74
0
 40
0
 40
0
 40
0
 40
0
 40
1
 40
1
 40
1
 40
1
 10
196.098640
 20
176.373600
 30
0.0
 10
196.111940
 20
176.365600
 30
0.0
 10
196.111540
 20
176.086640
 30
0.0
 10
196.098100
 20
176.061230
 30
0.0
  0
SPLINE
  5
2c9
100
AcDbEntity
  8
Capa_2
 62
7
100
AcDbSpline
 70
8
 71
3
 72
8
 73
4
 74
0
 40
0
 40
0
 40
0
 40
0
 40
1
 40
1
 40
1
 40
1
 10
196.098100
 20
176.061230
 30
0.0
 10
196.092100
 20
176.050230
 30
0.0
 10
196.078800
 20
176.006230
 30
0.0
 10
196.068000
 20
175.963430
 30
0.0
  0
SPLINE
  5
2ca
100
AcDbEntity
  8
Capa_2
 62
7
100
AcDbSpline
 70
8
 71
3
 72
8
 73
4
 74
0
 40
0
 40
0
 40
0
 40
0
 40
1
 40
1
 40
1
 40
1
 10
196.068000
 20
175.963430
 30
0.0
 10
196.057200
 20
175.920630
 30
0.0
 10
196.031700
 20
175.850810
 30
0.0
 10
196.011200
 20
175.808300
 30
0.0
  0
SPLINE
  5
2cb
100
AcDbEntity
  8
Capa_2
 62
7
100
AcDbSpline
 70
8
 71
3
 72
8
 73
4
 74
0
 40
0
 40
0
 40
0
 40
0
 40
1
 40
1
 40
1
 40
1
 10
196.011200
 20
175.808300
 30
0.0
 10
195.965700
 20
175.713700
 30
0.0
 10
192.572200
 20
169.838720
 30
0.0
 10
192.511130
 20
169.748800
 30
0.0
  0
SPLINE
  5
2cc
100
AcDbEntity
  8
Capa_2
 62
7
100
AcDbSpline
 70
8
 71
3
 72
8
 73
4
 74
0
 40
0
 40
0
 40
0
 40
0
 40
1
 40
1
 40
1
 40
1
 10
192.511130
 20
169.748800
 30
0.0
 10
192.422830
 20
169.618690
 30
0.0
 10
192.251710
 20
169.482370
 30
0.0
 10
192.099780
 20
169.421000
 30
0.0
  0
SPLINE
  5
2cd
100
AcDbEntity
  8
Capa_2
 62
7
100
AcDbSpline
 70
8
 71
3
 72
8
 73
4
 74
0
 40
0
 40
0
 40
0
 40
0
 40
1
 40
1
 40
1
 40
1
 10
192.099780
 20
169.421000
 30
0.0
 10
191.964490
 20
169.366400
 30
0.0
 10
191.894040
 20
169.353500
 30
0.0
 10
191.730230
 20
169.353500
 30
0.0
  0
SPLINE
  5
2ce
100
AcDbEntity
  8
Capa_2
 62
7
100
AcDbSpline
 70
8
 71
3
 72
8
 73
4
 74
0
 40
0
 40
0
 40
0
 40
0
 40
1
 40
1
 40
1
 40
1
 10
191.730230
 20
169.353500
 30
0.0
 10
191.566420
 20
169.353500
 30
0.0
 10
191.495970
 20
169.366400
 30
0.0
 10
191.360680
 20
169.421000
 30
0.0
  0
SPLINE
  5
2cf
100
AcDbEntity
  8
Capa_2
 62
7
100
AcDbSpline
 70
8
 71
3
 72
8
 73
4
 74
0
 40
0
 40
0
 40
0
 40
0
 40
1
 40
1
 40
1
 40
1
 10
191.360680
 20
169.421000
 30
0.0
 10
191.104560
 20
169.524460
 30
0.0
 10
190.893550
 20
169.759290
 30
0.0
 10
190.812090
 20
170.031530
 30
0.0
  0
SPLINE
  5
2d0
100
AcDbEntity
  8
Capa_2
 62
7
100
AcDbSpline
 70
8
 71
3
 72
8
 73
4
 74
0
 40
0
 40
0
 40
0
 40
0
 40
1
 40
1
 40
1
 40
1
 10
190.812090
 20
170.031530
 30
0.0
 10
190.791290
 20
170.101130
 30
0.0
 10
190.761690
 20
170.296820
 30
0.0
 10
190.766990
 20
170.329910
 30
0.0
  0
SPLINE
  5
2d1
100
AcDbEntity
  8
Capa_2
 62
7
100
AcDbSpline
 70
8
 71
3
 72
8
 73
4
 74
0
 40
0
 40
0
 40
0
 40
0
 40
1
 40
1
 40
1
 40
1
 10
190.766990
 20
170.329910
 30
0.0
 10
190.767990
 20
170.335910
 30
0.0
 10
190.770990
 20
170.362110
 30
0.0
 10
190.772990
 20
170.387410
 30
0.0
  0
LWPOLYLINE
  5
2d2
100
AcDbEntity
  8
Capa_2
 62
7
100
AcDbPolyline
 90
2
 70
0
 10
190.772380
 20
186.613620
 30
0.0
 10
190.772850
 20
186.613560
 30
0.0
  0
SPLINE
  5
2d3
100
AcDbEntity
  8
Capa_2
 62
7
100
AcDbSpline
 70
8
 71
3
 72
8
 73
4
 74
0
 40
0
 40
0
 40
0
 40
0
 40
1
 40
1
 40
1
 40
1
 10
57.165881
 20
267.790158
 30
0.0
 10
57.176081
 20
267.779938
 30
0.0
 10
57.240381
 20
267.762388
 30
0.0
 10
57.307631
 20
267.749098
 30
0.0
  0
SPLINE
  5
2d4
100
AcDbEntity
  8
Capa_2
 62
7
100
AcDbSpline
 70
8
 71
3
 72
8
 73
4
 74
0
 40
0
 40
0
 40
0
 40
0
 40
1
 40
1
 40
1
 40
1
 10
57.307631
 20
267.749098
 30
0.0
 10
57.374731
 20
267.735468
 30
0.0
 10
57.489311
 20
267.701048
 30
0.0
 10
57.562171
 20
267.671238
 30
0.0
  0
SPLINE
  5
2d5
100
AcDbEntity
  8
Capa_2
 62
7
100
AcDbSpline
 70
8
 71
3
 72
8
 73
4
 74
0
 40
0
 40
0
 40
0
 40
0
 40
1
 40
1
 40
1
 40
1
 10
57.562171
 20
267.671238
 30
0.0
 10
57.722491
 20
267.605988
 30
0.0
 10
67.871491
 20
261.744613
 30
0.0
 10
68.017861
 20
261.632797
 30
0.0
  0
SPLINE
  5
2d6
100
AcDbEntity
  8
Capa_2
 62
7
100
AcDbSpline
 70
8
 71
3
 72
8
 73
4
 74
0
 40
0
 40
0
 40
0
 40
0
 40
1
 40
1
 40
1
 40
1
 10
68.017861
 20
261.632797
 30
0.0
 10
68.270761
 20
261.439559
 30
0.0
 10
68.466211
 20
261.159754
 30
0.0
 10
68.575221
 20
260.834868
 30
0.0
  0
SPLINE
  5
2d7
100
AcDbEntity
  8
Capa_2
 62
7
100
AcDbSpline
 70
8
 71
3
 72
8
 73
4
 74
0
 40
0
 40
0
 40
0
 40
0
 40
1
 40
1
 40
1
 40
1
 10
68.575221
 20
260.834868
 30
0.0
 10
68.635021
 20
260.656521
 30
0.0
 10
68.637621
 20
260.635974
 30
0.0
 10
68.637621
 20
260.335604
 30
0.0
  0
SPLINE
  5
2d8
100
AcDbEntity
  8
Capa_2
 62
7
100
AcDbSpline
 70
8
 71
3
 72
8
 73
4
 74
0
 40
0
 40
0
 40
0
 40
0
 40
1
 40
1
 40
1
 40
1
 10
68.637621
 20
260.335604
 30
0.0
 10
68.637501
 20
260.045713
 30
0.0
 10
68.634621
 20
260.009935
 30
0.0
 10
68.582721
 20
259.855917
 30
0.0
  0
SPLINE
  5
2d9
100
AcDbEntity
  8
Capa_2
 62
7
100
AcDbSpline
 70
8
 71
3
 72
8
 73
4
 74
0
 40
0
 40
0
 40
0
 40
0
 40
1
 40
1
 40
1
 40
1
 10
68.582721
 20
259.855917
 30
0.0
 10
68.398881
 20
259.296205
 30
0.0
 10
68.004881
 20
258.917072
 30
0.0
 10
67.438131
 20
258.754569
 30
0.0
  0
SPLINE
  5
2da
100
AcDbEntity
  8
Capa_2
 62
7
100
AcDbSpline
 70
8
 71
3
 72
8
 73
4
 74
0
 40
0
 40
0
 40
0
 40
0
 40
1
 40
1
 40
1
 40
1
 10
67.438131
 20
258.754569
 30
0.0
 10
67.315801
 20
258.719469
 30
0.0
 10
67.237781
 20
258.711639
 30
0.0
 10
67.014121
 20
258.711639
 30
0.0
  0
SPLINE
  5
2db
100
AcDbEntity
  8
Capa_2
 62
7
100
AcDbSpline
 70
8
 71
3
 72
8
 73
4
 74
0
 40
0
 40
0
 40
0
 40
0
 40
1
 40
1
 40
1
 40
1
 10
67.014121
 20
258.711639
 30
0.0
 10
66.706781
 20
258.711639
 30
0.0
 10
66.537281
 20
258.747589
 30
0.0
 10
66.313221
 20
258.860205
 30
0.0
  0
SPLINE
  5
2dc
100
AcDbEntity
  8
Capa_2
 62
7
100
AcDbSpline
 70
8
 71
3
 72
8
 73
4
 74
0
 40
0
 40
0
 40
0
 40
0
 40
1
 40
1
 40
1
 40
1
 10
66.313221
 20
258.860205
 30
0.0
 10
66.012541
 20
259.011327
 30
0.0
 10
56.073171
 20
264.767543
 30
0.0
 10
55.943601
 20
264.865611
 30
0.0
  0
SPLINE
  5
2dd
100
AcDbEntity
  8
Capa_2
 62
7
100
AcDbSpline
 70
8
 71
3
 72
8
 73
4
 74
0
 40
0
 40
0
 40
0
 40
0
 40
1
 40
1
 40
1
 40
1
 10
55.943601
 20
264.865611
 30
0.0
 10
55.678941
 20
265.065919
 30
0.0
 10
55.453011
 20
265.413090
 30
0.0
 10
55.362201
 20
265.759034
 30
0.0
  0
SPLINE
  5
2de
100
AcDbEntity
  8
Capa_2
 62
7
100
AcDbSpline
 70
8
 71
3
 72
8
 73
4
 74
0
 40
0
 40
0
 40
0
 40
0
 40
1
 40
1
 40
1
 40
1
 10
55.362201
 20
265.759034
 30
0.0
 10
55.307901
 20
265.966277
 30
0.0
 10
55.312301
 20
266.373164
 30
0.0
 10
55.370201
 20
266.580015
 30
0.0
  0
SPLINE
  5
2df
100
AcDbEntity
  8
Capa_2
 62
7
100
AcDbSpline
 70
8
 71
3
 72
8
 73
4
 74
0
 40
0
 40
0
 40
0
 40
0
 40
1
 40
1
 40
1
 40
1
 10
55.370201
 20
266.580015
 30
0.0
 10
55.573271
 20
267.292297
 30
0.0
 10
56.190091
 20
267.768474
 30
0.0
 10
56.949571
 20
267.799278
 30
0.0
  0
SPLINE
  5
2e0
100
AcDbEntity
  8
Capa_2
 62
7
100
AcDbSpline
 70
8
 71
3
 72
8
 73
4
 74
0
 40
0
 40
0
 40
0
 40
0
 40
1
 40
1
 40
1
 40
1
 10
56.949571
 20
267.799278
 30
0.0
 10
57.057241
 20
267.804378
 30
0.0
 10
57.154171
 20
267.799534
 30
0.0
 10
57.164941
 20
267.790778
 30
0.0
  0
LWPOLYLINE
  5
2e1
100
AcDbEntity
  8
Capa_2
 62
7
100
AcDbPolyline
 90
2
 70
0
 10
190.772990
 20
170.387410
 30
0.0
 10
190.772860
 20
170.387330
 30
0.0
  0
SPLINE
  5
2e2
100
AcDbEntity
  8
Capa_2
 62
7
100
AcDbSpline
 70
8
 71
3
 72
8
 73
4
 74
0
 40
0
 40
0
 40
0
 40
0
 40
1
 40
1
 40
1
 40
1
 10
49.657421
 20
267.785058
 30
0.0
 10
49.684321
 20
267.776558
 30
0.0
 10
49.776851
 20
267.750128
 30
0.0
 10
49.862991
 20
267.727468
 30
0.0
  0
SPLINE
  5
2e3
100
AcDbEntity
  8
Capa_2
 62
7
100
AcDbSpline
 70
8
 71
3
 72
8
 73
4
 74
0
 40
0
 40
0
 40
0
 40
0
 40
1
 40
1
 40
1
 40
1
 10
49.862991
 20
267.727468
 30
0.0
 10
50.536271
 20
267.550416
 30
0.0
 10
51.029321
 20
266.944430
 30
0.0
 10
51.062511
 20
266.253189
 30
0.0
  0
SPLINE
  5
2e4
100
AcDbEntity
  8
Capa_2
 62
7
100
AcDbSpline
 70
8
 71
3
 72
8
 73
4
 74
0
 40
0
 40
0
 40
0
 40
0
 40
1
 40
1
 40
1
 40
1
 10
51.062511
 20
266.253189
 30
0.0
 10
51.080011
 20
265.888095
 30
0.0
 10
51.001311
 20
265.574812
 30
0.0
 10
50.818771
 20
265.281735
 30
0.0
  0
SPLINE
  5
2e5
100
AcDbEntity
  8
Capa_2
 62
7
100
AcDbSpline
 70
8
 71
3
 72
8
 73
4
 74
0
 40
0
 40
0
 40
0
 40
0
 40
1
 40
1
 40
1
 40
1
 10
50.818771
 20
265.281735
 30
0.0
 10
50.717571
 20
265.119368
 30
0.0
 10
50.520191
 20
264.908531
 30
0.0
 10
50.381831
 20
264.815030
 30
0.0
  0
SPLINE
  5
2e6
100
AcDbEntity
  8
Capa_2
 62
7
100
AcDbSpline
 70
8
 71
3
 72
8
 73
4
 74
0
 40
0
 40
0
 40
0
 40
0
 40
1
 40
1
 40
1
 40
1
 10
50.381831
 20
264.815030
 30
0.0
 10
50.172101
 20
264.673279
 30
0.0
 10
40.080791
 20
258.857448
 30
0.0
 10
39.965921
 20
258.812128
 30
0.0
  0
SPLINE
  5
2e7
100
AcDbEntity
  8
Capa_2
 62
7
100
AcDbSpline
 70
8
 71
3
 72
8
 73
4
 74
0
 40
0
 40
0
 40
0
 40
0
 40
1
 40
1
 40
1
 40
1
 10
39.965921
 20
258.812128
 30
0.0
 10
39.654431
 20
258.689289
 30
0.0
 10
39.248991
 20
258.668503
 30
0.0
 10
38.928991
 20
258.759138
 30
0.0
  0
SPLINE
  5
2e8
100
AcDbEntity
  8
Capa_2
 62
7
100
AcDbSpline
 70
8
 71
3
 72
8
 73
4
 74
0
 40
0
 40
0
 40
0
 40
0
 40
1
 40
1
 40
1
 40
1
 10
38.928991
 20
258.759138
 30
0.0
 10
38.099301
 20
258.994186
 30
0.0
 10
37.596281
 20
259.822833
 30
0.0
 10
37.770311
 20
260.667871
 30
0.0
  0
SPLINE
  5
2e9
100
AcDbEntity
  8
Capa_2
 62
7
100
AcDbSpline
 70
8
 71
3
 72
8
 73
4
 74
0
 40
0
 40
0
 40
0
 40
0
 40
1
 40
1
 40
1
 40
1
 10
37.770311
 20
260.667871
 30
0.0
 10
37.846511
 20
261.037292
 30
0.0
 10
38.075911
 20
261.408605
 30
0.0
 10
38.360451
 20
261.622646
 30
0.0
  0
SPLINE
  5
2ea
100
AcDbEntity
  8
Capa_2
 62
7
100
AcDbSpline
 70
8
 71
3
 72
8
 73
4
 74
0
 40
0
 40
0
 40
0
 40
0
 40
1
 40
1
 40
1
 40
1
 10
38.360451
 20
261.622646
 30
0.0
 10
38.537691
 20
261.755878
 30
0.0
 10
48.655121
 20
267.599650
 30
0.0
 10
48.832141
 20
267.670934
 30
0.0
  0
SPLINE
  5
2eb
100
AcDbEntity
  8
Capa_2
 62
7
100
AcDbSpline
 70
8
 71
3
 72
8
 73
4
 74
0
 40
0
 40
0
 40
0
 40
0
 40
1
 40
1
 40
1
 40
1
 10
48.832141
 20
267.670934
 30
0.0
 10
48.911141
 20
267.702794
 30
0.0
 10
49.034611
 20
267.742834
 30
0.0
 10
49.106241
 20
267.760044
 30
0.0
  0
SPLINE
  5
2ec
100
AcDbEntity
  8
Capa_2
 62
7
100
AcDbSpline
 70
8
 71
3
 72
8
 73
4
 74
0
 40
0
 40
0
 40
0
 40
0
 40
1
 40
1
 40
1
 40
1
 10
49.106241
 20
267.760044
 30
0.0
 10
49.252591
 20
267.795144
 30
0.0
 10
49.582811
 20
267.809964
 30
0.0
 10
49.657421
 20
267.785084
 30
0.0
  0
LWPOLYLINE
  5
2ed
100
AcDbEntity
  8
Capa_2
 62
7
100
AcDbPolyline
 90
2
 70
0
 10
57.164941
 20
267.790778
 30
0.0
 10
57.165881
 20
267.790158
 30
0.0
  0
SPLINE
  5
2ee
100
AcDbEntity
  8
Capa_2
 62
7
100
AcDbSpline
 70
8
 71
3
 72
8
 73
4
 74
0
 40
0
 40
0
 40
0
 40
0
 40
1
 40
1
 40
1
 40
1
 10
53.412761
 20
265.611275
 30
0.0
 10
54.063351
 20
265.520805
 30
0.0
 10
54.586591
 20
265.063387
 30
0.0
 10
54.772241
 20
264.422832
 30
0.0
  0
LWPOLYLINE
  5
2ef
100
AcDbEntity
  8
Capa_2
 62
7
100
AcDbPolyline
 90
1
 70
1
 10
49.657421
 20
267.785084
 30
0.0
  0
SPLINE
  5
2f0
100
AcDbEntity
  8
Capa_2
 62
7
100
AcDbSpline
 70
8
 71
3
 72
8
 73
4
 74
0
 40
0
 40
0
 40
0
 40
0
 40
1
 40
1
 40
1
 40
1
 10
54.760341
 20
251.886741
 30
0.0
 10
54.658291
 20
251.584174
 30
0.0
 10
54.528971
 20
251.374938
 30
0.0
 10
54.322641
 20
251.178599
 30
0.0
  0
SPLINE
  5
2f1
100
AcDbEntity
  8
Capa_2
 62
7
100
AcDbSpline
 70
8
 71
3
 72
8
 73
4
 74
0
 40
0
 40
0
 40
0
 40
0
 40
1
 40
1
 40
1
 40
1
 10
54.322641
 20
251.178599
 30
0.0
 10
53.701861
 20
250.587964
 30
0.0
 10
52.732981
 20
250.579957
 30
0.0
 10
52.081541
 20
251.160029
 30
0.0
  0
SPLINE
  5
2f2
100
AcDbEntity
  8
Capa_2
 62
7
100
AcDbSpline
 70
8
 71
3
 72
8
 73
4
 74
0
 40
0
 40
0
 40
0
 40
0
 40
1
 40
1
 40
1
 40
1
 10
52.081541
 20
251.160029
 30
0.0
 10
51.883921
 20
251.336026
 30
0.0
 10
51.694861
 20
251.649071
 30
0.0
 10
51.610571
 20
251.939831
 30
0.0
  0
LWPOLYLINE
  5
2f3
100
AcDbEntity
  8
Capa_2
 62
7
100
AcDbPolyline
 90
5
 70
0
 10
54.772241
 20
264.422832
 30
0.0
 10
54.816341
 20
264.270347
 30
0.0
 10
54.816341
 20
258.161780
 30
0.0
 10
54.816341
 20
252.053196
 30
0.0
 10
54.760341
 20
251.886741
 30
0.0
  0
SPLINE
  5
2f4
100
AcDbEntity
  8
Capa_2
 62
7
100
AcDbSpline
 70
8
 71
3
 72
8
 73
4
 74
0
 40
0
 40
0
 40
0
 40
0
 40
1
 40
1
 40
1
 40
1
 10
51.566471
 20
258.171527
 30
0.0
 10
51.566471
 20
263.917198
 30
0.0
 10
51.568471
 20
264.257587
 30
0.0
 10
51.601071
 20
264.375640
 30
0.0
  0
SPLINE
  5
2f5
100
AcDbEntity
  8
Capa_2
 62
7
100
AcDbSpline
 70
8
 71
3
 72
8
 73
4
 74
0
 40
0
 40
0
 40
0
 40
0
 40
1
 40
1
 40
1
 40
1
 10
51.601071
 20
264.375640
 30
0.0
 10
51.686271
 20
264.683829
 30
0.0
 10
51.796011
 20
264.882587
 30
0.0
 10
52.003851
 20
265.104737
 30
0.0
  0
SPLINE
  5
2f6
100
AcDbEntity
  8
Capa_2
 62
7
100
AcDbSpline
 70
8
 71
3
 72
8
 73
4
 74
0
 40
0
 40
0
 40
0
 40
0
 40
1
 40
1
 40
1
 40
1
 10
52.003851
 20
265.104737
 30
0.0
 10
52.303441
 20
265.424972
 30
0.0
 10
52.668241
 20
265.592518
 30
0.0
 10
53.123091
 20
265.618755
 30
0.0
  0
SPLINE
  5
2f7
100
AcDbEntity
  8
Capa_2
 62
7
100
AcDbSpline
 70
8
 71
3
 72
8
 73
4
 74
0
 40
0
 40
0
 40
0
 40
0
 40
1
 40
1
 40
1
 40
1
 10
53.123091
 20
265.618755
 30
0.0
 10
53.214591
 20
265.623855
 30
0.0
 10
53.345071
 20
265.620455
 30
0.0
 10
53.412981
 20
265.611955
 30
0.0
  0
LWPOLYLINE
  5
2f8
100
AcDbEntity
  8
Capa_2
 62
7
100
AcDbPolyline
 90
3
 70
0
 10
51.610571
 20
251.939831
 30
0.0
 10
51.566471
 20
252.092315
 30
0.0
 10
51.566471
 20
258.171527
 30
0.0
  0
SPLINE
  5
2f9
100
AcDbEntity
  8
Capa_2
 62
7
100
AcDbSpline
 70
8
 71
3
 72
8
 73
4
 74
0
 40
0
 40
0
 40
0
 40
0
 40
1
 40
1
 40
1
 40
1
 10
67.248961
 20
257.622581
 30
0.0
 10
67.902601
 20
257.521038
 30
0.0
 10
68.430191
 20
257.048830
 30
0.0
 10
68.604381
 20
256.409519
 30
0.0
  0
SPLINE
  5
2fa
100
AcDbEntity
  8
Capa_2
 62
7
100
AcDbSpline
 70
8
 71
3
 72
8
 73
4
 74
0
 40
0
 40
0
 40
0
 40
0
 40
1
 40
1
 40
1
 40
1
 10
68.604381
 20
256.409519
 30
0.0
 10
68.658081
 20
256.212772
 30
0.0
 10
68.652781
 20
255.764211
 30
0.0
 10
68.594181
 20
255.562046
 30
0.0
  0
SPLINE
  5
2fb
100
AcDbEntity
  8
Capa_2
 62
7
100
AcDbSpline
 70
8
 71
3
 72
8
 73
4
 74
0
 40
0
 40
0
 40
0
 40
0
 40
1
 40
1
 40
1
 40
1
 10
68.594181
 20
255.562046
 30
0.0
 10
68.499981
 20
255.234655
 30
0.0
 10
68.294751
 20
254.922173
 30
0.0
 10
68.047341
 20
254.729156
 30
0.0
  0
SPLINE
  5
2fc
100
AcDbEntity
  8
Capa_2
 62
7
100
AcDbSpline
 70
8
 71
3
 72
8
 73
4
 74
0
 40
0
 40
0
 40
0
 40
0
 40
1
 40
1
 40
1
 40
1
 10
68.047341
 20
254.729156
 30
0.0
 10
67.941871
 20
254.646866
 30
0.0
 10
58.347681
 20
249.097431
 30
0.0
 10
57.733261
 20
248.763311
 30
0.0
  0
SPLINE
  5
2fd
100
AcDbEntity
  8
Capa_2
 62
7
100
AcDbSpline
 70
8
 71
3
 72
8
 73
4
 74
0
 40
0
 40
0
 40
0
 40
0
 40
1
 40
1
 40
1
 40
1
 10
57.733261
 20
248.763311
 30
0.0
 10
57.647061
 20
248.716461
 30
0.0
 10
57.497341
 20
248.654442
 30
0.0
 10
57.400431
 20
248.625479
 30
0.0
  0
SPLINE
  5
2fe
100
AcDbEntity
  8
Capa_2
 62
7
100
AcDbSpline
 70
8
 71
3
 72
8
 73
4
 74
0
 40
0
 40
0
 40
0
 40
0
 40
1
 40
1
 40
1
 40
1
 10
57.400431
 20
248.625479
 30
0.0
 10
57.248971
 20
248.580159
 30
0.0
 10
57.187211
 20
248.572489
 30
0.0
 10
56.959901
 20
248.571129
 30
0.0
  0
SPLINE
  5
2ff
100
AcDbEntity
  8
Capa_2
 62
7
100
AcDbSpline
 70
8
 71
3
 72
8
 73
4
 74
0
 40
0
 40
0
 40
0
 40
0
 40
1
 40
1
 40
1
 40
1
 10
56.959901
 20
248.571129
 30
0.0
 10
56.639951
 20
248.569429
 30
0.0
 10
56.506241
 20
248.599069
 30
0.0
 10
56.225711
 20
248.735028
 30
0.0
  0
SPLINE
  5
300
100
AcDbEntity
  8
Capa_2
 62
7
100
AcDbSpline
 70
8
 71
3
 72
8
 73
4
 74
0
 40
0
 40
0
 40
0
 40
0
 40
1
 40
1
 40
1
 40
1
 10
56.225711
 20
248.735028
 30
0.0
 10
55.893631
 20
248.896032
 30
0.0
 10
55.671231
 20
249.112832
 30
0.0
 10
55.502731
 20
249.439490
 30
0.0
  0
SPLINE
  5
301
100
AcDbEntity
  8
Capa_2
 62
7
100
AcDbSpline
 70
8
 71
3
 72
8
 73
4
 74
0
 40
0
 40
0
 40
0
 40
0
 40
1
 40
1
 40
1
 40
1
 10
55.502731
 20
249.439490
 30
0.0
 10
55.355181
 20
249.725565
 30
0.0
 10
55.325061
 20
249.853277
 30
0.0
 10
55.325181
 20
250.193275
 30
0.0
  0
SPLINE
  5
302
100
AcDbEntity
  8
Capa_2
 62
7
100
AcDbSpline
 70
8
 71
3
 72
8
 73
4
 74
0
 40
0
 40
0
 40
0
 40
0
 40
1
 40
1
 40
1
 40
1
 10
55.325181
 20
250.193275
 30
0.0
 10
55.325251
 20
250.439670
 30
0.0
 10
55.332181
 20
250.511533
 30
0.0
 10
55.369481
 20
250.639655
 30
0.0
  0
SPLINE
  5
303
100
AcDbEntity
  8
Capa_2
 62
7
100
AcDbSpline
 70
8
 71
3
 72
8
 73
4
 74
0
 40
0
 40
0
 40
0
 40
0
 40
1
 40
1
 40
1
 40
1
 10
55.369481
 20
250.639655
 30
0.0
 10
55.473241
 20
250.998257
 30
0.0
 10
55.711501
 20
251.335666
 30
0.0
 10
56.000591
 20
251.533163
 30
0.0
  0
SPLINE
  5
304
100
AcDbEntity
  8
Capa_2
 62
7
100
AcDbSpline
 70
8
 71
3
 72
8
 73
4
 74
0
 40
0
 40
0
 40
0
 40
0
 40
1
 40
1
 40
1
 40
1
 10
56.000591
 20
251.533163
 30
0.0
 10
56.153591
 20
251.637773
 30
0.0
 10
66.257321
 20
257.458629
 30
0.0
 10
66.371251
 20
257.507885
 30
0.0
  0
SPLINE
  5
305
100
AcDbEntity
  8
Capa_2
 62
7
100
AcDbSpline
 70
8
 71
3
 72
8
 73
4
 74
0
 40
0
 40
0
 40
0
 40
0
 40
1
 40
1
 40
1
 40
1
 10
66.371251
 20
257.507885
 30
0.0
 10
66.611781
 20
257.611813
 30
0.0
 10
66.995141
 20
257.662073
 30
0.0
 10
67.248611
 20
257.622546
 30
0.0
  0
LWPOLYLINE
  5
306
100
AcDbEntity
  8
Capa_2
 62
7
100
AcDbPolyline
 90
2
 70
0
 10
53.412981
 20
265.611955
 30
0.0
 10
53.412761
 20
265.611275
 30
0.0
  0
SPLINE
  5
307
100
AcDbEntity
  8
Capa_2
 62
7
100
AcDbSpline
 70
8
 71
3
 72
8
 73
4
 74
0
 40
0
 40
0
 40
0
 40
0
 40
1
 40
1
 40
1
 40
1
 10
39.645981
 20
257.614081
 30
0.0
 10
39.814301
 20
257.583581
 30
0.0
 10
39.962821
 20
257.536391
 30
0.0
 10
40.087361
 20
257.474033
 30
0.0
  0
SPLINE
  5
308
100
AcDbEntity
  8
Capa_2
 62
7
100
AcDbSpline
 70
8
 71
3
 72
8
 73
4
 74
0
 40
0
 40
0
 40
0
 40
0
 40
1
 40
1
 40
1
 40
1
 10
40.087361
 20
257.474033
 30
0.0
 10
40.361031
 20
257.337053
 30
0.0
 10
50.335621
 20
251.571857
 30
0.0
 10
50.453381
 20
251.482649
 30
0.0
  0
SPLINE
  5
309
100
AcDbEntity
  8
Capa_2
 62
7
100
AcDbSpline
 70
8
 71
3
 72
8
 73
4
 74
0
 40
0
 40
0
 40
0
 40
0
 40
1
 40
1
 40
1
 40
1
 10
50.453381
 20
251.482649
 30
0.0
 10
51.047651
 20
251.032436
 30
0.0
 10
51.246511
 20
250.148554
 30
0.0
 10
50.906311
 20
249.469563
 30
0.0
  0
SPLINE
  5
30a
100
AcDbEntity
  8
Capa_2
 62
7
100
AcDbSpline
 70
8
 71
3
 72
8
 73
4
 74
0
 40
0
 40
0
 40
0
 40
0
 40
1
 40
1
 40
1
 40
1
 10
50.906311
 20
249.469563
 30
0.0
 10
50.739341
 20
249.136312
 30
0.0
 10
50.502251
 20
248.903394
 30
0.0
 10
50.149541
 20
248.726086
 30
0.0
  0
SPLINE
  5
30b
100
AcDbEntity
  8
Capa_2
 62
7
100
AcDbSpline
 70
8
 71
3
 72
8
 73
4
 74
0
 40
0
 40
0
 40
0
 40
0
 40
1
 40
1
 40
1
 40
1
 10
50.149541
 20
248.726086
 30
0.0
 10
49.915221
 20
248.608357
 30
0.0
 10
49.748791
 20
248.572068
 30
0.0
 10
49.442051
 20
248.572068
 30
0.0
  0
SPLINE
  5
30c
100
AcDbEntity
  8
Capa_2
 62
7
100
AcDbSpline
 70
8
 71
3
 72
8
 73
4
 74
0
 40
0
 40
0
 40
0
 40
0
 40
1
 40
1
 40
1
 40
1
 10
49.442051
 20
248.572068
 30
0.0
 10
49.135201
 20
248.572068
 30
0.0
 10
48.968681
 20
248.608358
 30
0.0
 10
48.734551
 20
248.726256
 30
0.0
  0
SPLINE
  5
30d
100
AcDbEntity
  8
Capa_2
 62
7
100
AcDbSpline
 70
8
 71
3
 72
8
 73
4
 74
0
 40
0
 40
0
 40
0
 40
0
 40
1
 40
1
 40
1
 40
1
 10
48.734551
 20
248.726256
 30
0.0
 10
48.527971
 20
248.830184
 30
0.0
 10
38.592331
 20
254.554371
 30
0.0
 10
38.435031
 20
254.660036
 30
0.0
  0
SPLINE
  5
30e
100
AcDbEntity
  8
Capa_2
 62
7
100
AcDbSpline
 70
8
 71
3
 72
8
 73
4
 74
0
 40
0
 40
0
 40
0
 40
0
 40
1
 40
1
 40
1
 40
1
 10
38.435031
 20
254.660036
 30
0.0
 10
37.905081
 20
255.015999
 30
0.0
 10
37.637341
 20
255.694393
 30
0.0
 10
37.771081
 20
256.342359
 30
0.0
  0
SPLINE
  5
30f
100
AcDbEntity
  8
Capa_2
 62
7
100
AcDbSpline
 70
8
 71
3
 72
8
 73
4
 74
0
 40
0
 40
0
 40
0
 40
0
 40
1
 40
1
 40
1
 40
1
 10
37.771081
 20
256.342359
 30
0.0
 10
37.837881
 20
256.665643
 30
0.0
 10
37.997221
 20
256.947578
 30
0.0
 10
38.247901
 20
257.185641
 30
0.0
  0
SPLINE
  5
310
100
AcDbEntity
  8
Capa_2
 62
7
100
AcDbSpline
 70
8
 71
3
 72
8
 73
4
 74
0
 40
0
 40
0
 40
0
 40
0
 40
1
 40
1
 40
1
 40
1
 10
38.247901
 20
257.185641
 30
0.0
 10
38.626821
 20
257.545488
 30
0.0
 10
39.146511
 20
257.704754
 30
0.0
 10
39.645981
 20
257.614132
 30
0.0
  0
LWPOLYLINE
  5
311
100
AcDbEntity
  8
Capa_2
 62
7
100
AcDbPolyline
 90
2
 70
0
 10
67.248611
 20
257.622546
 30
0.0
 10
67.248961
 20
257.622581
 30
0.0
  0
SPLINE
  5
312
100
AcDbEntity
  8
Capa_2
 62
7
100
AcDbSpline
 70
8
 71
3
 72
8
 73
4
 74
0
 40
0
 40
0
 40
0
 40
0
 40
1
 40
1
 40
1
 40
1
 10
70.977541
 20
255.469125
 30
0.0
 10
71.629201
 20
255.379335
 30
0.0
 10
72.197891
 20
254.876854
 30
0.0
 10
72.339681
 20
254.265672
 30
0.0
  0
SPLINE
  5
313
100
AcDbEntity
  8
Capa_2
 62
7
100
AcDbSpline
 70
8
 71
3
 72
8
 73
4
 74
0
 40
0
 40
0
 40
0
 40
0
 40
1
 40
1
 40
1
 40
1
 10
72.339681
 20
254.265672
 30
0.0
 10
72.357181
 20
254.190362
 30
0.0
 10
72.379681
 20
254.113358
 30
0.0
 10
72.389781
 20
254.094617
 30
0.0
  0
SPLINE
  5
314
100
AcDbEntity
  8
Capa_2
 62
7
100
AcDbSpline
 70
8
 71
3
 72
8
 73
4
 74
0
 40
0
 40
0
 40
0
 40
0
 40
1
 40
1
 40
1
 40
1
 10
72.389781
 20
254.094617
 30
0.0
 10
72.413281
 20
254.050827
 30
0.0
 10
72.414481
 20
242.031586
 30
0.0
 10
72.390781
 20
241.984614
 30
0.0
  0
SPLINE
  5
315
100
AcDbEntity
  8
Capa_2
 62
7
100
AcDbSpline
 70
8
 71
3
 72
8
 73
4
 74
0
 40
0
 40
0
 40
0
 40
0
 40
1
 40
1
 40
1
 40
1
 10
72.390781
 20
241.984614
 30
0.0
 10
72.382781
 20
241.965874
 30
0.0
 10
72.359381
 20
241.888864
 30
0.0
 10
72.341881
 20
241.813558
 30
0.0
  0
SPLINE
  5
316
100
AcDbEntity
  8
Capa_2
 62
7
100
AcDbSpline
 70
8
 71
3
 72
8
 73
4
 74
0
 40
0
 40
0
 40
0
 40
0
 40
1
 40
1
 40
1
 40
1
 10
72.341881
 20
241.813558
 30
0.0
 10
72.287681
 20
241.580743
 30
0.0
 10
72.136581
 20
241.302335
 30
0.0
 10
71.965391
 20
241.120358
 30
0.0
  0
SPLINE
  5
317
100
AcDbEntity
  8
Capa_2
 62
7
100
AcDbSpline
 70
8
 71
3
 72
8
 73
4
 74
0
 40
0
 40
0
 40
0
 40
0
 40
1
 40
1
 40
1
 40
1
 10
71.965391
 20
241.120358
 30
0.0
 10
71.613341
 20
240.746132
 30
0.0
 10
71.188221
 20
240.571755
 30
0.0
 10
70.685951
 20
240.595539
 30
0.0
  0
SPLINE
  5
318
100
AcDbEntity
  8
Capa_2
 62
7
100
AcDbSpline
 70
8
 71
3
 72
8
 73
4
 74
0
 40
0
 40
0
 40
0
 40
0
 40
1
 40
1
 40
1
 40
1
 10
70.685951
 20
240.595539
 30
0.0
 10
70.414011
 20
240.609169
 30
0.0
 10
70.233651
 20
240.656019
 30
0.0
 10
70.000291
 20
240.776561
 30
0.0
  0
SPLINE
  5
319
100
AcDbEntity
  8
Capa_2
 62
7
100
AcDbSpline
 70
8
 71
3
 72
8
 73
4
 74
0
 40
0
 40
0
 40
0
 40
0
 40
1
 40
1
 40
1
 40
1
 10
70.000291
 20
240.776561
 30
0.0
 10
69.594801
 20
240.986002
 30
0.0
 10
69.297941
 20
241.357979
 30
0.0
 10
69.164881
 20
241.823355
 30
0.0
  0
SPLINE
  5
31a
100
AcDbEntity
  8
Capa_2
 62
7
100
AcDbSpline
 70
8
 71
3
 72
8
 73
4
 74
0
 40
0
 40
0
 40
0
 40
0
 40
1
 40
1
 40
1
 40
1
 10
69.164881
 20
241.823355
 30
0.0
 10
69.129781
 20
241.945854
 30
0.0
 10
69.128281
 20
242.170679
 30
0.0
 10
69.122781
 20
247.931922
 30
0.0
  0
SPLINE
  5
31b
100
AcDbEntity
  8
Capa_2
 62
7
100
AcDbSpline
 70
8
 71
3
 72
8
 73
4
 74
0
 40
0
 40
0
 40
0
 40
0
 40
1
 40
1
 40
1
 40
1
 10
69.122781
 20
247.931922
 30
0.0
 10
69.119781
 20
251.969748
 30
0.0
 10
69.123621
 20
253.963395
 30
0.0
 10
69.136381
 20
254.067561
 30
0.0
  0
SPLINE
  5
31c
100
AcDbEntity
  8
Capa_2
 62
7
100
AcDbSpline
 70
8
 71
3
 72
8
 73
4
 74
0
 40
0
 40
0
 40
0
 40
0
 40
1
 40
1
 40
1
 40
1
 10
69.136381
 20
254.067561
 30
0.0
 10
69.221781
 20
254.718458
 30
0.0
 10
69.709901
 20
255.264864
 30
0.0
 10
70.352201
 20
255.428525
 30
0.0
  0
SPLINE
  5
31d
100
AcDbEntity
  8
Capa_2
 62
7
100
AcDbSpline
 70
8
 71
3
 72
8
 73
4
 74
0
 40
0
 40
0
 40
0
 40
0
 40
1
 40
1
 40
1
 40
1
 10
70.352201
 20
255.428525
 30
0.0
 10
70.533121
 20
255.474695
 30
0.0
 10
70.807201
 20
255.492415
 30
0.0
 10
70.976421
 20
255.469075
 30
0.0
  0
LWPOLYLINE
  5
31e
100
AcDbEntity
  8
Capa_2
 62
7
100
AcDbPolyline
 90
1
 70
1
 10
39.645981
 20
257.614132
 30
0.0
  0
SPLINE
  5
31f
100
AcDbEntity
  8
Capa_2
 62
7
100
AcDbSpline
 70
8
 71
3
 72
8
 73
4
 74
0
 40
0
 40
0
 40
0
 40
0
 40
1
 40
1
 40
1
 40
1
 10
35.785851
 20
255.475925
 30
0.0
 10
36.206721
 20
255.423445
 30
0.0
 10
36.542311
 20
255.256415
 30
0.0
 10
36.816971
 20
254.962827
 30
0.0
  0
SPLINE
  5
320
100
AcDbEntity
  8
Capa_2
 62
7
100
AcDbSpline
 70
8
 71
3
 72
8
 73
4
 74
0
 40
0
 40
0
 40
0
 40
0
 40
1
 40
1
 40
1
 40
1
 10
36.816971
 20
254.962827
 30
0.0
 10
37.024811
 20
254.740676
 30
0.0
 10
37.134601
 20
254.541918
 30
0.0
 10
37.219751
 20
254.233712
 30
0.0
  0
SPLINE
  5
321
100
AcDbEntity
  8
Capa_2
 62
7
100
AcDbSpline
 70
8
 71
3
 72
8
 73
4
 74
0
 40
0
 40
0
 40
0
 40
0
 40
1
 40
1
 40
1
 40
1
 10
37.219751
 20
254.233712
 30
0.0
 10
37.252251
 20
254.115643
 30
0.0
 10
37.254351
 20
253.775270
 30
0.0
 10
37.254351
 20
248.029599
 30
0.0
  0
SPLINE
  5
322
100
AcDbEntity
  8
Capa_2
 62
7
100
AcDbSpline
 70
8
 71
3
 72
8
 73
4
 74
0
 40
0
 40
0
 40
0
 40
0
 40
1
 40
1
 40
1
 40
1
 10
37.254351
 20
248.029599
 30
0.0
 10
37.254351
 20
242.183851
 30
0.0
 10
37.253351
 20
241.945498
 30
0.0
 10
37.218251
 20
241.823170
 30
0.0
  0
SPLINE
  5
323
100
AcDbEntity
  8
Capa_2
 62
7
100
AcDbSpline
 70
8
 71
3
 72
8
 73
4
 74
0
 40
0
 40
0
 40
0
 40
0
 40
1
 40
1
 40
1
 40
1
 10
37.218251
 20
241.823170
 30
0.0
 10
37.054351
 20
241.244648
 30
0.0
 10
36.669831
 20
240.840112
 30
0.0
 10
36.108951
 20
240.655887
 30
0.0
  0
SPLINE
  5
324
100
AcDbEntity
  8
Capa_2
 62
7
100
AcDbSpline
 70
8
 71
3
 72
8
 73
4
 74
0
 40
0
 40
0
 40
0
 40
0
 40
1
 40
1
 40
1
 40
1
 10
36.108951
 20
240.655887
 30
0.0
 10
35.954931
 20
240.605287
 30
0.0
 10
35.919151
 20
240.601197
 30
0.0
 10
35.629261
 20
240.601027
 30
0.0
  0
SPLINE
  5
325
100
AcDbEntity
  8
Capa_2
 62
7
100
AcDbSpline
 70
8
 71
3
 72
8
 73
4
 74
0
 40
0
 40
0
 40
0
 40
0
 40
1
 40
1
 40
1
 40
1
 10
35.629261
 20
240.601027
 30
0.0
 10
35.328891
 20
240.600925
 30
0.0
 10
35.308361
 20
240.602727
 30
0.0
 10
35.130011
 20
240.663387
 30
0.0
  0
SPLINE
  5
326
100
AcDbEntity
  8
Capa_2
 62
7
100
AcDbSpline
 70
8
 71
3
 72
8
 73
4
 74
0
 40
0
 40
0
 40
0
 40
0
 40
1
 40
1
 40
1
 40
1
 10
35.130011
 20
240.663387
 30
0.0
 10
34.638381
 20
240.828309
 30
0.0
 10
34.255961
 20
241.197611
 30
0.0
 10
34.089451
 20
241.668132
 30
0.0
  0
SPLINE
  5
327
100
AcDbEntity
  8
Capa_2
 62
7
100
AcDbSpline
 70
8
 71
3
 72
8
 73
4
 74
0
 40
0
 40
0
 40
0
 40
0
 40
1
 40
1
 40
1
 40
1
 10
34.089451
 20
241.668132
 30
0.0
 10
34.059651
 20
241.752472
 30
0.0
 10
34.029351
 20
241.866192
 30
0.0
 10
34.021951
 20
241.920695
 30
0.0
  0
SPLINE
  5
328
100
AcDbEntity
  8
Capa_2
 62
7
100
AcDbSpline
 70
8
 71
3
 72
8
 73
4
 74
0
 40
0
 40
0
 40
0
 40
0
 40
1
 40
1
 40
1
 40
1
 10
34.021951
 20
241.920695
 30
0.0
 10
34.014951
 20
241.975215
 30
0.0
 10
34.001151
 20
242.024452
 30
0.0
 10
33.991751
 20
242.030245
 30
0.0
  0
SPLINE
  5
329
100
AcDbEntity
  8
Capa_2
 62
7
100
AcDbSpline
 70
8
 71
3
 72
8
 73
4
 74
0
 40
0
 40
0
 40
0
 40
0
 40
1
 40
1
 40
1
 40
1
 10
33.991751
 20
242.030245
 30
0.0
 10
33.968951
 20
242.043875
 30
0.0
 10
33.969451
 20
253.985566
 30
0.0
 10
33.992231
 20
254.044208
 30
0.0
  0
SPLINE
  5
32a
100
AcDbEntity
  8
Capa_2
 62
7
100
AcDbSpline
 70
8
 71
3
 72
8
 73
4
 74
0
 40
0
 40
0
 40
0
 40
0
 40
1
 40
1
 40
1
 40
1
 10
33.992231
 20
254.044208
 30
0.0
 10
34.002431
 20
254.068908
 30
0.0
 10
34.024931
 20
254.158870
 30
0.0
 10
34.043531
 20
254.243886
 30
0.0
  0
SPLINE
  5
32b
100
AcDbEntity
  8
Capa_2
 62
7
100
AcDbSpline
 70
8
 71
3
 72
8
 73
4
 74
0
 40
0
 40
0
 40
0
 40
0
 40
1
 40
1
 40
1
 40
1
 10
34.043531
 20
254.243886
 30
0.0
 10
34.086831
 20
254.441963
 30
0.0
 10
34.235341
 20
254.737051
 30
0.0
 10
34.371861
 20
254.896401
 30
0.0
  0
SPLINE
  5
32c
100
AcDbEntity
  8
Capa_2
 62
7
100
AcDbSpline
 70
8
 71
3
 72
8
 73
4
 74
0
 40
0
 40
0
 40
0
 40
0
 40
1
 40
1
 40
1
 40
1
 10
34.371861
 20
254.896401
 30
0.0
 10
34.563801
 20
255.120426
 30
0.0
 10
34.830041
 20
255.303987
 30
0.0
 10
35.090731
 20
255.392019
 30
0.0
  0
SPLINE
  5
32d
100
AcDbEntity
  8
Capa_2
 62
7
100
AcDbSpline
 70
8
 71
3
 72
8
 73
4
 74
0
 40
0
 40
0
 40
0
 40
0
 40
1
 40
1
 40
1
 40
1
 10
35.090731
 20
255.392019
 30
0.0
 10
35.304371
 20
255.464089
 30
0.0
 10
35.596861
 20
255.499525
 30
0.0
 10
35.785791
 20
255.475839
 30
0.0
  0
LWPOLYLINE
  5
32e
100
AcDbEntity
  8
Capa_2
 62
7
100
AcDbPolyline
 90
2
 70
0
 10
70.976421
 20
255.469075
 30
0.0
 10
70.977541
 20
255.469125
 30
0.0
  0
SPLINE
  5
32f
100
AcDbEntity
  8
Capa_2
 62
7
100
AcDbSpline
 70
8
 71
3
 72
8
 73
4
 74
0
 40
0
 40
0
 40
0
 40
0
 40
1
 40
1
 40
1
 40
1
 10
57.296931
 20
247.469666
 30
0.0
 10
57.369031
 20
247.454336
 30
0.0
 10
57.487951
 20
247.416846
 30
0.0
 10
57.561251
 20
247.386696
 30
0.0
  0
SPLINE
  5
330
100
AcDbEntity
  8
Capa_2
 62
7
100
AcDbSpline
 70
8
 71
3
 72
8
 73
4
 74
0
 40
0
 40
0
 40
0
 40
0
 40
1
 40
1
 40
1
 40
1
 10
57.561251
 20
247.386696
 30
0.0
 10
57.686471
 20
247.335246
 30
0.0
 10
67.774241
 20
241.534456
 30
0.0
 10
67.963591
 20
241.404989
 30
0.0
  0
SPLINE
  5
331
100
AcDbEntity
  8
Capa_2
 62
7
100
AcDbSpline
 70
8
 71
3
 72
8
 73
4
 74
0
 40
0
 40
0
 40
0
 40
0
 40
1
 40
1
 40
1
 40
1
 10
67.963591
 20
241.404989
 30
0.0
 10
68.247861
 20
241.210626
 30
0.0
 10
68.467761
 20
240.906202
 30
0.0
 10
68.580871
 20
240.550462
 30
0.0
  0
SPLINE
  5
332
100
AcDbEntity
  8
Capa_2
 62
7
100
AcDbSpline
 70
8
 71
3
 72
8
 73
4
 74
0
 40
0
 40
0
 40
0
 40
0
 40
1
 40
1
 40
1
 40
1
 10
68.580871
 20
240.550462
 30
0.0
 10
68.650871
 20
240.330185
 30
0.0
 10
68.668771
 20
239.985673
 30
0.0
 10
68.622271
 20
239.755872
 30
0.0
  0
SPLINE
  5
333
100
AcDbEntity
  8
Capa_2
 62
7
100
AcDbSpline
 70
8
 71
3
 72
8
 73
4
 74
0
 40
0
 40
0
 40
0
 40
0
 40
1
 40
1
 40
1
 40
1
 10
68.622271
 20
239.755872
 30
0.0
 10
68.560271
 20
239.449745
 30
0.0
 10
68.419191
 20
239.172887
 30
0.0
 10
68.212881
 20
238.952355
 30
0.0
  0
SPLINE
  5
334
100
AcDbEntity
  8
Capa_2
 62
7
100
AcDbSpline
 70
8
 71
3
 72
8
 73
4
 74
0
 40
0
 40
0
 40
0
 40
0
 40
1
 40
1
 40
1
 40
1
 10
68.212881
 20
238.952355
 30
0.0
 10
68.009971
 20
238.735452
 30
0.0
 10
67.800821
 20
238.604690
 30
0.0
 10
67.493671
 20
238.502756
 30
0.0
  0
SPLINE
  5
335
100
AcDbEntity
  8
Capa_2
 62
7
100
AcDbSpline
 70
8
 71
3
 72
8
 73
4
 74
0
 40
0
 40
0
 40
0
 40
0
 40
1
 40
1
 40
1
 40
1
 10
67.493671
 20
238.502756
 30
0.0
 10
67.339481
 20
238.451646
 30
0.0
 10
67.304131
 20
238.447556
 30
0.0
 10
67.013981
 20
238.446706
 30
0.0
  0
SPLINE
  5
336
100
AcDbEntity
  8
Capa_2
 62
7
100
AcDbSpline
 70
8
 71
3
 72
8
 73
4
 74
0
 40
0
 40
0
 40
0
 40
0
 40
1
 40
1
 40
1
 40
1
 10
67.013981
 20
238.446706
 30
0.0
 10
66.704671
 20
238.445956
 30
0.0
 10
66.698241
 20
238.446808
 30
0.0
 10
66.504941
 20
238.515026
 30
0.0
  0
SPLINE
  5
337
100
AcDbEntity
  8
Capa_2
 62
7
100
AcDbSpline
 70
8
 71
3
 72
8
 73
4
 74
0
 40
0
 40
0
 40
0
 40
0
 40
1
 40
1
 40
1
 40
1
 10
66.504941
 20
238.515026
 30
0.0
 10
66.338991
 20
238.573636
 30
0.0
 10
65.528321
 20
239.034002
 30
0.0
 10
61.179561
 20
241.539827
 30
0.0
  0
SPLINE
  5
338
100
AcDbEntity
  8
Capa_2
 62
7
100
AcDbSpline
 70
8
 71
3
 72
8
 73
4
 74
0
 40
0
 40
0
 40
0
 40
0
 40
1
 40
1
 40
1
 40
1
 10
61.179561
 20
241.539827
 30
0.0
 10
58.358291
 20
243.165483
 30
0.0
 10
55.997091
 20
244.535902
 30
0.0
 10
55.932451
 20
244.585191
 30
0.0
  0
SPLINE
  5
339
100
AcDbEntity
  8
Capa_2
 62
7
100
AcDbSpline
 70
8
 71
3
 72
8
 73
4
 74
0
 40
0
 40
0
 40
0
 40
0
 40
1
 40
1
 40
1
 40
1
 10
55.932451
 20
244.585191
 30
0.0
 10
55.791041
 20
244.693038
 30
0.0
 10
55.610521
 20
244.902649
 30
0.0
 10
55.520701
 20
245.063345
 30
0.0
  0
SPLINE
  5
33a
100
AcDbEntity
  8
Capa_2
 62
7
100
AcDbSpline
 70
8
 71
3
 72
8
 73
4
 74
0
 40
0
 40
0
 40
0
 40
0
 40
1
 40
1
 40
1
 40
1
 10
55.520701
 20
245.063345
 30
0.0
 10
55.484601
 20
245.127915
 30
0.0
 10
55.426801
 20
245.264523
 30
0.0
 10
55.392401
 20
245.366832
 30
0.0
  0
SPLINE
  5
33b
100
AcDbEntity
  8
Capa_2
 62
7
100
AcDbSpline
 70
8
 71
3
 72
8
 73
4
 74
0
 40
0
 40
0
 40
0
 40
0
 40
1
 40
1
 40
1
 40
1
 10
55.392401
 20
245.366832
 30
0.0
 10
55.275361
 20
245.714276
 30
0.0
 10
55.292221
 20
246.150586
 30
0.0
 10
55.436401
 20
246.496922
 30
0.0
  0
SPLINE
  5
33c
100
AcDbEntity
  8
Capa_2
 62
7
100
AcDbSpline
 70
8
 71
3
 72
8
 73
4
 74
0
 40
0
 40
0
 40
0
 40
0
 40
1
 40
1
 40
1
 40
1
 10
55.436401
 20
246.496922
 30
0.0
 10
55.692991
 20
247.113897
 30
0.0
 10
56.281661
 20
247.504206
 30
0.0
 10
56.948271
 20
247.499317
 30
0.0
  0
SPLINE
  5
33d
100
AcDbEntity
  8
Capa_2
 62
7
100
AcDbSpline
 70
8
 71
3
 72
8
 73
4
 74
0
 40
0
 40
0
 40
0
 40
0
 40
1
 40
1
 40
1
 40
1
 10
56.948271
 20
247.499317
 30
0.0
 10
57.068041
 20
247.498448
 30
0.0
 10
57.224991
 20
247.485687
 30
0.0
 10
57.297071
 20
247.469497
 30
0.0
  0
LWPOLYLINE
  5
33e
100
AcDbEntity
  8
Capa_2
 62
7
100
AcDbPolyline
 90
1
 70
1
 10
35.785791
 20
255.475839
 30
0.0
  0
SPLINE
  5
33f
100
AcDbEntity
  8
Capa_2
 62
7
100
AcDbSpline
 70
8
 71
3
 72
8
 73
4
 74
0
 40
0
 40
0
 40
0
 40
0
 40
1
 40
1
 40
1
 40
1
 10
49.784681
 20
247.473066
 30
0.0
 10
50.212631
 20
247.374586
 30
0.0
 10
50.578851
 20
247.122760
 30
0.0
 10
50.810811
 20
246.767429
 30
0.0
  0
SPLINE
  5
340
100
AcDbEntity
  8
Capa_2
 62
7
100
AcDbSpline
 70
8
 71
3
 72
8
 73
4
 74
0
 40
0
 40
0
 40
0
 40
0
 40
1
 40
1
 40
1
 40
1
 10
50.810811
 20
246.767429
 30
0.0
 10
50.987231
 20
246.497182
 30
0.0
 10
51.069871
 20
246.209250
 30
0.0
 10
51.069171
 20
245.867327
 30
0.0
  0
SPLINE
  5
341
100
AcDbEntity
  8
Capa_2
 62
7
100
AcDbSpline
 70
8
 71
3
 72
8
 73
4
 74
0
 40
0
 40
0
 40
0
 40
0
 40
1
 40
1
 40
1
 40
1
 10
51.069171
 20
245.867327
 30
0.0
 10
51.068171
 20
245.346460
 30
0.0
 10
50.842131
 20
244.881731
 30
0.0
 10
50.440571
 20
244.574513
 30
0.0
  0
SPLINE
  5
342
100
AcDbEntity
  8
Capa_2
 62
7
100
AcDbSpline
 70
8
 71
3
 72
8
 73
4
 74
0
 40
0
 40
0
 40
0
 40
0
 40
1
 40
1
 40
1
 40
1
 10
50.440571
 20
244.574513
 30
0.0
 10
50.297121
 20
244.464792
 30
0.0
 10
40.193371
 20
238.642181
 30
0.0
 10
40.005071
 20
238.560742
 30
0.0
  0
SPLINE
  5
343
100
AcDbEntity
  8
Capa_2
 62
7
100
AcDbSpline
 70
8
 71
3
 72
8
 73
4
 74
0
 40
0
 40
0
 40
0
 40
0
 40
1
 40
1
 40
1
 40
1
 10
40.005071
 20
238.560742
 30
0.0
 10
39.626741
 20
238.397183
 30
0.0
 10
39.168421
 20
238.393605
 30
0.0
 10
38.760531
 20
238.550522
 30
0.0
  0
SPLINE
  5
344
100
AcDbEntity
  8
Capa_2
 62
7
100
AcDbSpline
 70
8
 71
3
 72
8
 73
4
 74
0
 40
0
 40
0
 40
0
 40
0
 40
1
 40
1
 40
1
 40
1
 10
38.760531
 20
238.550522
 30
0.0
 10
38.151231
 20
238.786115
 30
0.0
 10
37.734861
 20
239.398729
 30
0.0
 10
37.734531
 20
240.060035
 30
0.0
  0
SPLINE
  5
345
100
AcDbEntity
  8
Capa_2
 62
7
100
AcDbSpline
 70
8
 71
3
 72
8
 73
4
 74
0
 40
0
 40
0
 40
0
 40
0
 40
1
 40
1
 40
1
 40
1
 10
37.734531
 20
240.060035
 30
0.0
 10
37.734301
 20
240.538462
 30
0.0
 10
37.966331
 20
241.038679
 30
0.0
 10
38.320141
 20
241.322573
 30
0.0
  0
SPLINE
  5
346
100
AcDbEntity
  8
Capa_2
 62
7
100
AcDbSpline
 70
8
 71
3
 72
8
 73
4
 74
0
 40
0
 40
0
 40
0
 40
0
 40
1
 40
1
 40
1
 40
1
 10
38.320141
 20
241.322573
 30
0.0
 10
38.390641
 20
241.379303
 30
0.0
 10
38.615961
 20
241.522456
 30
0.0
 10
38.820561
 20
241.640831
 30
0.0
  0
SPLINE
  5
347
100
AcDbEntity
  8
Capa_2
 62
7
100
AcDbSpline
 70
8
 71
3
 72
8
 73
4
 74
0
 40
0
 40
0
 40
0
 40
0
 40
1
 40
1
 40
1
 40
1
 10
38.820561
 20
241.640831
 30
0.0
 10
40.708991
 20
242.733439
 30
0.0
 10
48.636571
 20
247.292745
 30
0.0
 10
48.727431
 20
247.338474
 30
0.0
  0
SPLINE
  5
348
100
AcDbEntity
  8
Capa_2
 62
7
100
AcDbSpline
 70
8
 71
3
 72
8
 73
4
 74
0
 40
0
 40
0
 40
0
 40
0
 40
1
 40
1
 40
1
 40
1
 10
48.727431
 20
247.338474
 30
0.0
 10
48.953631
 20
247.452284
 30
0.0
 10
49.093531
 20
247.484655
 30
0.0
 10
49.393101
 20
247.492321
 30
0.0
  0
SPLINE
  5
349
100
AcDbEntity
  8
Capa_2
 62
7
100
AcDbSpline
 70
8
 71
3
 72
8
 73
4
 74
0
 40
0
 40
0
 40
0
 40
0
 40
1
 40
1
 40
1
 40
1
 10
49.393101
 20
247.492321
 30
0.0
 10
49.579611
 20
247.497421
 30
0.0
 10
49.704751
 20
247.490621
 30
0.0
 10
49.784681
 20
247.472221
 30
0.0
  0
LWPOLYLINE
  5
34a
100
AcDbEntity
  8
Capa_2
 62
7
100
AcDbPolyline
 90
2
 70
0
 10
57.297071
 20
247.469497
 30
0.0
 10
57.296931
 20
247.469666
 30
0.0
  0
SPLINE
  5
34b
100
AcDbEntity
  8
Capa_2
 62
7
100
AcDbSpline
 70
8
 71
3
 72
8
 73
4
 74
0
 40
0
 40
0
 40
0
 40
0
 40
1
 40
1
 40
1
 40
1
 10
53.412761
 20
245.327344
 30
0.0
 10
54.063441
 20
245.236704
 30
0.0
 10
54.586591
 20
244.779439
 30
0.0
 10
54.772241
 20
244.138884
 30
0.0
  0
LWPOLYLINE
  5
34c
100
AcDbEntity
  8
Capa_2
 62
7
100
AcDbPolyline
 90
2
 70
0
 10
49.784681
 20
247.472221
 30
0.0
 10
49.784681
 20
247.473066
 30
0.0
  0
SPLINE
  5
34d
100
AcDbEntity
  8
Capa_2
 62
7
100
AcDbSpline
 70
8
 71
3
 72
8
 73
4
 74
0
 40
0
 40
0
 40
0
 40
0
 40
1
 40
1
 40
1
 40
1
 10
54.760341
 20
231.602776
 30
0.0
 10
54.658291
 20
231.300209
 30
0.0
 10
54.528971
 20
231.090973
 30
0.0
 10
54.322641
 20
230.894634
 30
0.0
  0
SPLINE
  5
34e
100
AcDbEntity
  8
Capa_2
 62
7
100
AcDbSpline
 70
8
 71
3
 72
8
 73
4
 74
0
 40
0
 40
0
 40
0
 40
0
 40
1
 40
1
 40
1
 40
1
 10
54.322641
 20
230.894634
 30
0.0
 10
53.640871
 20
230.245953
 30
0.0
 10
52.532111
 20
230.309741
 30
0.0
 10
51.936411
 20
231.031955
 30
0.0
  0
SPLINE
  5
34f
100
AcDbEntity
  8
Capa_2
 62
7
100
AcDbSpline
 70
8
 71
3
 72
8
 73
4
 74
0
 40
0
 40
0
 40
0
 40
0
 40
1
 40
1
 40
1
 40
1
 10
51.936411
 20
231.031955
 30
0.0
 10
51.805571
 20
231.190573
 30
0.0
 10
51.670651
 20
231.448383
 30
0.0
 10
51.611361
 20
231.653104
 30
0.0
  0
LWPOLYLINE
  5
350
100
AcDbEntity
  8
Capa_2
 62
7
100
AcDbPolyline
 90
5
 70
0
 10
54.772241
 20
244.138884
 30
0.0
 10
54.816341
 20
243.986399
 30
0.0
 10
54.816341
 20
237.877815
 30
0.0
 10
54.816341
 20
231.769231
 30
0.0
 10
54.760341
 20
231.602776
 30
0.0
  0
SPLINE
  5
351
100
AcDbEntity
  8
Capa_2
 62
7
100
AcDbSpline
 70
8
 71
3
 72
8
 73
4
 74
0
 40
0
 40
0
 40
0
 40
0
 40
1
 40
1
 40
1
 40
1
 10
51.566361
 20
237.887527
 30
0.0
 10
51.566361
 20
243.633197
 30
0.0
 10
51.568361
 20
243.973587
 30
0.0
 10
51.600961
 20
244.091639
 30
0.0
  0
SPLINE
  5
352
100
AcDbEntity
  8
Capa_2
 62
7
100
AcDbSpline
 70
8
 71
3
 72
8
 73
4
 74
0
 40
0
 40
0
 40
0
 40
0
 40
1
 40
1
 40
1
 40
1
 10
51.600961
 20
244.091639
 30
0.0
 10
51.686161
 20
244.399846
 30
0.0
 10
51.795901
 20
244.598587
 30
0.0
 10
52.003741
 20
244.820737
 30
0.0
  0
SPLINE
  5
353
100
AcDbEntity
  8
Capa_2
 62
7
100
AcDbSpline
 70
8
 71
3
 72
8
 73
4
 74
0
 40
0
 40
0
 40
0
 40
0
 40
1
 40
1
 40
1
 40
1
 10
52.003741
 20
244.820737
 30
0.0
 10
52.302301
 20
245.139881
 30
0.0
 10
52.670461
 20
245.311346
 30
0.0
 10
53.107151
 20
245.334670
 30
0.0
  0
SPLINE
  5
354
100
AcDbEntity
  8
Capa_2
 62
7
100
AcDbSpline
 70
8
 71
3
 72
8
 73
4
 74
0
 40
0
 40
0
 40
0
 40
0
 40
1
 40
1
 40
1
 40
1
 10
53.107151
 20
245.334670
 30
0.0
 10
53.207331
 20
245.339770
 30
0.0
 10
53.344951
 20
245.336370
 30
0.0
 10
53.412871
 20
245.327870
 30
0.0
  0
LWPOLYLINE
  5
355
100
AcDbEntity
  8
Capa_2
 62
7
100
AcDbPolyline
 90
3
 70
0
 10
51.611361
 20
231.653104
 30
0.0
 10
51.566361
 20
231.808315
 30
0.0
 10
51.566361
 20
237.887527
 30
0.0
  0
SPLINE
  5
356
100
AcDbEntity
  8
Capa_2
 62
7
100
AcDbSpline
 70
8
 71
3
 72
8
 73
4
 74
0
 40
0
 40
0
 40
0
 40
0
 40
1
 40
1
 40
1
 40
1
 10
67.151061
 20
237.365228
 30
0.0
 10
67.877211
 20
237.301848
 30
0.0
 10
68.475361
 20
236.765802
 30
0.0
 10
68.620481
 20
236.048409
 30
0.0
  0
SPLINE
  5
357
100
AcDbEntity
  8
Capa_2
 62
7
100
AcDbSpline
 70
8
 71
3
 72
8
 73
4
 74
0
 40
0
 40
0
 40
0
 40
0
 40
1
 40
1
 40
1
 40
1
 10
68.620481
 20
236.048409
 30
0.0
 10
68.663781
 20
235.834522
 30
0.0
 10
68.650681
 20
235.493808
 30
0.0
 10
68.591381
 20
235.287298
 30
0.0
  0
SPLINE
  5
358
100
AcDbEntity
  8
Capa_2
 62
7
100
AcDbSpline
 70
8
 71
3
 72
8
 73
4
 74
0
 40
0
 40
0
 40
0
 40
0
 40
1
 40
1
 40
1
 40
1
 10
68.591381
 20
235.287298
 30
0.0
 10
68.479281
 20
234.897193
 30
0.0
 10
68.232681
 20
234.566991
 30
0.0
 10
67.895151
 20
234.354740
 30
0.0
  0
SPLINE
  5
359
100
AcDbEntity
  8
Capa_2
 62
7
100
AcDbSpline
 70
8
 71
3
 72
8
 73
4
 74
0
 40
0
 40
0
 40
0
 40
0
 40
1
 40
1
 40
1
 40
1
 10
67.895151
 20
234.354740
 30
0.0
 10
67.819851
 20
234.307380
 30
0.0
 10
65.478881
 20
232.951915
 30
0.0
 10
62.693161
 20
231.342683
 30
0.0
  0
SPLINE
  5
35a
100
AcDbEntity
  8
Capa_2
 62
7
100
AcDbSpline
 70
8
 71
3
 72
8
 73
4
 74
0
 40
0
 40
0
 40
0
 40
0
 40
1
 40
1
 40
1
 40
1
 10
62.693161
 20
231.342683
 30
0.0
 10
58.202741
 20
228.748707
 30
0.0
 10
57.608661
 20
228.410890
 30
0.0
 10
57.455831
 20
228.364616
 30
0.0
  0
SPLINE
  5
35b
100
AcDbEntity
  8
Capa_2
 62
7
100
AcDbSpline
 70
8
 71
3
 72
8
 73
4
 74
0
 40
0
 40
0
 40
0
 40
0
 40
1
 40
1
 40
1
 40
1
 10
57.455831
 20
228.364616
 30
0.0
 10
57.361131
 20
228.335826
 30
0.0
 10
57.256381
 20
228.303796
 30
0.0
 10
57.223311
 20
228.293396
 30
0.0
  0
SPLINE
  5
35c
100
AcDbEntity
  8
Capa_2
 62
7
100
AcDbSpline
 70
8
 71
3
 72
8
 73
4
 74
0
 40
0
 40
0
 40
0
 40
0
 40
1
 40
1
 40
1
 40
1
 10
57.223311
 20
228.293396
 30
0.0
 10
57.149511
 20
228.270056
 30
0.0
 10
56.720841
 20
228.268176
 30
0.0
 10
56.695101
 20
228.291696
 30
0.0
  0
SPLINE
  5
35d
100
AcDbEntity
  8
Capa_2
 62
7
100
AcDbSpline
 70
8
 71
3
 72
8
 73
4
 74
0
 40
0
 40
0
 40
0
 40
0
 40
1
 40
1
 40
1
 40
1
 10
56.695101
 20
228.291696
 30
0.0
 10
56.684901
 20
228.300196
 30
0.0
 10
56.625101
 20
228.319126
 30
0.0
 10
56.562381
 20
228.332586
 30
0.0
  0
SPLINE
  5
35e
100
AcDbEntity
  8
Capa_2
 62
7
100
AcDbSpline
 70
8
 71
3
 72
8
 73
4
 74
0
 40
0
 40
0
 40
0
 40
0
 40
1
 40
1
 40
1
 40
1
 10
56.562381
 20
228.332586
 30
0.0
 10
56.086181
 20
228.434470
 30
0.0
 10
55.629211
 20
228.824830
 30
0.0
 10
55.441231
 20
229.290206
 30
0.0
  0
SPLINE
  5
35f
100
AcDbEntity
  8
Capa_2
 62
7
100
AcDbSpline
 70
8
 71
3
 72
8
 73
4
 74
0
 40
0
 40
0
 40
0
 40
0
 40
1
 40
1
 40
1
 40
1
 10
55.441231
 20
229.290206
 30
0.0
 10
55.348231
 20
229.520705
 30
0.0
 10
55.326231
 20
229.640734
 30
0.0
 10
55.326231
 20
229.919823
 30
0.0
  0
SPLINE
  5
360
100
AcDbEntity
  8
Capa_2
 62
7
100
AcDbSpline
 70
8
 71
3
 72
8
 73
4
 74
0
 40
0
 40
0
 40
0
 40
0
 40
1
 40
1
 40
1
 40
1
 10
55.326231
 20
229.919823
 30
0.0
 10
55.326231
 20
230.264353
 30
0.0
 10
55.388731
 20
230.499401
 30
0.0
 10
55.553611
 20
230.774589
 30
0.0
  0
SPLINE
  5
361
100
AcDbEntity
  8
Capa_2
 62
7
100
AcDbSpline
 70
8
 71
3
 72
8
 73
4
 74
0
 40
0
 40
0
 40
0
 40
0
 40
1
 40
1
 40
1
 40
1
 10
55.553611
 20
230.774589
 30
0.0
 10
55.633211
 20
230.907480
 30
0.0
 10
55.852261
 20
231.146770
 30
0.0
 10
55.977791
 20
231.237971
 30
0.0
  0
SPLINE
  5
362
100
AcDbEntity
  8
Capa_2
 62
7
100
AcDbSpline
 70
8
 71
3
 72
8
 73
4
 74
0
 40
0
 40
0
 40
0
 40
0
 40
1
 40
1
 40
1
 40
1
 10
55.977791
 20
231.237971
 30
0.0
 10
56.099611
 20
231.326391
 30
0.0
 10
66.152401
 20
237.131970
 30
0.0
 10
66.328891
 20
237.215760
 30
0.0
  0
SPLINE
  5
363
100
AcDbEntity
  8
Capa_2
 62
7
100
AcDbSpline
 70
8
 71
3
 72
8
 73
4
 74
0
 40
0
 40
0
 40
0
 40
0
 40
1
 40
1
 40
1
 40
1
 10
66.328891
 20
237.215760
 30
0.0
 10
66.562281
 20
237.326503
 30
0.0
 10
66.898631
 20
237.387990
 30
0.0
 10
67.151201
 20
237.366029
 30
0.0
  0
LWPOLYLINE
  5
364
100
AcDbEntity
  8
Capa_2
 62
7
100
AcDbPolyline
 90
2
 70
0
 10
53.412871
 20
245.327870
 30
0.0
 10
53.412761
 20
245.327344
 30
0.0
  0
SPLINE
  5
365
100
AcDbEntity
  8
Capa_2
 62
7
100
AcDbSpline
 70
8
 71
3
 72
8
 73
4
 74
0
 40
0
 40
0
 40
0
 40
0
 40
1
 40
1
 40
1
 40
1
 10
39.505811
 20
237.365211
 30
0.0
 10
39.640061
 20
237.353281
 30
0.0
 10
39.862441
 20
237.299791
 30
0.0
 10
39.988031
 20
237.248846
 30
0.0
  0
SPLINE
  5
366
100
AcDbEntity
  8
Capa_2
 62
7
100
AcDbSpline
 70
8
 71
3
 72
8
 73
4
 74
0
 40
0
 40
0
 40
0
 40
0
 40
1
 40
1
 40
1
 40
1
 10
39.988031
 20
237.248846
 30
0.0
 10
40.131661
 20
237.190406
 30
0.0
 10
50.269761
 20
231.337385
 30
0.0
 10
50.411201
 20
231.231156
 30
0.0
  0
SPLINE
  5
367
100
AcDbEntity
  8
Capa_2
 62
7
100
AcDbSpline
 70
8
 71
3
 72
8
 73
4
 74
0
 40
0
 40
0
 40
0
 40
0
 40
1
 40
1
 40
1
 40
1
 10
50.411201
 20
231.231156
 30
0.0
 10
50.704671
 20
231.010778
 30
0.0
 10
50.909831
 20
230.712232
 30
0.0
 10
51.013031
 20
230.355469
 30
0.0
  0
SPLINE
  5
368
100
AcDbEntity
  8
Capa_2
 62
7
100
AcDbSpline
 70
8
 71
3
 72
8
 73
4
 74
0
 40
0
 40
0
 40
0
 40
0
 40
1
 40
1
 40
1
 40
1
 10
51.013031
 20
230.355469
 30
0.0
 10
51.050031
 20
230.227689
 30
0.0
 10
51.057131
 20
230.155620
 30
0.0
 10
51.057131
 20
229.909362
 30
0.0
  0
SPLINE
  5
369
100
AcDbEntity
  8
Capa_2
 62
7
100
AcDbSpline
 70
8
 71
3
 72
8
 73
4
 74
0
 40
0
 40
0
 40
0
 40
0
 40
1
 40
1
 40
1
 40
1
 10
51.057131
 20
229.909362
 30
0.0
 10
51.057131
 20
229.655846
 30
0.0
 10
51.050131
 20
229.595704
 30
0.0
 10
51.011431
 20
229.469678
 30
0.0
  0
SPLINE
  5
36a
100
AcDbEntity
  8
Capa_2
 62
7
100
AcDbSpline
 70
8
 71
3
 72
8
 73
4
 74
0
 40
0
 40
0
 40
0
 40
0
 40
1
 40
1
 40
1
 40
1
 10
51.011431
 20
229.469678
 30
0.0
 10
50.851111
 20
228.959051
 30
0.0
 10
50.500661
 20
228.574926
 30
0.0
 10
50.029431
 20
228.393188
 30
0.0
  0
SPLINE
  5
36b
100
AcDbEntity
  8
Capa_2
 62
7
100
AcDbSpline
 70
8
 71
3
 72
8
 73
4
 74
0
 40
0
 40
0
 40
0
 40
0
 40
1
 40
1
 40
1
 40
1
 10
50.029431
 20
228.393188
 30
0.0
 10
49.945631
 20
228.360818
 30
0.0
 10
49.840591
 20
228.328618
 30
0.0
 10
49.796101
 20
228.321458
 30
0.0
  0
SPLINE
  5
36c
100
AcDbEntity
  8
Capa_2
 62
7
100
AcDbSpline
 70
8
 71
3
 72
8
 73
4
 74
0
 40
0
 40
0
 40
0
 40
0
 40
1
 40
1
 40
1
 40
1
 10
49.796101
 20
228.321458
 30
0.0
 10
49.751601
 20
228.314658
 30
0.0
 10
49.710601
 20
228.300838
 30
0.0
 10
49.704801
 20
228.291468
 30
0.0
  0
SPLINE
  5
36d
100
AcDbEntity
  8
Capa_2
 62
7
100
AcDbSpline
 70
8
 71
3
 72
8
 73
4
 74
0
 40
0
 40
0
 40
0
 40
0
 40
1
 40
1
 40
1
 40
1
 10
49.704801
 20
228.291468
 30
0.0
 10
49.691201
 20
228.268808
 30
0.0
 10
49.215901
 20
228.269488
 30
0.0
 10
49.172601
 20
228.292388
 30
0.0
  0
SPLINE
  5
36e
100
AcDbEntity
  8
Capa_2
 62
7
100
AcDbSpline
 70
8
 71
3
 72
8
 73
4
 74
0
 40
0
 40
0
 40
0
 40
0
 40
1
 40
1
 40
1
 40
1
 10
49.172601
 20
228.292388
 30
0.0
 10
49.153901
 20
228.302608
 30
0.0
 10
49.078901
 20
228.325268
 30
0.0
 10
49.005981
 20
228.343668
 30
0.0
  0
SPLINE
  5
36f
100
AcDbEntity
  8
Capa_2
 62
7
100
AcDbSpline
 70
8
 71
3
 72
8
 73
4
 74
0
 40
0
 40
0
 40
0
 40
0
 40
1
 40
1
 40
1
 40
1
 10
49.005981
 20
228.343668
 30
0.0
 10
48.933081
 20
228.362068
 30
0.0
 10
48.814101
 20
228.405518
 30
0.0
 10
48.741681
 20
228.440438
 30
0.0
  0
SPLINE
  5
370
100
AcDbEntity
  8
Capa_2
 62
7
100
AcDbSpline
 70
8
 71
3
 72
8
 73
4
 74
0
 40
0
 40
0
 40
0
 40
0
 40
1
 40
1
 40
1
 40
1
 10
48.741681
 20
228.440438
 30
0.0
 10
48.580501
 20
228.517968
 30
0.0
 10
38.571071
 20
234.299600
 30
0.0
 10
38.417871
 20
234.403647
 30
0.0
  0
SPLINE
  5
371
100
AcDbEntity
  8
Capa_2
 62
7
100
AcDbSpline
 70
8
 71
3
 72
8
 73
4
 74
0
 40
0
 40
0
 40
0
 40
0
 40
1
 40
1
 40
1
 40
1
 10
38.417871
 20
234.403647
 30
0.0
 10
38.196201
 20
234.554087
 30
0.0
 10
37.963941
 20
234.845631
 30
0.0
 10
37.859381
 20
235.104480
 30
0.0
  0
SPLINE
  5
372
100
AcDbEntity
  8
Capa_2
 62
7
100
AcDbSpline
 70
8
 71
3
 72
8
 73
4
 74
0
 40
0
 40
0
 40
0
 40
0
 40
1
 40
1
 40
1
 40
1
 10
37.859381
 20
235.104480
 30
0.0
 10
37.766381
 20
235.334979
 30
0.0
 10
37.744381
 20
235.455007
 30
0.0
 10
37.744381
 20
235.734096
 30
0.0
  0
SPLINE
  5
373
100
AcDbEntity
  8
Capa_2
 62
7
100
AcDbSpline
 70
8
 71
3
 72
8
 73
4
 74
0
 40
0
 40
0
 40
0
 40
0
 40
1
 40
1
 40
1
 40
1
 10
37.744381
 20
235.734096
 30
0.0
 10
37.744381
 20
236.013186
 30
0.0
 10
37.766381
 20
236.133214
 30
0.0
 10
37.859381
 20
236.363713
 30
0.0
  0
SPLINE
  5
374
100
AcDbEntity
  8
Capa_2
 62
7
100
AcDbSpline
 70
8
 71
3
 72
8
 73
4
 74
0
 40
0
 40
0
 40
0
 40
0
 40
1
 40
1
 40
1
 40
1
 10
37.859381
 20
236.363713
 30
0.0
 10
38.035651
 20
236.800074
 30
0.0
 10
38.435741
 20
237.159580
 30
0.0
 10
38.899571
 20
237.298367
 30
0.0
  0
SPLINE
  5
375
100
AcDbEntity
  8
Capa_2
 62
7
100
AcDbSpline
 70
8
 71
3
 72
8
 73
4
 74
0
 40
0
 40
0
 40
0
 40
0
 40
1
 40
1
 40
1
 40
1
 10
38.899571
 20
237.298367
 30
0.0
 10
39.018151
 20
237.333807
 30
0.0
 10
39.351551
 20
237.384237
 30
0.0
 10
39.407931
 20
237.375207
 30
0.0
  0
SPLINE
  5
376
100
AcDbEntity
  8
Capa_2
 62
7
100
AcDbSpline
 70
8
 71
3
 72
8
 73
4
 74
0
 40
0
 40
0
 40
0
 40
0
 40
1
 40
1
 40
1
 40
1
 10
39.407931
 20
237.375207
 30
0.0
 10
39.418131
 20
237.373507
 30
0.0
 10
39.462831
 20
237.368407
 30
0.0
 10
39.505931
 20
237.364987
 30
0.0
  0
LWPOLYLINE
  5
377
100
AcDbEntity
  8
Capa_2
 62
7
100
AcDbPolyline
 90
2
 70
0
 10
67.151201
 20
237.366029
 30
0.0
 10
67.151061
 20
237.365228
 30
0.0
  0
LWPOLYLINE
  5
378
100
AcDbEntity
  8
Capa_2
 62
7
100
AcDbPolyline
 90
2
 70
0
 10
39.505931
 20
237.364987
 30
0.0
 10
39.505811
 20
237.365211
 30
0.0
  0
ENDSEC
  0
SECTION
  2
OBJECTS
  0
DICTIONARY
  5
C
330
0
100
AcDbDictionary
  3
ACAD_GROUP
350
D
  3
ACAD_MLINESTYLE
350
17
  0
DICTIONARY
  5
D
330
C
100
AcDbDictionary
  0
DICTIONARY
  5
1A
330
C
100
AcDbDictionary
  0
DICTIONARY
  5
17
330
C
100
AcDbDictionary
  3
STANDARD
350
18
  0
DICTIONARY
  5
19
330
C
100
AcDbDictionary
  0
ENDSEC
  0
EOF
