<?xml version="1.0" encoding="UTF-8" standalone="no"?>
<!-- Created with Inkscape (http://www.inkscape.org/) -->

<svg
   width="210mm"
   height="297mm"
   viewBox="0 0 210 297"
   version="1.1"
   id="svg5"
   xml:space="preserve"
   xmlns:inkscape="http://www.inkscape.org/namespaces/inkscape"
   xmlns:sodipodi="http://sodipodi.sourceforge.net/DTD/sodipodi-0.dtd"
   xmlns="http://www.w3.org/2000/svg"
   xmlns:svg="http://www.w3.org/2000/svg"><sodipodi:namedview
     id="namedview7"
     pagecolor="#ffffff"
     bordercolor="#000000"
     borderopacity="0.25"
     inkscape:showpageshadow="2"
     inkscape:pageopacity="0.0"
     inkscape:pagecheckerboard="0"
     inkscape:deskcolor="#d1d1d1"
     inkscape:document-units="mm"
     showgrid="false" /><defs
     id="defs2" /><g
     inkscape:label="Capa 1"
     inkscape:groupmode="layer"
     id="layer1"><path
       style="fill:#d0d0d0;fill-opacity:1;stroke-width:0.0678121"
       d="m 72.615392,86.466726 c 0.04662,-0.01881 0.122909,-0.01881 0.16953,0 0.04662,0.01881 0.0085,0.0342 -0.08477,0.0342 -0.09324,0 -0.131386,-0.01539 -0.08476,-0.0342 z m 2.102175,0 c 0.04662,-0.01881 0.122909,-0.01881 0.16953,0 0.04662,0.01881 0.0085,0.0342 -0.08477,0.0342 -0.09324,0 -0.131386,-0.01539 -0.08477,-0.0342 z M 105.9723,86.325153 c -0.0174,-0.02797 0.36989,-0.04292 0.8606,-0.03322 1.67114,0.03304 1.84374,0.05711 0.50628,0.0706 -0.7344,0.0074 -1.3495,-0.0094 -1.36688,-0.03738 z m 66.45586,0 c -0.0174,-0.02797 0.36989,-0.04292 0.8606,-0.03322 1.67114,0.03304 1.84373,0.05711 0.50628,0.0706 -0.7344,0.0074 -1.34951,-0.0094 -1.36688,-0.03738 z M 48.660089,72.813592 c 0,-7.2542 0.0079,-10.221827 0.01763,-6.594727 0.0097,3.6271 0.0097,9.562354 0,13.189454 -0.0097,3.6271 -0.01763,0.659473 -0.01763,-6.594727 z m 80.832141,-3.085451 c 1e-5,-8.951197 0.008,-12.602972 0.0175,-8.115056 0.01,4.487917 0.01,11.811624 0,16.274905 -0.01,4.46328 -0.0175,0.791349 -0.0175,-8.159849 z m -19.08855,15.732408 c 0.0876,-0.09324 0.17452,-0.16953 0.19317,-0.16953 0.0187,0 -0.0378,0.07629 -0.12536,0.16953 -0.0876,0.09324 -0.17452,0.16953 -0.19317,0.16953 -0.0187,0 0.0378,-0.07629 0.12536,-0.16953 z m 42.80351,-2.457964 -0.0141,-0.69485 -9.98534,-0.0174 -9.98533,-0.0174 9.98746,-0.01673 c 8.24067,-0.0138 9.99349,-10e-4 10.02194,0.07312 0.019,0.04942 0.0243,0.37746 0.0119,0.728981 l -0.0225,0.639127 z M 73.395231,82.664314 c 0.177159,-0.01397 0.467056,-0.01397 0.644215,0 0.177159,0.01397 0.03221,0.0254 -0.322107,0.0254 -0.354319,0 -0.499267,-0.01143 -0.322108,-0.0254 z m -8.733998,-3.764586 -0.268058,-0.288201 0.288201,0.268058 c 0.158511,0.147431 0.288202,0.277122 0.288202,0.288201 0,0.0513 -0.05905,-3.3e-5 -0.308345,-0.268058 z M 34.309858,74.118975 c -0.08435,-0.107554 -0.08195,-0.109953 0.0256,-0.0256 0.06527,0.05119 0.118672,0.10459 0.118672,0.118671 0,0.05581 -0.05569,0.01989 -0.144275,-0.09307 z m 1.12755,-0.491638 c 0.06751,-0.07459 0.137996,-0.135624 0.156645,-0.135624 0.01865,0 -0.02133,0.06103 -0.08883,0.135624 -0.06751,0.07459 -0.137996,0.135624 -0.156644,0.135624 -0.01865,0 0.02133,-0.06103 0.08883,-0.135624 z m -2.009107,-0.457731 c -0.08435,-0.107555 -0.08195,-0.109953 0.0256,-0.0256 0.112958,0.08859 0.14888,0.144275 0.09307,0.144275 -0.01408,0 -0.06748,-0.0534 -0.118671,-0.118671 z m 3.128007,-0.728981 c 0.0876,-0.09324 0.174523,-0.16953 0.193171,-0.16953 0.01865,0 -0.03776,0.07629 -0.125359,0.16953 -0.0876,0.09324 -0.174523,0.169531 -0.193172,0.169531 -0.01865,0 0.03776,-0.07629 0.12536,-0.169531 z m -4.009564,-0.220389 c -0.08435,-0.107554 -0.08195,-0.109952 0.0256,-0.0256 0.112958,0.08859 0.14888,0.144274 0.09307,0.144274 -0.01408,0 -0.06748,-0.0534 -0.118671,-0.118671 z m -0.881558,-0.949369 c -0.08435,-0.107554 -0.08195,-0.109953 0.0256,-0.0256 0.112958,0.08859 0.148881,0.144274 0.09307,0.144274 -0.01408,0 -0.06748,-0.0534 -0.118672,-0.118671 z m 6.010021,-0.01695 c 0.06751,-0.07459 0.137997,-0.135625 0.156645,-0.135625 0.01865,0 -0.02133,0.06103 -0.08883,0.135625 -0.06751,0.07459 -0.137996,0.135624 -0.156644,0.135624 -0.01865,0 0.02133,-0.06103 0.08883,-0.135624 z m 19.433521,0.02825 c 0.0033,-0.079 0.01932,-0.09507 0.04097,-0.04097 0.01959,0.04895 0.01718,0.10744 -0.0053,0.129973 -0.02253,0.02253 -0.03856,-0.01752 -0.03562,-0.089 z m 3.797477,-0.542497 c 0.0033,-0.079 0.01932,-0.09507 0.04097,-0.04097 0.01959,0.04895 0.01718,0.10744 -0.0054,0.129973 -0.02253,0.02253 -0.03856,-0.01752 -0.03562,-0.089 z m 29.508643,-0.231691 c 0,-0.130539 0.01395,-0.183941 0.03101,-0.118672 0.01706,0.06527 0.01706,0.172074 0,0.237343 -0.01706,0.06527 -0.03101,0.01187 -0.03101,-0.118671 z m -3.86529,-0.203437 c 0,-0.130538 0.01396,-0.18394 0.03101,-0.118671 0.01706,0.06527 0.01706,0.172073 0,0.237342 -0.01705,0.06527 -0.03101,0.01187 -0.03101,-0.118671 z m -55.765929,0.01695 c -0.08435,-0.107554 -0.08195,-0.109952 0.0256,-0.0256 0.06527,0.05119 0.118671,0.10459 0.118671,0.118671 0,0.05581 -0.05569,0.01989 -0.144274,-0.09307 z m 8.044384,-0.288201 c 0.06751,-0.07459 0.137996,-0.135624 0.156645,-0.135624 0.01865,0 -0.02133,0.06103 -0.08883,0.135624 -0.06751,0.07459 -0.137996,0.135624 -0.156644,0.135624 -0.01865,0 0.02133,-0.06103 0.08883,-0.135624 z m -8.925941,-0.661168 c -0.08435,-0.107554 -0.08195,-0.109953 0.0256,-0.0256 0.06527,0.05119 0.118671,0.10459 0.118671,0.118671 0,0.05581 -0.05569,0.01989 -0.144274,-0.09307 z m 56.647486,-0.08477 c 0,-0.130539 0.01396,-0.183941 0.03101,-0.118671 0.01706,0.06527 0.01706,0.172073 0,0.237342 -0.01705,0.06527 -0.03101,0.01187 -0.03101,-0.118671 z m 3.86529,-0.203437 c 0,-0.130538 0.01395,-0.18394 0.03101,-0.118671 0.01706,0.06527 0.01706,0.172073 0,0.237343 -0.01706,0.06527 -0.03101,0.01187 -0.03101,-0.118672 z M 39.913007,68.88049 c 0.06751,-0.07459 0.137996,-0.135624 0.156644,-0.135624 0.01865,0 -0.02133,0.06103 -0.08883,0.135624 -0.06751,0.07459 -0.137997,0.135624 -0.156645,0.135624 -0.01865,0 0.02133,-0.06103 0.08883,-0.135624 z m 20.993198,-0.03956 c 0.0033,-0.079 0.01932,-0.09507 0.04097,-0.04097 0.01959,0.04895 0.01718,0.10744 -0.0054,0.129974 -0.02253,0.02253 -0.03856,-0.01752 -0.03562,-0.089 z M 29.020514,68.422758 c -0.08435,-0.107554 -0.08195,-0.109952 0.0256,-0.0256 0.112958,0.08859 0.14888,0.144275 0.09307,0.144275 -0.01408,0 -0.06748,-0.0534 -0.118672,-0.118672 z m 5.461082,-0.440778 -0.129182,-0.152577 0.152578,0.129181 c 0.143384,0.121398 0.183448,0.175973 0.129181,0.175973 -0.01287,0 -0.08153,-0.06866 -0.152577,-0.152577 z m 0.413315,0.01695 c 0.06751,-0.07459 0.137996,-0.135624 0.156645,-0.135624 0.01865,0 -0.02133,0.06103 -0.08883,0.135624 -0.06751,0.07459 -0.137996,0.135624 -0.156644,0.135624 -0.01865,0 0.02133,-0.06103 0.08883,-0.135624 z m 6.170901,-0.339061 c 0.06751,-0.07459 0.137997,-0.135624 0.156645,-0.135624 0.01865,0 -0.02133,0.06103 -0.08883,0.135624 -0.06751,0.07459 -0.137996,0.135624 -0.156644,0.135624 -0.01865,0 0.02133,-0.06103 0.08883,-0.135624 z m -12.926855,-0.18648 c -0.08435,-0.107554 -0.08195,-0.109953 0.0256,-0.0256 0.06527,0.05119 0.118671,0.10459 0.118671,0.118671 0,0.05581 -0.05569,0.01989 -0.144274,-0.09307 z m 5.325457,-0.576403 -0.129181,-0.152577 0.152577,0.129181 c 0.08392,0.07105 0.152577,0.139709 0.152577,0.152577 0,0.05427 -0.05457,0.0142 -0.175973,-0.129181 z m 2.515491,-0.05086 c 0.06751,-0.07459 0.137996,-0.135624 0.156644,-0.135624 0.01865,0 -0.02133,0.06103 -0.08883,0.135624 -0.06751,0.07459 -0.137996,0.135624 -0.156645,0.135624 -0.01865,0 0.02133,-0.06103 0.08883,-0.135624 z M 27.2574,66.524019 c -0.08435,-0.107555 -0.08195,-0.109953 0.0256,-0.0256 0.112958,0.08859 0.14888,0.144275 0.09307,0.144275 -0.01408,0 -0.06748,-0.0534 -0.118671,-0.118671 z m 14.961218,-0.08477 c 0.06751,-0.07459 0.137996,-0.135624 0.156645,-0.135624 0.01865,0 -0.02133,0.06103 -0.08883,0.135624 -0.06751,0.07459 -0.137996,0.135625 -0.156644,0.135625 -0.01865,0 0.02133,-0.06103 0.08883,-0.135625 z m -9.771385,-0.627262 -0.129182,-0.152577 0.152578,0.129182 c 0.08392,0.07105 0.152577,0.139709 0.152577,0.152577 0,0.05427 -0.05458,0.0142 -0.175973,-0.129182 z m 4.651571,-0.152577 c 0.0876,-0.09324 0.174524,-0.16953 0.193172,-0.16953 0.01865,0 -0.03776,0.07629 -0.125359,0.16953 -0.0876,0.09324 -0.174524,0.169531 -0.193172,0.169531 -0.01865,0 0.03776,-0.07629 0.125359,-0.169531 z m -10.75466,-0.118671 -0.129182,-0.152577 0.152578,0.129181 c 0.143384,0.121399 0.183448,0.175973 0.129181,0.175973 -0.01287,0 -0.08153,-0.06866 -0.152577,-0.152577 z m 16.959468,-0.254295 c 0.06751,-0.07459 0.137996,-0.135625 0.156644,-0.135625 0.01865,0 -0.02133,0.06103 -0.08883,0.135625 -0.06751,0.07459 -0.137997,0.135624 -0.156645,0.135624 -0.01865,0 0.02133,-0.06103 0.08883,-0.135624 z m -11.873561,-0.55945 -0.129181,-0.152577 0.152577,0.129181 c 0.08392,0.07105 0.152577,0.139709 0.152577,0.152577 0,0.05427 -0.05457,0.0142 -0.175973,-0.129181 z m -5.967465,-0.135624 -0.129181,-0.152578 0.152577,0.129182 c 0.08392,0.07105 0.152578,0.139709 0.152578,0.152577 0,0.05427 -0.05457,0.0142 -0.175974,-0.129181 z m 12.755118,-0.118667 c 0.06751,-0.07459 0.137996,-0.135624 0.156645,-0.135624 0.01865,0 -0.02133,0.06103 -0.08883,0.135624 -0.06751,0.07459 -0.137996,0.135625 -0.156644,0.135625 -0.01865,0 0.02133,-0.06103 0.08883,-0.135625 z m 6.238713,-0.406872 c 0.06751,-0.07459 0.137997,-0.135624 0.156645,-0.135624 0.01865,0 -0.02133,0.06103 -0.08883,0.135624 -0.06751,0.07459 -0.137996,0.135624 -0.156644,0.135624 -0.01865,0 0.02133,-0.06103 0.08883,-0.135624 z m -19.875388,-0.423826 -0.129181,-0.152577 0.152577,0.129181 c 0.143385,0.121399 0.183448,0.175973 0.129181,0.175973 -0.01287,0 -0.08153,-0.06866 -0.152577,-0.152577 z m 5.831841,0 -0.129182,-0.152577 0.152578,0.129181 c 0.143384,0.121399 0.183448,0.175973 0.129181,0.175973 -0.01287,0 -0.08153,-0.06866 -0.152577,-0.152577 z m 8.889828,-0.322107 c 0.06751,-0.07459 0.137996,-0.135624 0.156644,-0.135624 0.01865,0 -0.02133,0.06103 -0.08883,0.135624 -0.06751,0.07459 -0.137996,0.135624 -0.156645,0.135624 -0.01865,0 0.02133,-0.06103 0.08883,-0.135624 z m 6.272619,-0.440779 c 0.0876,-0.09324 0.174523,-0.16953 0.193172,-0.16953 0.01865,0 -0.03776,0.07629 -0.12536,0.16953 -0.0876,0.09324 -0.174523,0.16953 -0.193172,0.16953 -0.01865,0 0.03776,-0.07629 0.12536,-0.16953 z M 23.663359,62.65873 c -0.08435,-0.107554 -0.08195,-0.109953 0.0256,-0.0256 0.06527,0.05119 0.118671,0.10459 0.118671,0.118671 0,0.05581 -0.05569,0.01989 -0.144274,-0.09307 z m 5.732329,-0.101718 -0.129181,-0.152578 0.152577,0.129182 c 0.143385,0.121398 0.183448,0.175973 0.129181,0.175973 -0.01287,0 -0.08153,-0.06866 -0.152577,-0.152577 z M 40.455503,62.09928 c 0.06751,-0.07459 0.137997,-0.135624 0.156645,-0.135624 0.01865,0 -0.02133,0.06103 -0.08883,0.135624 -0.06751,0.07459 -0.137997,0.135624 -0.156645,0.135624 -0.01865,0 0.02133,-0.06103 0.08883,-0.135624 z M 22.781801,61.70936 c -0.08435,-0.107554 -0.08195,-0.109952 0.0256,-0.0256 0.06527,0.05119 0.118672,0.10459 0.118672,0.118671 0,0.05581 -0.05569,0.01989 -0.144275,-0.09307 z m 23.912416,-0.01695 c 0.06751,-0.07459 0.137996,-0.135624 0.156644,-0.135624 0.01865,0 -0.02133,0.06103 -0.08883,0.135624 -0.06751,0.07459 -0.137997,0.135625 -0.156645,0.135625 -0.01865,0 0.02133,-0.06103 0.08883,-0.135625 z M 28.410206,61.505924 c -0.08435,-0.107554 -0.08195,-0.109953 0.0256,-0.0256 0.112958,0.08859 0.14888,0.144274 0.09307,0.144274 -0.01408,0 -0.06748,-0.0534 -0.118671,-0.118671 z m 35.813439,-0.313805 c 0,-0.01408 0.0534,-0.06748 0.118671,-0.118671 0.107554,-0.08435 0.109952,-0.08195 0.0256,0.0256 -0.08859,0.112958 -0.144274,0.148881 -0.144274,0.09307 z M 41.540497,60.946474 c 0.06751,-0.07459 0.137996,-0.135624 0.156645,-0.135624 0.01865,0 -0.02133,0.06103 -0.08883,0.135624 -0.06751,0.07459 -0.137996,0.135624 -0.156644,0.135624 -0.01865,0 0.02133,-0.06103 0.08883,-0.135624 z M 21.900244,60.759991 c -0.08435,-0.107554 -0.08195,-0.109953 0.0256,-0.0256 0.06527,0.05119 0.118671,0.10459 0.118671,0.118671 0,0.05581 -0.05569,0.01989 -0.144274,-0.09307 z m 25.946778,-0.288202 c 0.06751,-0.07459 0.137997,-0.135624 0.156645,-0.135624 0.01865,0 -0.02133,0.06103 -0.08883,0.135624 -0.06751,0.07459 -0.137996,0.135625 -0.156644,0.135625 -0.01865,0 0.02133,-0.06103 0.08883,-0.135625 z M 27.393024,60.42093 c -0.08435,-0.107554 -0.08195,-0.109952 0.0256,-0.0256 0.06527,0.05119 0.118671,0.10459 0.118671,0.118671 0,0.05581 -0.05569,0.01989 -0.144274,-0.09307 z m 37.61046,-0.01695 c 0.06751,-0.07459 0.137996,-0.135624 0.156644,-0.135624 0.01865,0 -0.02133,0.06103 -0.08883,0.135624 -0.06751,0.07459 -0.137996,0.135625 -0.156645,0.135625 -0.01865,0 0.02133,-0.06103 0.08883,-0.135625 z M 21.018687,59.810621 c -0.08435,-0.107554 -0.08195,-0.109952 0.0256,-0.0256 0.06527,0.05119 0.118671,0.10459 0.118671,0.118672 0,0.05581 -0.05569,0.01989 -0.144274,-0.09307 z m 21.674616,-0.08477 c 0.06751,-0.07459 0.137996,-0.135624 0.156644,-0.135624 0.01865,0 -0.02133,0.06103 -0.08883,0.135624 -0.06751,0.07459 -0.137996,0.135625 -0.156645,0.135625 -0.01865,0 0.02133,-0.06103 0.08883,-0.135625 z m -16.31746,-0.389914 c -0.08435,-0.107554 -0.08195,-0.109953 0.0256,-0.0256 0.112958,0.08859 0.14888,0.144274 0.09307,0.144274 -0.01408,0 -0.06748,-0.0534 -0.118671,-0.118671 z m 17.402453,-0.762886 c 0.06751,-0.07459 0.137997,-0.135625 0.156645,-0.135625 0.01865,0 -0.02133,0.06103 -0.08883,0.135625 -0.06751,0.07459 -0.137996,0.135624 -0.156644,0.135624 -0.01865,0 0.02133,-0.06103 0.08883,-0.135624 z m -18.383522,-0.288202 -0.129181,-0.152577 0.152577,0.129181 c 0.143385,0.121399 0.183448,0.175973 0.129182,0.175973 -0.01287,0 -0.08153,-0.06866 -0.152578,-0.152577 z m 36.489353,-0.254295 c 0.145677,-0.149187 0.280125,-0.271249 0.298773,-0.271249 0.01865,0 -0.08528,0.122062 -0.230961,0.271249 -0.145677,0.149186 -0.280125,0.271248 -0.298773,0.271248 -0.01865,0 0.08528,-0.122062 0.230961,-0.271248 z m 23.595417,-0.08476 -0.268054,-0.288202 0.288201,0.268058 c 0.268027,0.249291 0.319361,0.308345 0.268054,0.308345 -0.01107,0 -0.140764,-0.129691 -0.288201,-0.288201 z m -40.582348,-0.55945 c 0.0876,-0.09324 0.174523,-0.16953 0.193172,-0.16953 0.01865,0 -0.03776,0.07629 -0.12536,0.16953 -0.0876,0.09324 -0.174523,0.16953 -0.193172,0.16953 -0.01865,0 0.03776,-0.07629 0.12536,-0.16953 z m -20.519603,-0.186483 -0.129182,-0.152578 0.152578,0.129182 c 0.08392,0.07105 0.152577,0.139709 0.152577,0.152577 0,0.05427 -0.05457,0.0142 -0.175973,-0.129181 z M 153.21788,56.572594 c 0,-0.372967 0.0116,-0.516893 0.0253,-0.319835 0.0137,0.197058 0.0136,0.502213 0,0.678121 -0.0139,0.175909 -0.0252,0.01468 -0.025,-0.358286 z m -78.496075,0.462267 c 0.04895,-0.01959 0.107442,-0.01718 0.129976,0.0054 0.02253,0.02253 -0.01752,0.03856 -0.089,0.03562 -0.079,-0.0033 -0.09507,-0.01932 -0.04097,-0.04097 z M 46.016096,56.199627 c 0.06751,-0.07459 0.137996,-0.135624 0.156644,-0.135624 0.01865,0 -0.02133,0.06103 -0.08883,0.135624 -0.06751,0.07459 -0.137997,0.135624 -0.156645,0.135624 -0.01865,0 0.02133,-0.06103 0.08883,-0.135624 z m -22.655685,-0.08477 -0.129181,-0.152577 0.152577,0.129181 c 0.143385,0.121399 0.183448,0.175973 0.129182,0.175973 -0.01287,0 -0.08153,-0.06866 -0.152578,-0.152577 z m -1.017181,-1.084994 -0.129182,-0.152577 0.152578,0.129181 c 0.143384,0.121399 0.183448,0.175974 0.129181,0.175974 -0.01287,0 -0.08153,-0.06866 -0.152577,-0.152578 z m 24.757859,0.01695 c 0.06751,-0.07459 0.137997,-0.135624 0.156645,-0.135624 0.01865,0 -0.02133,0.06103 -0.08883,0.135624 -0.06751,0.07459 -0.137996,0.135625 -0.156644,0.135625 -0.01865,0 0.02133,-0.06103 0.08883,-0.135625 z m 43.840414,-1.373195 c 6.2e-5,-0.02797 0.66382,-0.04472 1.475022,-0.03721 1.47648,0.01366 1.304122,0.03755 -0.508699,0.0705 -0.531538,0.0097 -0.966384,-0.0053 -0.966323,-0.03329 z m 32.888977,0.01695 -1.45796,-0.03799 1.47491,-0.01491 c 0.94801,-0.0096 1.47491,0.0093 1.47491,0.0529 0,0.0373 -0.008,0.0611 -0.017,0.0529 -0.009,-0.0082 -0.67304,-0.03201 -1.47491,-0.0529 z m 33.62591,-0.01836 c 0.0288,-0.02875 0.69106,-0.04395 1.47165,-0.03378 l 1.41925,0.01849 -1.47165,0.03378 c -0.8094,0.01858 -1.44807,0.01026 -1.41925,-0.01849 z m 32.82994,0.01836 -1.45796,-0.03799 1.47492,-0.01491 c 0.948,-0.0096 1.47491,0.0093 1.47491,0.0529 0,0.0373 -0.008,0.0611 -0.0169,0.0529 -0.009,-0.0082 -0.67304,-0.03201 -1.47492,-0.0529 z M 17.488044,53.436456 c 0.459022,-0.01175 1.191393,-0.01171 1.62749,6.8e-5 0.436097,0.01179 0.06053,0.02141 -0.834587,0.02136 -0.89512,-4.5e-5 -1.251926,-0.0097 -0.792903,-0.02144 z m 32.952791,3.1e-5 c 0.456884,-0.01173 1.204513,-0.01173 1.661397,0 0.456884,0.01173 0.08307,0.02133 -0.830699,0.02133 -0.913768,0 -1.287582,-0.0096 -0.830698,-0.02133 z m 21.975359,-0.266916 c 0.04895,-0.01959 0.10744,-0.01718 0.129973,0.0054 0.02253,0.02253 -0.01752,0.03856 -0.089,0.03562 -0.079,-0.0033 -0.09507,-0.01932 -0.04097,-0.04097 z m 2.504809,0.0014 c 0.04662,-0.01881 0.12291,-0.01881 0.169531,0 0.04662,0.01881 0.0085,0.0342 -0.08477,0.0342 -0.09324,0 -0.131386,-0.01539 -0.08476,-0.0342 z"
       id="path312" /><path
       style="fill:#b9b9b9;fill-opacity:1;stroke-width:0.0678121"
       d="m 176.82563,85.494455 c 0.0675,-0.07459 0.138,-0.135624 0.15665,-0.135624 0.0187,0 -0.0213,0.06103 -0.0888,0.135624 -0.0675,0.07459 -0.13799,0.135624 -0.15664,0.135624 -0.0187,0 0.0213,-0.06103 0.0888,-0.135624 z M 65.02874,79.272695 c -0.08435,-0.107554 -0.08195,-0.109953 0.0256,-0.0256 0.112958,0.08859 0.14888,0.144274 0.09307,0.144274 -0.01408,0 -0.06748,-0.0534 -0.118671,-0.118671 z m 17.741514,-0.356014 c 0.06751,-0.07459 0.137998,-0.135624 0.156646,-0.135624 0.01865,0 -0.02133,0.06103 -0.08883,0.135624 -0.06751,0.07459 -0.137998,0.135624 -0.156646,0.135624 -0.01865,0 0.02133,-0.06103 0.08883,-0.135624 z M 64.282807,78.526762 c -0.08435,-0.107555 -0.08195,-0.109953 0.0256,-0.0256 0.06527,0.05119 0.118671,0.10459 0.118671,0.118672 0,0.05581 -0.05569,0.01989 -0.144274,-0.09307 z M 34.513295,74.322411 c -0.08435,-0.107554 -0.08195,-0.109952 0.0256,-0.0256 0.06527,0.05119 0.118671,0.10459 0.118671,0.118671 0,0.05581 -0.05569,0.01989 -0.144274,-0.09307 z m 0.652865,-0.423825 c 0.06751,-0.07459 0.137996,-0.135625 0.156644,-0.135625 0.01865,0 -0.02133,0.06103 -0.08883,0.135625 -0.06751,0.07459 -0.137997,0.135624 -0.156645,0.135624 -0.01865,0 0.02133,-0.06103 0.08883,-0.135624 z m -1.498309,-0.491638 -0.129182,-0.152577 0.152577,0.129181 c 0.08392,0.07105 0.152578,0.139709 0.152578,0.152577 0,0.05427 -0.05458,0.0142 -0.175973,-0.129181 z m 2.583302,-0.661168 c 0.06751,-0.07459 0.137996,-0.135624 0.156645,-0.135624 0.01865,0 -0.02133,0.06103 -0.08883,0.135624 -0.06751,0.07459 -0.137996,0.135624 -0.156644,0.135624 -0.01865,0 0.02133,-0.06103 0.08883,-0.135624 z m -3.46486,-0.288202 -0.129181,-0.152577 0.152577,0.129182 c 0.143385,0.121398 0.183448,0.175973 0.129182,0.175973 -0.01287,0 -0.08153,-0.06866 -0.152578,-0.152578 z m 4.617666,-0.932416 c 0.06751,-0.07459 0.137996,-0.135624 0.156645,-0.135624 0.01865,0 -0.02133,0.06103 -0.08883,0.135624 -0.06751,0.07459 -0.137996,0.135624 -0.156645,0.135624 -0.01865,0 0.02133,-0.06103 0.08883,-0.135624 z m -5.535336,-0.05086 c -0.08435,-0.107554 -0.08195,-0.109953 0.0256,-0.0256 0.112958,0.08859 0.14888,0.144274 0.09307,0.144274 -0.01408,0 -0.06748,-0.0534 -0.118671,-0.118671 z m -0.881558,-0.949369 c -0.08435,-0.107555 -0.08195,-0.109953 0.0256,-0.0256 0.112958,0.08859 0.148881,0.144275 0.09307,0.144275 -0.01408,0 -0.06748,-0.0534 -0.118672,-0.118671 z m 7.5697,-0.22039 c 0.06751,-0.07459 0.137996,-0.135624 0.156644,-0.135624 0.01865,0 -0.02133,0.06103 -0.08883,0.135624 -0.06751,0.07459 -0.137997,0.135624 -0.156645,0.135624 -0.01865,0 0.02133,-0.06103 0.08883,-0.135624 z m -8.451257,-0.72898 c -0.08435,-0.107554 -0.08195,-0.109952 0.0256,-0.0256 0.112958,0.08859 0.14888,0.144274 0.09307,0.144274 -0.01408,0 -0.06748,-0.0534 -0.118671,-0.118671 z m 9.53625,-0.423826 c 0.06751,-0.07459 0.137996,-0.135624 0.156645,-0.135624 0.01865,0 -0.02133,0.06103 -0.08883,0.135624 -0.06751,0.07459 -0.137996,0.135625 -0.156644,0.135625 -0.01865,0 0.02133,-0.06103 0.08883,-0.135625 z M 29.223951,68.626195 c -0.08435,-0.107554 -0.08195,-0.109953 0.0256,-0.0256 0.112958,0.08859 0.14888,0.144274 0.09307,0.144274 -0.01408,0 -0.06748,-0.0534 -0.118671,-0.118671 z m 11.570613,-0.695074 c 0.06751,-0.07459 0.137996,-0.135625 0.156645,-0.135625 0.01865,0 -0.02133,0.06103 -0.08883,0.135625 -0.06751,0.07459 -0.137996,0.135624 -0.156645,0.135624 -0.01865,0 0.02133,-0.06103 0.08883,-0.135624 z m -6.584217,-0.22039 -0.129181,-0.152577 0.152577,0.129181 c 0.08392,0.07105 0.152577,0.13971 0.152577,0.152578 0,0.05427 -0.05457,0.0142 -0.175973,-0.129182 z m 0.955813,0.01695 c 0.06751,-0.07459 0.137996,-0.135624 0.156644,-0.135624 0.01865,0 -0.02133,0.06103 -0.08883,0.135624 -0.06751,0.07459 -0.137997,0.135625 -0.156645,0.135625 -0.01865,0 0.02133,-0.06103 0.08883,-0.135625 z m -6.823767,-0.05086 c -0.08435,-0.107554 -0.08195,-0.109952 0.0256,-0.0256 0.112958,0.08859 0.14888,0.144274 0.09307,0.144274 -0.01408,0 -0.06748,-0.0534 -0.118672,-0.118671 z m 13.571071,-0.932412 c 0.0876,-0.09324 0.174523,-0.16953 0.193171,-0.16953 0.01865,0 -0.03776,0.07629 -0.125359,0.16953 -0.0876,0.09324 -0.174524,0.16953 -0.193172,0.16953 -0.01865,0 0.03776,-0.07629 0.12536,-0.16953 z m -14.452628,-0.01695 c -0.08435,-0.107554 -0.08195,-0.109953 0.0256,-0.0256 0.112958,0.08859 0.14888,0.144274 0.09307,0.144274 -0.01408,0 -0.06748,-0.0534 -0.118671,-0.118671 z m 5.73233,-0.101718 -0.129181,-0.152578 0.152577,0.129182 c 0.08392,0.07105 0.152577,0.139709 0.152577,0.152577 0,0.05427 -0.05458,0.0142 -0.175973,-0.129181 z m 3.057987,-0.05086 c 0.06751,-0.07459 0.137996,-0.135625 0.156645,-0.135625 0.01865,0 -0.02133,0.06103 -0.08883,0.135625 -0.06751,0.07459 -0.137996,0.135624 -0.156644,0.135624 -0.01865,0 0.02133,-0.06103 0.08883,-0.135624 z m -9.671874,-0.796793 c -0.08435,-0.107554 -0.08195,-0.109952 0.0256,-0.0256 0.112958,0.08859 0.14888,0.144275 0.09307,0.144275 -0.01408,0 -0.06748,-0.0534 -0.118671,-0.118672 z m 5.596705,-0.237342 -0.129181,-0.152577 0.152577,0.129181 c 0.143385,0.121399 0.183448,0.175973 0.129182,0.175973 -0.01287,0 -0.08153,-0.06866 -0.152578,-0.152577 z m 10.856379,0.01695 c 0.06751,-0.07459 0.137996,-0.135624 0.156645,-0.135624 0.01865,0 -0.02133,0.06103 -0.08883,0.135624 -0.06751,0.07459 -0.137996,0.135624 -0.156644,0.135624 -0.01865,0 0.02133,-0.06103 0.08883,-0.135624 z m -5.628404,-0.203435 c 0.06751,-0.07459 0.137996,-0.135624 0.156645,-0.135624 0.01865,0 -0.02133,0.06103 -0.08883,0.135624 -0.06751,0.07459 -0.137996,0.135624 -0.156645,0.135624 -0.01865,0 0.02133,-0.06103 0.08883,-0.135624 z M 25.697722,64.828717 c -0.08435,-0.107554 -0.08195,-0.109953 0.0256,-0.0256 0.112958,0.08859 0.14888,0.144274 0.09307,0.144274 -0.01408,0 -0.06748,-0.0534 -0.118671,-0.118671 z m 5.49278,-0.339061 c -0.08435,-0.107554 -0.08195,-0.109952 0.0256,-0.0256 0.112958,0.08859 0.14888,0.144275 0.09307,0.144275 -0.01408,0 -0.06748,-0.0534 -0.118671,-0.118672 z m 12.994667,-0.152577 c 0.06751,-0.07459 0.137996,-0.135624 0.156645,-0.135624 0.01865,0 -0.02133,0.06103 -0.08883,0.135624 -0.06751,0.07459 -0.137996,0.135624 -0.156645,0.135624 -0.01865,0 0.02133,-0.06103 0.08883,-0.135624 z m -5.696216,-0.135624 c 0.06751,-0.07459 0.137996,-0.135624 0.156644,-0.135624 0.01865,0 -0.02133,0.06103 -0.08883,0.135624 -0.06751,0.07459 -0.137997,0.135624 -0.156645,0.135624 -0.01865,0 0.02133,-0.06103 0.08883,-0.135624 z M 24.816164,63.879348 c -0.08435,-0.107554 -0.08195,-0.109953 0.0256,-0.0256 0.112958,0.08859 0.14888,0.144275 0.09307,0.144275 -0.01408,0 -0.06748,-0.0534 -0.118671,-0.118671 z m 5.357156,-0.474685 c -0.08435,-0.107554 -0.08195,-0.109953 0.0256,-0.0256 0.06527,0.05119 0.118671,0.10459 0.118671,0.118671 0,0.05581 -0.05569,0.01989 -0.144274,-0.09307 z m 15.096843,-0.220389 c 0.06751,-0.07459 0.137996,-0.135625 0.156644,-0.135625 0.01865,0 -0.02133,0.06103 -0.08883,0.135625 -0.06751,0.07459 -0.137997,0.135624 -0.156645,0.135624 -0.01865,0 0.02133,-0.06103 0.08883,-0.135624 z m -5.662311,-0.169531 c 0.0876,-0.09324 0.174523,-0.16953 0.193172,-0.16953 0.01865,0 -0.03776,0.07629 -0.12536,0.16953 -0.0876,0.09324 -0.174523,0.169531 -0.193171,0.169531 -0.01865,0 0.03776,-0.07629 0.125359,-0.169531 z m -15.704944,-0.118671 -0.129181,-0.152577 0.152577,0.129181 c 0.143385,0.121399 0.183448,0.175973 0.129181,0.175973 -0.01287,0 -0.08153,-0.06866 -0.152577,-0.152577 z m 5.253231,-0.576403 c -0.08435,-0.107554 -0.08195,-0.109952 0.0256,-0.0256 0.112958,0.08859 0.14888,0.144274 0.09307,0.144274 -0.01408,0 -0.06748,-0.0534 -0.118671,-0.118671 z m -6.134788,-0.372966 -0.129182,-0.152578 0.152578,0.129182 c 0.143384,0.121398 0.183448,0.175973 0.129181,0.175973 -0.01287,0 -0.08153,-0.06866 -0.152577,-0.152577 z m 23.401617,0.01695 c 0.06751,-0.07459 0.137996,-0.135624 0.156645,-0.135624 0.01865,0 -0.02133,0.06103 -0.08883,0.135624 -0.06751,0.07459 -0.137996,0.135624 -0.156644,0.135624 -0.01865,0 0.02133,-0.06103 0.08883,-0.135624 z m -5.696216,-0.135624 c 0.06751,-0.07459 0.137996,-0.135625 0.156644,-0.135625 0.01865,0 -0.02133,0.06103 -0.08883,0.135625 -0.06751,0.07459 -0.137996,0.135624 -0.156645,0.135624 -0.01865,0 0.02133,-0.06103 0.08883,-0.135624 z m -12.551682,-0.55945 -0.129181,-0.152578 0.152577,0.129182 c 0.08392,0.07105 0.152578,0.139709 0.152578,0.152577 0,0.05427 -0.05457,0.0142 -0.175974,-0.129181 z m -6.035276,-0.271246 -0.129182,-0.152577 0.152577,0.129181 c 0.143385,0.121399 0.183448,0.175973 0.129182,0.175973 -0.01287,0 -0.08153,-0.06866 -0.152577,-0.152577 z m 60.628337,-0.271248 -0.40475,-0.423826 0.423826,0.40475 c 0.233104,0.222613 0.423826,0.413334 0.423826,0.423826 0,0.05011 -0.06692,-0.01105 -0.442902,-0.40475 z m -35.226263,0.05086 c 0.0876,-0.09324 0.174523,-0.16953 0.193171,-0.16953 0.01865,0 -0.03776,0.07629 -0.125359,0.16953 -0.0876,0.09324 -0.174523,0.16953 -0.193172,0.16953 -0.01865,0 0.03776,-0.07629 0.12536,-0.16953 z m -5.730123,-0.101718 c 0.06751,-0.07459 0.137997,-0.135624 0.156645,-0.135624 0.01865,0 -0.02133,0.06103 -0.08883,0.135624 -0.06751,0.07459 -0.137997,0.135624 -0.156645,0.135624 -0.01865,0 0.02133,-0.06103 0.08883,-0.135624 z m -14.653856,-0.491638 -0.129181,-0.152577 0.152577,0.129181 c 0.143384,0.121399 0.183448,0.175973 0.129181,0.175973 -0.01287,0 -0.08153,-0.06866 -0.152577,-0.152577 z m -5.935766,-0.16953 c -0.08435,-0.107554 -0.08195,-0.109953 0.0256,-0.0256 0.06527,0.05119 0.118671,0.10459 0.118671,0.118671 0,0.05581 -0.05569,0.01989 -0.144274,-0.09307 z m 21.742428,-0.55945 c 0.06751,-0.07459 0.137996,-0.135624 0.156645,-0.135624 0.01865,0 -0.02133,0.06103 -0.08883,0.135624 -0.06751,0.07459 -0.137996,0.135624 -0.156644,0.135624 -0.01865,0 0.02133,-0.06103 0.08883,-0.135624 z M 26.140707,59.098595 26.011526,58.946018 26.164103,59.0752 c 0.08392,0.07105 0.152578,0.139709 0.152578,0.152577 0,0.05427 -0.05457,0.0142 -0.175974,-0.129182 z m 17.908838,-0.796792 c 0.06751,-0.07459 0.137996,-0.135624 0.156644,-0.135624 0.01865,0 -0.02133,0.06103 -0.08883,0.135624 -0.06751,0.07459 -0.137996,0.135624 -0.156645,0.135624 -0.01865,0 0.02133,-0.06103 0.08883,-0.135624 z m -18.926019,-0.288201 -0.129181,-0.152577 0.152577,0.129181 c 0.08392,0.07105 0.152577,0.139709 0.152577,0.152577 0,0.05427 -0.05457,0.0142 -0.175973,-0.129181 z M 45.20235,57.081185 c 0.06751,-0.07459 0.137997,-0.135624 0.156645,-0.135624 0.01865,0 -0.02133,0.06103 -0.08883,0.135624 -0.06751,0.07459 -0.137997,0.135625 -0.156645,0.135625 -0.01865,0 0.02133,-0.06103 0.08883,-0.135625 z M 24.106344,56.928607 23.977163,56.77603 24.12974,56.905211 c 0.08392,0.07105 0.152578,0.13971 0.152578,0.152578 0,0.05427 -0.05457,0.0142 -0.175974,-0.129182 z m 22.181,-1.000228 c 0.06751,-0.07459 0.137996,-0.135625 0.156645,-0.135625 0.01865,0 -0.02133,0.06103 -0.08883,0.135625 -0.06751,0.07459 -0.137996,0.135624 -0.156644,0.135624 -0.01865,0 0.02133,-0.06103 0.08883,-0.135624 z m -23.198181,-0.08476 -0.129181,-0.152578 0.152577,0.129182 c 0.143384,0.121398 0.183448,0.175973 0.129181,0.175973 -0.01287,0 -0.08153,-0.06866 -0.152577,-0.152577 z m -1.017182,-1.084994 -0.129181,-0.152577 0.152577,0.129181 c 0.143385,0.121399 0.183448,0.175973 0.129182,0.175973 -0.01287,0 -0.08153,-0.06866 -0.152578,-0.152577 z m 25.334263,-0.01696 c 0.0876,-0.09324 0.174523,-0.16953 0.193171,-0.16953 0.01865,0 -0.03776,0.07629 -0.125359,0.16953 -0.0876,0.09324 -0.174523,0.16953 -0.193172,0.16953 -0.01865,0 0.03776,-0.07629 0.12536,-0.16953 z"
       id="path310" /><path
       style="fill:#a3a3a3;fill-opacity:1;stroke-width:0.0678121"
       d="m 72.988358,86.464892 c 0.06527,-0.01706 0.172074,-0.01706 0.237343,0 0.06527,0.01706 0.01187,0.03101 -0.118671,0.03101 -0.130539,0 -0.183941,-0.01396 -0.118672,-0.03101 z m 1.255315,-0.0012 c 0.08435,-0.01622 0.206414,-0.0156 0.271248,0.0014 0.06483,0.01697 -0.0042,0.03024 -0.153368,0.02949 -0.149186,-7.53e-4 -0.202232,-0.01464 -0.11788,-0.03086 z m -2.234352,-0.06617 c 0.04895,-0.01959 0.10744,-0.01718 0.129974,0.0054 0.02253,0.02253 -0.01752,0.03856 -0.089,0.03562 -0.079,-0.0033 -0.09507,-0.01932 -0.04097,-0.04097 z m 3.390605,0 c 0.04895,-0.01959 0.107442,-0.01718 0.129976,0.0054 0.02253,0.02253 -0.01752,0.03856 -0.089,0.03562 -0.079,-0.0033 -0.09506,-0.01932 -0.04097,-0.04097 z M 52.864564,69.728141 c 10e-7,-8.951197 0.0079,-12.602972 0.0175,-8.115056 0.0096,4.487917 0.0096,11.811624 -2e-6,16.274905 -0.0096,4.46328 -0.0175,0.791349 -0.0175,-8.159849 z m 99.514806,15.537275 c 0,-0.01408 0.0534,-0.06748 0.11867,-0.118672 0.10756,-0.08435 0.10995,-0.08195 0.0256,0.0256 -0.0886,0.112959 -0.14428,0.148881 -0.14428,0.09307 z M 72.88664,82.669248 c 0.04662,-0.01881 0.12291,-0.01881 0.169531,0 0.04662,0.01881 0.0085,0.0342 -0.08477,0.0342 -0.09324,0 -0.131386,-0.01539 -0.08476,-0.0342 z m 1.559679,0 c 0.04662,-0.01881 0.122909,-0.01881 0.16953,0 0.04662,0.01881 0.0085,0.0342 -0.08477,0.0342 -0.09324,0 -0.131386,-0.01539 -0.08477,-0.0342 z m 10.460016,-0.455377 c 0,-0.01408 0.0534,-0.06748 0.118671,-0.118671 0.107557,-0.08435 0.109951,-0.08195 0.02561,0.0256 -0.08859,0.112958 -0.144277,0.14888 -0.144277,0.09307 z m -22.522267,-0.16088 c -0.08435,-0.107554 -0.08195,-0.109953 0.0256,-0.0256 0.06527,0.05119 0.118671,0.10459 0.118671,0.118671 0,0.05581 -0.05569,0.01989 -0.144274,-0.09307 z m -0.913256,-0.915464 -0.129182,-0.152577 0.152577,0.129182 c 0.143385,0.121398 0.183448,0.175973 0.129182,0.175973 -0.01287,0 -0.08153,-0.06866 -0.152577,-0.152578 z m 24.384892,0.126975 c 0,-0.01408 0.0534,-0.06748 0.118672,-0.118672 0.107556,-0.08435 0.10995,-0.08195 0.0256,0.0256 -0.08859,0.112958 -0.144277,0.14888 -0.144277,0.09307 z M 82.499006,79.18793 c 0.06751,-0.07459 0.137997,-0.135625 0.156645,-0.135625 0.01865,0 -0.02133,0.06103 -0.08883,0.135625 -0.06751,0.07459 -0.137998,0.135624 -0.156646,0.135624 -0.01865,0 0.02133,-0.06103 0.08883,-0.135624 z m 0.542496,-0.542497 c 0.06751,-0.07459 0.137998,-0.135624 0.156646,-0.135624 0.01865,0 -0.02133,0.06103 -0.08883,0.135624 -0.06751,0.07459 -0.137997,0.135624 -0.156646,0.135624 -0.01865,0 0.02133,-0.06103 0.08883,-0.135624 z M 34.861005,74.20374 c 0.0876,-0.09324 0.174523,-0.16953 0.193172,-0.16953 0.01865,0 -0.03776,0.07629 -0.12536,0.16953 -0.0876,0.09324 -0.174523,0.16953 -0.193171,0.16953 -0.01865,0 0.03776,-0.07629 0.125359,-0.16953 z m -0.958019,-0.55945 c -0.08435,-0.107554 -0.08195,-0.109952 0.0256,-0.0256 0.06527,0.05119 0.118671,0.10459 0.118671,0.118671 0,0.05581 -0.05569,0.01989 -0.144274,-0.09307 z m 2.076919,-0.627262 c 0.06751,-0.07459 0.137996,-0.135624 0.156644,-0.135624 0.01865,0 -0.02133,0.06103 -0.08883,0.135624 -0.06751,0.07459 -0.137996,0.135624 -0.156645,0.135624 -0.01865,0 0.02133,-0.06103 0.08883,-0.135624 z m -2.958477,-0.322107 c -0.08435,-0.107554 -0.08195,-0.109953 0.0256,-0.0256 0.112958,0.08859 0.148881,0.144274 0.09307,0.144274 -0.01408,0 -0.06748,-0.0534 -0.118672,-0.118671 z m 4.077376,-0.864605 c 0.0876,-0.09324 0.174524,-0.16953 0.193172,-0.16953 0.01865,0 -0.03776,0.07629 -0.125359,0.16953 -0.0876,0.09324 -0.174524,0.169531 -0.193172,0.169531 -0.01865,0 0.03776,-0.07629 0.125359,-0.169531 z m -4.990632,-0.118671 -0.129181,-0.152577 0.152577,0.129181 c 0.08392,0.07105 0.152577,0.13971 0.152577,0.152578 0,0.05427 -0.05457,0.0142 -0.175973,-0.129182 z M 137.57938,71.609936 c 2.43361,-0.0099 6.41587,-0.0099 8.84948,0 2.43361,0.0099 0.44247,0.01794 -4.42474,0.01794 -4.86721,0 -6.85835,-0.0081 -4.42474,-0.01794 z M 57.108728,71.01092 c 0.0033,-0.079 0.01932,-0.09506 0.04097,-0.04097 0.01959,0.04895 0.01718,0.107441 -0.0053,0.129974 -0.02253,0.02253 -0.03856,-0.01752 -0.03562,-0.089 z m -25.882113,-0.248644 -0.129181,-0.152577 0.152577,0.129181 c 0.08392,0.07105 0.152577,0.139709 0.152577,0.152577 0,0.05427 -0.05457,0.0142 -0.175973,-0.129181 z m 7.024995,-0.152577 c 0.0876,-0.09324 0.174523,-0.169531 0.193172,-0.169531 0.01865,0 -0.03776,0.07629 -0.12536,0.169531 -0.0876,0.09324 -0.174523,0.16953 -0.193171,0.16953 -0.01865,0 0.03776,-0.07629 0.125359,-0.16953 z m 48.287566,0.06216 c 0.0033,-0.079 0.01933,-0.09507 0.04097,-0.04097 0.01959,0.04895 0.01718,0.10744 -0.0054,0.129973 -0.02253,0.02253 -0.03856,-0.01752 -0.03562,-0.089 z m 3.882188,-0.875907 c 0,-0.261076 0.01256,-0.359571 0.02724,-0.218877 0.01468,0.140695 0.01443,0.354303 -6.78e-4,0.474685 -0.01498,0.120383 -0.02699,0.0053 -0.02669,-0.255808 z m -60.076306,0.01695 -0.129182,-0.152577 0.152578,0.129182 c 0.08392,0.07105 0.152577,0.139709 0.152577,0.152577 0,0.05427 -0.05457,0.0142 -0.175973,-0.129182 z m 9.025452,-0.389919 c 0.06751,-0.07459 0.137996,-0.135624 0.156644,-0.135624 0.01865,0 -0.02133,0.06103 -0.08883,0.135624 -0.06751,0.07459 -0.137996,0.135624 -0.156645,0.135624 -0.01865,0 0.02133,-0.06103 0.08883,-0.135624 z m -9.90701,-0.55945 -0.129181,-0.152577 0.152577,0.129181 c 0.08392,0.07105 0.152577,0.139709 0.152577,0.152577 0,0.05427 -0.05457,0.0142 -0.175973,-0.129181 z m 57.075676,0.04521 c 0.0033,-0.079 0.01933,-0.09506 0.04097,-0.04097 0.01959,0.04895 0.01718,0.10744 -0.0054,0.129974 -0.02253,0.02253 -0.03856,-0.01752 -0.03562,-0.089 z m -29.430448,-0.33906 c 0.0033,-0.079 0.01932,-0.09507 0.04097,-0.04097 0.01959,0.04895 0.01718,0.10744 -0.0053,0.129973 -0.02253,0.02253 -0.03856,-0.01752 -0.03562,-0.089 z m -16.619319,-0.33341 c 0.0876,-0.09324 0.174524,-0.16953 0.193172,-0.16953 0.01865,0 -0.03776,0.07629 -0.125359,0.16953 -0.0876,0.09324 -0.174524,0.16953 -0.193172,0.16953 -0.01865,0 0.03776,-0.07629 0.125359,-0.16953 z m 49.847244,0.06216 c 0.0033,-0.079 0.01933,-0.09506 0.04097,-0.04097 0.01959,0.04895 0.01718,0.107441 -0.0054,0.129974 -0.02253,0.02253 -0.03856,-0.01752 -0.03562,-0.089 z m -61.75471,-0.384268 -0.129181,-0.152578 0.152577,0.129182 c 0.08392,0.07105 0.152577,0.139709 0.152577,0.152577 0,0.05427 -0.05457,0.0142 -0.175973,-0.129181 z m 108.997437,-0.0339 c 2.43361,-0.0099 6.41587,-0.0099 8.84948,0 2.43361,0.0099 0.44247,0.01794 -4.42474,0.01794 -4.86721,0 -6.85835,-0.0081 -4.42474,-0.01794 z m -103.640281,-0.440782 -0.129181,-0.152577 0.152577,0.129181 c 0.143384,0.121399 0.183448,0.175973 0.129181,0.175973 -0.01287,0 -0.08153,-0.06866 -0.152577,-0.152577 z m 1.498309,0.01695 c 0.06751,-0.07459 0.137996,-0.135624 0.156645,-0.135624 0.01865,0 -0.02133,0.06103 -0.08883,0.135624 -0.06751,0.07459 -0.137996,0.135624 -0.156644,0.135624 -0.01865,0 0.02133,-0.06103 0.08883,-0.135624 z m 6.170901,-0.406873 c 0.06751,-0.07459 0.137996,-0.135624 0.156645,-0.135624 0.01865,0 -0.02133,0.06103 -0.08883,0.135624 -0.06751,0.07459 -0.137996,0.135625 -0.156644,0.135625 -0.01865,0 0.02133,-0.06103 0.08883,-0.135625 z m -13.907923,-0.08476 -0.129182,-0.152577 0.152578,0.129181 c 0.08392,0.07105 0.152577,0.13971 0.152577,0.152578 0,0.05427 -0.05457,0.0142 -0.175973,-0.129182 z m 5.221531,-0.610309 -0.129181,-0.152577 0.152577,0.129181 c 0.143385,0.121399 0.183448,0.175974 0.129182,0.175974 -0.01287,0 -0.08153,-0.06866 -0.152578,-0.152578 z m 3.634391,-0.08477 c 0.0876,-0.09324 0.174523,-0.16953 0.193171,-0.16953 0.01865,0 -0.03776,0.07629 -0.125359,0.16953 -0.0876,0.09324 -0.174523,0.16953 -0.193172,0.16953 -0.01865,0 0.03776,-0.07629 0.12536,-0.16953 z M 26.782715,65.98152 c -0.08435,-0.107554 -0.08195,-0.109953 0.0256,-0.0256 0.112958,0.08859 0.14888,0.144274 0.09307,0.144274 -0.01408,0 -0.06748,-0.0534 -0.118671,-0.118671 z m 15.9784,-0.152577 c 0.06751,-0.07459 0.137996,-0.135625 0.156644,-0.135625 0.01865,0 -0.02133,0.06103 -0.08883,0.135625 -0.06751,0.07459 -0.137996,0.135624 -0.156645,0.135624 -0.01865,0 0.02133,-0.06103 0.08883,-0.135624 z m -10.856379,-0.55945 -0.129181,-0.152578 0.152577,0.129182 c 0.143384,0.121398 0.183448,0.175973 0.129181,0.175973 -0.01287,0 -0.08153,-0.06866 -0.152577,-0.152577 z m 5.770471,-0.186484 c 0.06751,-0.07459 0.137997,-0.135624 0.156645,-0.135624 0.01865,0 -0.02133,0.06103 -0.08883,0.135624 -0.06751,0.07459 -0.137996,0.135625 -0.156644,0.135625 -0.01865,0 0.02133,-0.06103 0.08883,-0.135625 z m -11.774049,-0.05086 c -0.08435,-0.107554 -0.08195,-0.109952 0.0256,-0.0256 0.112958,0.08859 0.14888,0.144274 0.09307,0.144274 -0.01408,0 -0.06748,-0.0534 -0.118671,-0.118671 z m 17.978856,-0.389915 c 0.0876,-0.09324 0.174524,-0.169531 0.193172,-0.169531 0.01865,0 -0.03776,0.07629 -0.125359,0.169531 -0.0876,0.09324 -0.174524,0.16953 -0.193172,0.16953 -0.01865,0 0.03776,-0.07629 0.125359,-0.16953 z m -12.924647,-0.38992 -0.129182,-0.152577 0.152577,0.129181 c 0.143385,0.121399 0.183448,0.175973 0.129182,0.175973 -0.01287,0 -0.08153,-0.06866 -0.152577,-0.152577 z m -5.935766,-0.16953 c -0.08435,-0.107554 -0.08195,-0.109953 0.0256,-0.0256 0.112958,0.08859 0.14888,0.144274 0.09307,0.144274 -0.01408,0 -0.06748,-0.0534 -0.118671,-0.118671 z m 13.7406,-0.152577 c 0.06751,-0.07459 0.137996,-0.135625 0.156645,-0.135625 0.01865,0 -0.02133,0.06103 -0.08883,0.135625 -0.06751,0.07459 -0.137996,0.135624 -0.156645,0.135624 -0.01865,0 0.02133,-0.06103 0.08883,-0.135624 z m 6.238713,-0.474685 c 0.06751,-0.07459 0.137996,-0.135624 0.156645,-0.135624 0.01865,0 -0.02133,0.06103 -0.08883,0.135624 -0.06751,0.07459 -0.137996,0.135624 -0.156644,0.135624 -0.01865,0 0.02133,-0.06103 0.08883,-0.135624 z m -15.060729,-0.288201 -0.129181,-0.152578 0.152577,0.129182 c 0.143385,0.121398 0.183448,0.175973 0.129181,0.175973 -0.01287,0 -0.08153,-0.06866 -0.152577,-0.152577 z m -5.800142,-0.03391 c -0.08435,-0.107554 -0.08195,-0.109952 0.0256,-0.0256 0.112958,0.08859 0.14888,0.144275 0.09307,0.144275 -0.01408,0 -0.06748,-0.0534 -0.118671,-0.118672 z m 15.774964,-0.423825 c 0.06751,-0.07459 0.137996,-0.135624 0.156644,-0.135624 0.01865,0 -0.02133,0.06103 -0.08883,0.135624 -0.06751,0.07459 -0.137997,0.135624 -0.156645,0.135624 -0.01865,0 0.02133,-0.06103 0.08883,-0.135624 z m 6.204807,-0.440776 c 0.0876,-0.09324 0.174523,-0.16953 0.193171,-0.16953 0.01865,0 -0.03776,0.07629 -0.125359,0.16953 -0.0876,0.09324 -0.174523,0.16953 -0.193172,0.16953 -0.01865,0 0.03776,-0.07629 0.12536,-0.16953 z M 23.256486,62.18404 c -0.08435,-0.107554 -0.08195,-0.109953 0.0256,-0.0256 0.06527,0.05119 0.118671,0.10459 0.118671,0.118671 0,0.05581 -0.05569,0.01989 -0.144274,-0.09307 z m 5.664518,-0.101718 -0.129182,-0.152577 0.152577,0.129181 c 0.143385,0.121399 0.183448,0.175973 0.129182,0.175973 -0.01287,0 -0.08153,-0.06866 -0.152577,-0.152577 z M 40.998,61.556778 c 0.06751,-0.07459 0.137996,-0.135624 0.156645,-0.135624 0.01865,0 -0.02133,0.06103 -0.08883,0.135624 -0.06751,0.07459 -0.137996,0.135624 -0.156644,0.135624 -0.01865,0 0.02133,-0.06103 0.08883,-0.135624 z M 22.374929,61.234676 c -0.08435,-0.107554 -0.08195,-0.109953 0.0256,-0.0256 0.06527,0.05119 0.118671,0.10459 0.118671,0.118672 0,0.05581 -0.05569,0.01989 -0.144274,-0.09307 z m 24.861784,-0.152578 c 0.06751,-0.07459 0.137997,-0.135624 0.156645,-0.135624 0.01865,0 -0.02133,0.06103 -0.08883,0.135624 -0.06751,0.07459 -0.137997,0.135625 -0.156645,0.135625 -0.01865,0 0.02133,-0.06103 0.08883,-0.135625 z m -19.332891,-0.08477 -0.129181,-0.152577 0.152577,0.129181 c 0.08392,0.07105 0.152577,0.13971 0.152577,0.152578 0,0.05427 -0.05457,0.0142 -0.175973,-0.129182 z M 42.1169,60.370066 c 0.0876,-0.09324 0.174523,-0.16953 0.193171,-0.16953 0.01865,0 -0.03776,0.07629 -0.125359,0.16953 -0.0876,0.09324 -0.174523,0.169531 -0.193172,0.169531 -0.01865,0 0.03776,-0.07629 0.12536,-0.169531 z m -20.655227,-0.118671 -0.129182,-0.152577 0.152577,0.129181 c 0.143385,0.121399 0.183448,0.175973 0.129182,0.175973 -0.01287,0 -0.08153,-0.06866 -0.152577,-0.152577 z m 5.424968,-0.33906 -0.129182,-0.152578 0.152577,0.129182 c 0.08392,0.07105 0.152578,0.139709 0.152578,0.152577 0,0.05427 -0.05457,0.0142 -0.175973,-0.129181 z m 21.502878,-0.05086 c 0.06751,-0.07459 0.137996,-0.135625 0.156645,-0.135625 0.01865,0 -0.02133,0.06103 -0.08883,0.135625 -0.06751,0.07459 -0.137996,0.135624 -0.156644,0.135624 -0.01865,0 0.02133,-0.06103 0.08883,-0.135624 z M 43.2358,59.183354 c 0.06751,-0.07459 0.137996,-0.135625 0.156644,-0.135625 0.01865,0 -0.02133,0.06103 -0.08883,0.135625 -0.06751,0.07459 -0.137997,0.135624 -0.156645,0.135624 -0.01865,0 0.02133,-0.06103 0.08883,-0.135624 z m -17.366341,-0.356014 -0.129181,-0.152577 0.152577,0.129181 c 0.143385,0.121399 0.183448,0.175973 0.129181,0.175973 -0.01287,0 -0.08153,-0.06866 -0.152577,-0.152577 z m 60.181029,-0.237342 c -0.08435,-0.107554 -0.08195,-0.109953 0.02561,-0.0256 0.112954,0.08859 0.148881,0.144274 0.09306,0.144274 -0.01408,0 -0.06748,-0.0534 -0.118671,-0.118671 z m -41.695789,-0.59335 c 0.0876,-0.09324 0.174523,-0.16953 0.193172,-0.16953 0.01865,0 -0.03776,0.07629 -0.12536,0.16953 -0.0876,0.09324 -0.174523,0.16953 -0.193171,0.16953 -0.01865,0 0.03776,-0.07629 0.125359,-0.16953 z m -19.502421,-0.254296 -0.129182,-0.152577 0.152577,0.129182 c 0.08392,0.07105 0.152578,0.139709 0.152578,0.152577 0,0.05427 -0.05457,0.0142 -0.175973,-0.129182 z M 84.82987,57.369386 c -0.08434,-0.107554 -0.08195,-0.109953 0.02561,-0.0256 0.06527,0.05119 0.118671,0.10459 0.118671,0.118671 0,0.05581 -0.05569,0.01989 -0.144277,-0.09307 z M 72.416194,57.034861 c 0.04895,-0.01959 0.10744,-0.01718 0.129973,0.0054 0.02253,0.02253 -0.01752,0.03856 -0.089,0.03562 -0.079,-0.0033 -0.09507,-0.01932 -0.04097,-0.04097 z M 45.473599,56.809936 c 0.06751,-0.07459 0.137996,-0.135624 0.156644,-0.135624 0.01865,0 -0.02133,0.06103 -0.08883,0.135624 -0.06751,0.07459 -0.137996,0.135624 -0.156645,0.135624 -0.01865,0 0.02133,-0.06103 0.08883,-0.135624 z m -21.638503,-0.152577 -0.129181,-0.152577 0.152577,0.129181 c 0.143385,0.121398 0.183448,0.175973 0.129181,0.175973 -0.01287,0 -0.08153,-0.06866 -0.152577,-0.152577 z M 46.558592,55.65713 c 0.06751,-0.07459 0.137997,-0.135624 0.156645,-0.135624 0.01865,0 -0.02133,0.06103 -0.08883,0.135624 -0.06751,0.07459 -0.137997,0.135624 -0.156645,0.135624 -0.01865,0 0.02133,-0.06103 0.08883,-0.135624 z m -23.740677,-0.08476 -0.129182,-0.152577 0.152577,0.129181 c 0.143385,0.121399 0.183448,0.175973 0.129182,0.175973 -0.01287,0 -0.08153,-0.06866 -0.152577,-0.152577 z m 97.621955,-1.034134 c 0.0876,-0.09324 0.17452,-0.169531 0.19317,-0.169531 0.0186,0 -0.0378,0.07629 -0.12536,0.169531 -0.0876,0.09324 -0.17452,0.16953 -0.19317,0.16953 -0.0186,0 0.0378,-0.07629 0.12536,-0.16953 z m 41.76712,-0.01695 -0.1644,-0.186484 0.18649,0.164398 c 0.10256,0.09042 0.18648,0.174337 0.18648,0.186483 0,0.05318 -0.0549,0.0099 -0.20857,-0.164397 z m -140.406257,-0.03391 -0.129181,-0.152578 0.152577,0.129182 c 0.08392,0.07105 0.152577,0.139709 0.152577,0.152577 0,0.05427 -0.05457,0.0142 -0.175973,-0.129181 z m 73.946885,0.03391 c -0.08434,-0.107555 -0.08195,-0.109953 0.02561,-0.0256 0.06527,0.05119 0.118671,0.10459 0.118671,0.118672 0,0.05581 -0.05569,0.01989 -0.144277,-0.09307 z m 91.080302,0.09307 c 0,-0.01408 0.0534,-0.06748 0.11867,-0.118672 0.10756,-0.08435 0.10995,-0.08195 0.0256,0.0256 -0.0886,0.112958 -0.14427,0.14888 -0.14427,0.09307 z M 47.60968,54.550918 c 0,-0.01167 0.09917,-0.110846 0.220389,-0.22039 l 0.22039,-0.19917 -0.199171,0.220389 c -0.185654,0.205434 -0.241608,0.251559 -0.241608,0.199171 z m 87.22865,-1.046817 c 2.94004,-0.0098 7.73097,-0.0098 10.6465,2e-6 2.91552,0.0098 0.51003,0.01778 -5.34554,0.01778 -5.85558,-1e-6 -8.24101,-0.008 -5.30096,-0.01778 z M 72.683204,53.170984 c 0.04662,-0.01881 0.122909,-0.01881 0.16953,0 0.04662,0.01881 0.0085,0.0342 -0.08477,0.0342 -0.09324,0 -0.131386,-0.01539 -0.08477,-0.0342 z m 1.933933,-0.0021 c 0.06598,-0.01719 0.157528,-0.01606 0.203437,0.0025 0.04592,0.01858 -0.0081,0.03264 -0.11996,0.03126 -0.11189,-0.0014 -0.149451,-0.01658 -0.08348,-0.03377 z"
       id="path308" /><path
       style="fill:#8c8c8c;fill-opacity:1;stroke-width:0.0678121"
       d="m 72.497501,86.435076 c -3.953225,-0.266449 -7.776744,-2.032331 -10.602372,-4.896678 -1.277833,-1.295343 -2.218784,-2.63108 -3.06498,-4.350925 -0.836526,-1.700194 -1.283541,-3.120317 -1.568883,-4.98419 -0.165968,-1.084117 -0.167527,-3.651104 -0.0029,-4.750806 0.545202,-3.641623 2.172115,-6.875867 4.75785,-9.458433 2.544397,-2.541278 5.820057,-4.168871 9.429403,-4.685232 0.99291,-0.142048 3.341129,-0.159913 4.339975,-0.03302 5.575605,0.708335 10.261299,4.006919 12.808932,9.01709 1.208554,2.376742 1.7208,4.396329 1.786639,7.044025 0.03791,1.524866 -0.02641,2.427258 -0.260894,3.65964 -0.605026,3.179932 -2.304418,6.342613 -4.674959,8.700428 -2.392486,2.379642 -5.490244,3.972239 -8.834513,4.54194 -0.719127,0.122503 -2.660406,0.2872 -3.096911,0.262739 -0.09324,-0.0052 -0.550622,-0.03519 -1.016401,-0.06658 z m 3.473213,-3.917738 c 2.186371,-0.383349 4.531761,-1.524958 6.262895,-3.048445 2.219382,-1.953165 3.752403,-4.762392 4.242454,-7.774201 0.116637,-0.716833 0.115891,-3.087499 -0.0012,-3.797477 -0.684068,-4.148019 -3.264813,-7.690486 -6.949838,-9.539718 -1.896535,-0.951726 -3.575549,-1.340537 -5.79899,-1.342882 -1.845265,-0.0019 -3.130431,0.23847 -4.771928,0.892688 -2.385999,0.950938 -4.455474,2.632255 -5.919746,4.80942 -0.517187,0.768983 -1.266214,2.30799 -1.553194,3.191306 -0.452473,1.392702 -0.545867,2.057898 -0.545867,3.887924 0,1.430432 0.01892,1.721093 0.156296,2.400545 1.149372,5.684887 5.775216,9.896621 11.506837,10.476731 0.67098,0.06791 2.606026,-0.02154 3.372275,-0.155891 z m 29.932356,3.570473 c -0.052,-0.121214 -3.41199,-7.422035 -7.466539,-16.224045 -4.054547,-8.802011 -7.387593,-16.041801 -7.406763,-16.088422 -0.052,-0.12645 2.934792,-0.117853 3.414325,0.0098 0.533275,0.141989 1.015161,0.435853 1.404708,0.856609 0.384888,0.41572 -0.316974,-1.077153 9.204819,19.578912 1.65478,3.589803 3.02663,6.526915 3.04855,6.526915 0.0219,0 2.52254,-5.36309 5.55697,-11.917977 3.03442,-6.554887 5.72288,-12.352254 5.97436,-12.883037 0.52154,-1.10076 0.8946,-1.562227 1.53717,-1.901436 0.60151,-0.317536 0.96532,-0.36522 2.60726,-0.341741 l 1.47322,0.02107 -7.13996,15.46116 c -3.92698,8.503637 -7.18014,15.537447 -7.22926,15.630689 -0.31744,0.602614 -0.98466,1.139035 -1.68905,1.357936 -0.3697,0.114888 -0.62748,0.13393 -1.81307,0.13393 h -1.3821 z m 59.07068,-16.066054 -7.50172,-16.297272 1.47154,-0.02107 c 0.94189,-0.01348 1.60578,0.0074 1.8445,0.0579 0.83174,0.176099 1.61782,0.797634 2.0194,1.596694 0.11079,0.220462 2.78834,6.015681 5.95012,12.878266 3.16178,6.862585 5.76106,12.491801 5.7762,12.509369 0.0151,0.01757 0.0552,-0.01291 0.0891,-0.06773 0.0339,-0.05482 2.72521,-5.85072 5.98073,-12.879783 5.57026,-12.026853 5.9398,-12.802438 6.26976,-13.158875 0.38732,-0.418407 0.86991,-0.712324 1.40233,-0.854087 0.47951,-0.127673 3.46591,-0.136267 3.41515,-0.0098 -0.14372,0.357958 -14.15011,30.63437 -14.33528,30.987333 -0.29666,0.565491 -0.76866,1.01434 -1.36247,1.295637 l -0.45592,0.21598 -1.53086,0.02237 -1.53086,0.02237 z M 16.687362,69.728141 V 53.487143 h 1.688159 c 1.928935,0 2.275466,0.06249 2.905929,0.524015 0.192206,0.140704 3.28362,3.391286 6.869808,7.223518 3.586188,3.832231 6.544023,6.967693 6.572965,6.967693 0.02894,0 2.952194,-3.074431 6.496113,-6.832069 3.54392,-3.757638 6.576256,-6.960112 6.738525,-7.11661 0.162269,-0.156496 0.508642,-0.385362 0.769719,-0.50859 l 0.474684,-0.224051 1.813974,-0.02187 1.813974,-0.02187 v 16.245919 16.24592 H 50.762943 48.694674 V 72.807941 c 0,-7.764116 -0.02501,-13.151929 -0.06099,-13.138595 -0.03354,0.01243 -1.931282,2.006108 -4.217194,4.430391 -2.285914,2.424283 -5.414549,5.74038 -6.952523,7.369106 l -2.796317,2.96132 -6.871016,-7.396099 -6.871015,-7.396099 -0.01713,13.165587 -0.01712,13.165588 h -2.102004 -2.102004 z m 112.839328,0.03492 V 53.554955 h 10.76982 c 9.3083,0 10.81565,0.01361 11.10758,0.100305 0.75458,0.224088 1.4644,0.955816 1.6831,1.73507 0.0659,0.234688 0.10593,0.651414 0.10593,1.101947 v 0.724532 h -10.00229 -10.00228 v 5.357156 5.357156 h 8.81557 8.81557 v 1.830926 1.830927 h -8.81557 -8.81557 v 5.357156 5.357156 h 10.00909 10.00909 l -0.0238,0.866225 c -0.0224,0.81798 -0.0361,0.891332 -0.24578,1.317026 -0.27505,0.558458 -0.81103,1.067733 -1.35484,1.287332 l -0.38969,0.157365 -10.83298,0.01797 -10.83299,0.01797 z"
       id="path306" /></g></svg>
